<svg width="641" height="418" viewBox="0 0 641 418" fill="none" xmlns="http://www.w3.org/2000/svg">
<path opacity="0.02439" d="M269.546 402.728L25.7059 253.216C-7.56375 232.67 -3.43087 197.04 35.2115 173.652L241.442 48.1848C280.085 24.7963 338.358 22.1733 371.835 42.7202L615.674 192.232C648.944 212.778 644.811 248.408 606.169 271.796L399.731 397.263C361.089 420.652 302.815 423.056 269.546 402.728Z" fill="#2947FB"/>
<path opacity="0.04878" d="M269.753 401.416L27.5658 252.998C-5.49721 232.67 -1.36433 197.259 37.0715 173.87L241.856 49.2777C280.291 25.8893 338.152 23.4849 371.215 43.8131L613.401 192.232C646.464 212.56 642.332 247.97 603.896 271.359L399.112 395.952C360.883 419.34 303.022 421.745 269.753 401.416Z" fill="#2947FB"/>
<path opacity="0.073171" d="M270.166 400.323L29.6323 252.779C-3.43069 232.451 0.908831 197.478 38.9313 174.308L242.269 50.5892C280.291 27.4193 337.945 25.0149 370.801 45.1246L611.335 192.669C644.191 212.778 640.059 247.97 602.036 271.14L398.698 394.859C360.676 418.029 303.022 420.433 270.166 400.323Z" fill="#159DEE"/>
<path opacity="0.097561" d="M270.579 399.012L31.6986 252.561C-1.15774 232.451 2.97514 197.478 40.791 174.526L242.889 51.6821C280.705 28.7308 337.945 26.3264 370.595 46.2175L609.475 192.669C642.125 212.778 637.992 247.533 600.176 270.703L398.078 393.547C360.263 416.717 303.229 419.121 270.579 399.012Z" fill="#159DEE"/>
<path opacity="0.122" d="M270.786 397.7L33.5586 252.342C1.11546 232.451 5.24833 197.696 42.8575 174.963L243.509 52.9937C281.118 30.0424 337.738 27.8565 370.182 47.7477L607.409 193.324C639.852 213.216 635.719 247.97 598.11 270.703L397.665 392.454C360.056 415.406 303.229 417.591 270.786 397.7Z" fill="#159DEE"/>
<path opacity="0.1463" d="M271.199 396.607L35.6249 252.123C3.38842 232.451 7.52131 197.915 44.7172 175.182L243.922 54.0865C281.118 31.3538 337.532 28.9494 369.768 48.8405L605.342 193.324C637.579 212.997 633.446 247.533 596.25 270.266L397.045 391.361C359.849 413.875 303.435 416.28 271.199 396.607Z" fill="#159DEE"/>
<path opacity="0.1707" d="M271.612 395.296L37.6913 251.905C5.66149 232.232 9.79437 198.133 46.7836 175.619L244.542 55.3981C281.531 32.884 337.532 30.4796 369.562 50.1521L603.482 193.543C635.512 213.216 631.379 247.315 594.39 269.829L396.632 390.05C359.436 412.564 303.435 414.969 271.612 395.296Z" fill="#159DEE"/>
<path opacity="0.1951" d="M271.819 394.203L39.5512 251.686C7.72801 232.232 11.8609 198.352 48.6435 175.838L244.955 56.2724C281.738 33.9769 337.325 31.5725 369.148 51.0264L601.416 193.543C633.239 212.997 629.106 246.877 592.324 269.392L396.012 388.957C359.229 411.252 303.642 413.657 271.819 394.203Z" fill="#159DEE"/>
<path opacity="0.2195" d="M272.232 392.891L41.6176 251.468C10.0011 232.232 14.134 198.352 50.5033 176.275L245.575 57.5839C282.151 35.2884 337.325 33.1026 368.735 52.3379L599.35 193.762C630.966 213.216 626.833 246.877 590.464 268.954L395.392 387.645C359.023 409.941 303.849 412.127 272.232 392.891Z" fill="#159DEE"/>
<path opacity="0.2439" d="M272.646 391.58L43.6841 251.249C12.2742 232.014 16.2004 198.57 52.5698 176.494L246.195 58.6769C282.358 36.5999 337.118 34.4141 368.528 53.4309L597.49 193.98C628.9 213.216 624.767 246.659 588.604 268.736L394.979 386.553C358.609 408.63 303.849 410.815 272.646 391.58Z" fill="#159DEE"/>
<path opacity="0.2683" d="M272.852 390.487L45.5438 251.031C14.5472 232.014 18.4734 198.789 54.4295 176.931L246.608 59.9884C282.564 38.13 336.912 35.7255 368.115 54.9609L595.423 194.417C626.42 213.434 622.494 246.659 586.538 268.517L394.359 385.46C358.403 407.318 304.055 409.504 272.852 390.487Z" fill="#159DEE"/>
<path opacity="0.2927" d="M273.265 389.176L47.6102 250.812C16.8202 231.795 20.7465 199.008 56.2892 177.149L247.022 61.0813C282.771 39.4415 336.705 37.0371 367.495 56.0539L593.15 194.417C623.94 213.434 620.014 246.222 584.471 268.08L393.739 384.148C358.196 405.788 304.055 408.192 273.265 389.176Z" fill="#61C9F6"/>
<path opacity="0.3171" d="M274.108 386.833L50.1064 249.343C19.5231 230.545 23.4493 197.758 58.7854 176.337L248.278 61.1429C283.821 39.5031 337.341 37.3173 367.925 56.1155L591.927 193.386C622.51 212.184 618.584 244.972 583.248 266.393L393.755 381.587C358.212 403.226 304.692 405.631 274.108 386.833Z" fill="#50B7F0"/>
<path opacity="0.3415" d="M273.885 386.771L51.5365 250.375C21.1598 231.795 25.0861 199.226 60.2155 177.805L248.262 63.4857C283.391 42.0645 336.705 39.8786 367.082 58.4583L589.431 194.855C619.807 213.434 615.881 246.003 580.752 267.424L392.706 381.744C357.576 403.165 304.469 405.351 273.885 386.771Z" fill="#48A4F2"/>
<g style="mix-blend-mode:screen" opacity="0.3659">
<path d="M274.299 385.46L53.6029 250.156C23.4329 231.577 27.1524 199.445 62.2819 178.242L248.881 64.7972C283.804 43.5946 336.705 41.4087 366.875 59.7698L587.571 195.073C617.741 213.653 614.021 245.785 578.892 266.987L392.292 380.432C357.369 401.853 304.469 404.039 274.299 385.46Z" fill="#61EFFE"/>
</g>
<g style="mix-blend-mode:screen" opacity="0.3902">
<path d="M274.712 384.367L55.6693 250.156C25.7059 231.795 29.4255 199.882 64.1417 178.679L249.295 66.1087C284.011 45.1246 336.292 42.7202 366.255 61.2998L585.298 195.51C615.261 213.871 611.542 245.785 576.825 266.987L391.672 379.558C356.956 400.542 304.675 402.728 274.712 384.367Z" fill="#2947FB"/>
</g>
<g style="mix-blend-mode:screen" opacity="0.4146">
<path d="M274.919 383.055L57.5291 249.719C27.7724 231.577 31.492 199.663 66.0015 178.898L249.708 67.2016C284.011 46.2176 336.085 44.0317 365.842 62.3928L583.231 195.729C612.988 213.871 609.268 245.785 574.759 266.55L391.052 378.246C356.75 399.23 304.675 401.416 274.919 383.055Z" fill="#2947FB"/>
</g>
<g style="mix-blend-mode:screen" opacity="0.439">
<path d="M275.332 381.962L59.5957 249.719C30.0456 231.577 33.7652 200.101 68.0681 179.335L250.535 68.2946C284.631 47.5291 336.292 45.3432 365.842 63.4857L581.578 195.729C611.128 213.871 607.409 245.347 573.106 266.113L390.639 377.153C356.543 397.7 304.882 399.886 275.332 381.962Z" fill="#136CAD"/>
</g>
<g style="mix-blend-mode:screen" opacity="0.4634">
<path d="M275.745 380.651L61.6619 249.501C32.3185 231.577 36.0381 200.319 69.9277 179.772L250.948 69.606C284.837 49.0592 336.085 46.8733 365.222 64.7972L579.305 195.947C608.648 213.871 604.929 245.129 571.039 265.676L390.019 375.842C356.13 396.389 304.882 398.575 275.745 380.651Z" fill="#136CAD"/>
</g>
<g style="mix-blend-mode:screen" opacity="0.4878">
<path d="M275.952 379.339L63.7284 249.282C34.5916 231.358 38.3112 200.538 71.9942 179.991L251.568 70.699C285.251 50.1521 336.085 48.1848 365.015 65.8901L577.445 196.166C606.582 214.09 602.862 244.91 569.18 265.457L389.606 374.749C355.923 395.077 305.089 397.263 275.952 379.339Z" fill="#01F0E2"/>
</g>
<g style="mix-blend-mode:screen" opacity="0.5122">
<path d="M276.365 378.246L65.5884 249.063C36.6582 231.358 40.3778 200.538 73.8541 180.428L251.981 72.0104C285.251 51.6821 335.672 49.4963 364.602 67.2015L575.379 196.385C604.309 214.09 600.589 244.91 567.113 265.02L388.986 373.437C355.716 393.766 305.295 395.952 276.365 378.246Z" fill="#01F0E2"/>
</g>
<g style="mix-blend-mode:screen" opacity="0.5366">
<path d="M276.778 376.935L67.6545 248.845C39.1377 231.358 42.6506 200.756 75.7136 180.647L252.394 73.1034C285.457 52.9937 335.465 50.8078 364.189 68.5131L573.312 196.603C601.829 214.09 598.316 244.692 565.253 264.801L388.573 372.345C355.303 392.454 305.295 394.422 276.778 376.935Z" fill="black"/>
</g>
<g style="mix-blend-mode:screen" opacity="0.561">
<path d="M277.192 375.842L69.7211 248.626C41.4108 231.139 44.9238 200.975 77.7802 180.865L253.221 74.1963C286.077 54.3052 335.672 52.1193 363.982 69.606L571.246 196.822C599.556 214.308 596.043 244.473 563.187 264.583L387.953 371.033C355.096 391.143 305.502 393.11 277.192 375.842Z" fill="black"/>
</g>
<g style="mix-blend-mode:screen" opacity="0.5854">
<path d="M277.398 374.53L71.581 248.408C43.4774 231.139 46.9903 201.193 79.6401 181.302L253.634 75.5078C286.284 55.6166 335.465 53.6494 363.569 70.9176L569.386 197.04C597.49 214.308 593.977 244.254 561.327 264.146L387.333 369.94C354.89 389.613 305.502 391.799 277.398 374.53Z" fill="black"/>
</g>
<g style="mix-blend-mode:screen" opacity="0.6098">
<path d="M277.812 373.219L73.6473 248.189C45.7504 231.139 49.2634 201.193 81.4998 181.521L254.047 76.6007C286.284 56.9282 335.259 54.961 363.155 72.0105L567.32 197.04C595.217 214.09 591.704 244.036 559.467 263.708L386.92 368.629C354.476 388.301 305.708 390.487 277.812 373.219Z" fill="black"/>
</g>
<g style="mix-blend-mode:screen" opacity="0.6341">
<path d="M278.225 372.126L75.7139 247.97C48.0236 230.921 51.5366 201.412 83.5664 181.958L254.668 77.9122C286.697 58.4583 335.052 56.491 362.742 73.3219L565.253 197.478C592.944 214.527 589.431 244.036 557.401 263.49L386.3 367.536C354.27 386.99 305.915 388.957 278.225 372.126Z" fill="black"/>
</g>
<g style="mix-blend-mode:screen" opacity="0.6585">
<path d="M278.432 370.814L77.5736 247.752C50.0899 230.921 53.6029 201.631 85.4261 182.177L255.081 79.0051C286.904 59.7697 334.845 57.5839 362.329 74.4148L563.187 197.478C590.671 214.309 587.158 243.599 555.334 263.053L385.68 366.224C354.063 385.678 305.915 387.645 278.432 370.814Z" fill="black"/>
</g>
<g style="mix-blend-mode:screen" opacity="0.6829">
<path d="M278.845 369.722L79.8468 247.533C52.5698 230.921 56.0827 201.849 87.4926 182.614L255.907 80.3166C287.524 61.0812 335.052 59.114 362.329 75.9449L561.327 198.133C588.604 214.746 585.091 243.817 553.681 263.053L385.267 365.131C353.65 384.367 306.122 386.334 278.845 369.722Z" fill="#01F0E2"/>
</g>
<g style="mix-blend-mode:screen" opacity="0.7073">
<path d="M279.258 368.41L81.9131 247.315C54.8427 230.702 58.3557 201.849 89.5589 182.832L256.527 81.191C287.73 62.1742 335.052 60.2069 362.122 76.8193L559.467 197.915C586.537 214.527 583.025 243.38 551.821 262.397L384.853 364.038C353.443 383.055 306.122 385.022 279.258 368.41Z" fill="#01F0E2"/>
</g>
<g style="mix-blend-mode:screen" opacity="0.7317">
<path d="M279.465 367.099L83.7731 247.096C56.9094 230.702 60.4223 202.068 91.4189 183.27L256.941 82.5025C287.937 63.7043 334.846 61.7371 361.503 78.1308L557.194 198.133C584.058 214.527 580.545 243.162 549.549 261.96L384.027 362.727C353.237 381.525 306.329 383.492 279.465 367.099Z" fill="#01F0E2"/>
</g>
<g style="mix-blend-mode:screen" opacity="0.7561">
<path d="M279.878 366.006L85.8395 246.878C59.1824 230.484 62.6953 202.286 93.4853 183.488L257.561 83.5954C288.351 64.7972 334.639 63.0485 361.296 79.2237L555.335 198.352C581.992 214.746 578.479 242.943 547.689 261.741L383.613 361.634C352.823 380.214 306.329 382.181 279.878 366.006Z" fill="#01F0E2"/>
</g>
<g style="mix-blend-mode:screen" opacity="0.7805">
<path d="M280.291 364.694L87.9058 246.659C61.662 230.484 64.9683 202.505 95.345 183.925L258.18 84.9069C288.557 66.3273 334.639 64.36 361.089 80.5352L553.475 198.57C579.718 214.746 576.412 242.724 546.035 261.304L383.2 360.323C352.617 378.902 306.535 380.869 280.291 364.694Z" fill="#01F0E2"/>
</g>
<g style="mix-blend-mode:screen" opacity="0.8049">
<path d="M280.498 363.601L89.7656 246.44C63.7285 230.484 67.0348 202.505 97.2048 184.144L258.594 85.9998C288.764 67.6388 334.432 65.6716 360.469 81.6282L551.202 198.57C577.239 214.527 573.932 242.506 543.762 260.867L382.373 359.011C352.41 377.591 306.742 379.558 280.498 363.601Z" fill="#01F0E2"/>
</g>
<g style="mix-blend-mode:screen" opacity="0.8293">
<path d="M280.911 362.29L91.8321 246.222C66.0016 230.265 69.3079 202.724 99.2712 184.581L259.214 87.3114C289.177 69.1689 334.432 67.2016 360.263 83.1582L549.342 199.226C575.172 215.183 571.866 242.724 541.903 260.867L381.96 358.137C351.997 376.279 306.742 378.246 280.911 362.29Z" fill="#01F0E2"/>
</g>
<g style="mix-blend-mode:screen" opacity="0.8537">
<path d="M281.325 360.978L93.8986 246.003C68.2747 230.265 71.581 202.942 101.131 184.8L259.627 88.4042C289.384 70.2618 334.225 68.5131 359.849 84.2511L547.275 199.226C572.899 214.964 569.593 242.287 540.043 260.43L381.547 356.825C351.79 374.968 306.948 376.716 281.325 360.978Z" fill="#01F0E2"/>
</g>
<g style="mix-blend-mode:screen" opacity="0.878">
<path d="M281.531 359.885L95.7583 246.003C70.3411 230.484 73.6474 203.379 102.991 185.455L260.04 89.9343C289.384 72.0105 333.812 70.2618 359.436 85.7813L545.209 199.663C570.626 215.183 567.32 242.287 537.976 260.211L380.927 355.732C351.583 373.656 306.948 375.405 281.531 359.885Z" fill="#01F0E2"/>
</g>
<g style="mix-blend-mode:screen" opacity="0.9024">
<path d="M281.945 358.574L97.8248 245.566C72.6143 230.047 75.9206 203.161 105.057 185.455L260.867 90.8086C290.004 73.1034 334.019 71.1361 359.229 86.6556L543.349 199.663C568.56 215.183 565.253 242.069 536.117 259.774L380.307 354.421C351.17 372.126 307.155 374.093 281.945 358.574Z" fill="#01F0E2"/>
</g>
<g style="mix-blend-mode:screen" opacity="0.9268">
<path d="M282.358 357.481L99.8912 245.566C74.8873 230.265 78.1936 203.598 106.917 186.111L261.28 92.3388C290.21 74.8521 333.812 72.8848 358.816 88.1857L541.283 200.101C566.287 215.401 562.98 242.069 534.257 259.555L379.894 353.328C350.964 370.815 307.362 372.782 282.358 357.481Z" fill="#01F0E2"/>
</g>
<g style="mix-blend-mode:screen" opacity="0.9512">
<path d="M282.564 356.169L101.751 245.347C76.9538 230.265 80.2601 203.817 108.777 186.33L261.693 93.2131C290.417 75.7264 333.606 73.9777 358.403 89.06L539.216 199.882C564.014 214.964 560.914 241.413 532.19 258.9L379.274 352.016C350.757 369.503 307.362 371.252 282.564 356.169Z" fill="#01F0E2"/>
</g>
<g style="mix-blend-mode:screen" opacity="0.9756">
<path d="M282.978 354.858L103.817 244.91C79.2269 229.828 82.3265 203.598 110.843 186.548L262.313 94.306C290.624 77.0379 333.606 75.2892 357.99 90.3715L537.15 200.319C561.74 215.401 558.641 241.631 530.124 258.681L378.654 350.923C350.344 368.191 307.568 369.94 282.978 354.858Z" fill="#01F0E2"/>
</g>
<g style="mix-blend-mode:soft-light">
<path d="M283.391 353.765L105.884 244.91C81.4998 230.047 84.5995 204.035 112.703 186.986L262.727 95.6176C290.83 78.568 333.399 76.8194 357.576 91.6831L535.083 200.538C559.467 215.401 556.368 241.413 528.264 258.462L378.24 349.83C350.137 366.88 307.568 368.629 283.391 353.765Z" fill="#67FFFF"/>
</g>
<path d="M578.09 201.028L577.884 162.346L543.303 162.121L361.96 47.1991C334.789 30.1071 287.447 32.1311 256.159 51.697L88.8129 156.723C87.372 157.623 86.137 158.522 84.9019 159.422L62.8773 159.197V194.956C63.0831 205.526 69.0524 215.646 81.1969 223.292L279.007 348.559C306.178 365.651 353.521 363.627 384.808 344.061L552.154 239.035C569.651 228.465 578.296 214.297 578.09 201.028Z" fill="#103560"/>
<path d="M278.845 298.163L80.2601 179.328C52.9831 163.113 56.4961 134.738 87.906 115.964L255.907 16.33C287.317 -2.44467 334.845 -4.3648 362.122 12.063L560.707 130.898C587.984 147.112 584.471 175.488 553.061 194.262L385.06 293.896C353.65 312.67 306.122 314.591 278.845 298.163Z" fill="url(#paint0_linear_7_4627)"/>
<defs>
<linearGradient id="paint0_linear_7_4627" x1="121.977" y1="-160.71" x2="627.126" y2="421.436" gradientUnits="userSpaceOnUse">
<stop stop-color="#FFFCF6"/>
<stop offset="0.0001" stop-color="#FFCB62"/>
<stop offset="1" stop-color="#FFEBC4"/>
</linearGradient>
</defs>
</svg>
