<svg width="109" height="109" viewBox="0 0 109 109" fill="none" xmlns="http://www.w3.org/2000/svg">
<g filter="url(#filter0_d_23_143)">
<path fill-rule="evenodd" clip-rule="evenodd" d="M80.0864 7.4856H18.1008C13.1183 7.4856 9.06424 11.5397 9.06424 16.5222V16.5287V78.5094C9.06424 83.4919 13.1183 87.546 18.1008 87.546H80.0864C85.0689 87.546 89.123 83.4919 89.123 78.5094V16.5287V16.5222C89.123 11.5397 85.0689 7.4856 80.0864 7.4856ZM85.7872 78.5094C85.7872 81.653 83.23 84.2102 80.0864 84.2102H18.1008C14.9572 84.2102 12.4 81.653 12.4 78.5094V23.2516H85.7872V78.5094ZM85.7872 19.9158H12.4V16.5287C12.4 13.3827 14.9589 10.823 18.1049 10.823H80.0823C83.2283 10.823 85.7872 13.3827 85.7872 16.5287V19.9158ZM21.5636 13.702H21.5465C20.6254 13.702 19.8876 14.4488 19.8876 15.3699C19.8876 16.291 20.6425 17.0378 21.5636 17.0378C22.4847 17.0378 23.2315 16.291 23.2315 15.3699C23.2315 14.4488 22.4847 13.702 21.5636 13.702ZM28.938 13.702H28.9551C29.8762 13.702 30.623 14.4488 30.623 15.3699C30.623 16.291 29.8762 17.0378 28.9551 17.0378C28.0341 17.0378 27.2791 16.291 27.2791 15.3699C27.2791 14.4488 28.017 13.702 28.938 13.702ZM36.3474 13.702H36.3295C35.4084 13.702 34.6706 14.4488 34.6706 15.3699C34.6706 16.291 35.4263 17.0378 36.3474 17.0378C37.2685 17.0378 38.0153 16.291 38.0153 15.3699C38.0153 14.4488 37.2685 13.702 36.3474 13.702ZM49.4014 13.702H76.6407C77.5618 13.702 78.3086 14.4488 78.3086 15.3699C78.3086 16.291 77.5618 17.0378 76.6407 17.0378H49.4014C48.4804 17.0378 47.7336 16.291 47.7336 15.3699C47.7336 14.4488 48.4804 13.702 49.4014 13.702ZM25.5615 59.0411L30.4422 59.7936C30.7517 60.7725 31.1475 61.7278 31.6263 62.6513L28.7084 66.6158C28.2197 67.2795 28.2889 68.2006 28.872 68.7837L34.041 73.9527C34.6242 74.535 35.5436 74.6067 36.2082 74.1172L40.1613 71.2115C41.097 71.6919 42.0572 72.0926 43.0312 72.4086L43.7837 77.2649C43.9099 78.0777 44.6095 78.6771 45.432 78.6771H52.7551C53.5777 78.6771 54.2772 78.0777 54.4035 77.2649L55.156 72.4086C56.13 72.0926 57.0902 71.6919 58.0259 71.2115L61.979 74.1172C62.6436 74.6067 63.5647 74.535 64.1461 73.9527L69.3151 68.7837C69.8982 68.2006 69.9675 67.2795 69.4788 66.6158L66.5608 62.6505C67.0397 61.727 67.4355 60.7717 67.745 59.7936L72.6257 59.0411C73.4393 58.9156 74.0395 58.2161 74.0395 57.3927V50.0696C74.0395 49.2471 73.4393 48.5467 72.6265 48.4213L67.7515 47.668C67.4347 46.6883 67.0405 45.7346 66.5722 44.8168L69.4813 40.8425C69.9667 40.1796 69.8974 39.2617 69.3176 38.6794L64.1486 33.4934C63.5663 32.9102 62.6444 32.8378 61.9782 33.328L58.0129 36.246C57.1008 35.7737 56.1455 35.3754 55.1568 35.0554L54.4035 30.1975C54.2772 29.3847 53.5777 28.7853 52.7551 28.7853H45.432C44.6095 28.7853 43.9099 29.3847 43.7837 30.1975L43.0304 35.0554C42.0417 35.3754 41.0864 35.7737 40.1743 36.246L36.209 33.328C35.5452 32.8369 34.6209 32.9094 34.0386 33.4934L28.8696 38.6794C28.2898 39.2617 28.2205 40.1796 28.7059 40.8425L31.6149 44.8159C31.1467 45.7338 30.7525 46.6874 30.4349 47.668L25.5607 48.4213C24.7479 48.5467 24.1477 49.2471 24.1477 50.0696V57.3927C24.1477 58.2161 24.7479 58.9156 25.5615 59.0411ZM27.4835 51.4997L31.9928 50.8026C32.6492 50.7008 33.1835 50.2195 33.3512 49.5761C33.7234 48.155 34.287 46.7933 35.0265 45.5277C35.362 44.9536 35.3245 44.2361 34.932 43.7002L32.2404 40.0232L35.3881 36.865L39.0594 39.5671C39.6018 39.9662 40.329 40.0012 40.9032 39.6559C42.1468 38.9132 43.5044 38.3464 44.9385 37.9709C45.5811 37.8032 46.0632 37.2697 46.165 36.6133L46.8613 32.1211H51.3259L52.0222 36.6133C52.124 37.2697 52.6061 37.8032 53.2487 37.9709C54.6828 38.3464 56.0404 38.9132 57.284 39.6559C57.8606 40.0012 58.587 39.9662 59.1278 39.5671L62.7991 36.865L65.9468 40.0232L63.2552 43.7002C62.8626 44.2361 62.8252 44.9536 63.1599 45.5269C63.901 46.7949 64.4646 48.1574 64.8359 49.5761C65.0037 50.2195 65.5379 50.7008 66.1944 50.8026L70.7037 51.4997V55.9618L66.1772 56.6598C65.5119 56.7624 64.9736 57.2543 64.8123 57.9074C64.4678 59.3017 63.9083 60.652 63.1501 61.9216C62.8064 62.4982 62.8415 63.2246 63.2397 63.7654L65.9427 67.4383L62.8008 70.5811L59.1449 67.8944C58.6107 67.501 57.8899 67.4652 57.3158 67.7975C56.0078 68.5622 54.6405 69.1315 53.2527 69.4898C52.6085 69.6568 52.124 70.191 52.0222 70.849L51.3259 75.3413H46.8613L46.165 70.849C46.0632 70.191 45.5786 69.6568 44.9345 69.4898C43.5467 69.1315 42.1793 68.5622 40.8714 67.7975C40.2973 67.462 39.5765 67.4994 39.0423 67.8944L35.3864 70.5811L32.2445 67.4383L34.9475 63.7654C35.3457 63.2246 35.3807 62.4974 35.0362 61.9216C34.2788 60.6544 33.7202 59.3041 33.3749 57.9074C33.2136 57.2543 32.6753 56.7624 32.0099 56.6598L27.4835 55.9618V51.4997ZM43.7568 59.1617H44.2015V48.3009H43.7568C42.8357 48.3009 42.0889 47.5541 42.0889 46.633C42.0889 45.7119 42.8357 44.9651 43.7568 44.9651H44.5598V43.3477C44.5598 42.4266 45.3066 41.6798 46.2277 41.6798C47.1488 41.6798 47.8956 42.4266 47.8956 43.3477V44.9651H49.0065V43.3477C49.0065 42.4266 49.7533 41.6798 50.6743 41.6798C51.5954 41.6798 52.3422 42.4266 52.3422 43.3477V45.2002C54.5032 45.8378 56.095 47.8174 56.095 50.1822C56.095 51.5562 55.5505 52.7985 54.679 53.7313C55.5505 54.6641 56.095 55.9065 56.095 57.2805C56.095 59.6452 54.5032 61.6248 52.3422 62.2625V64.1149C52.3422 65.036 51.5954 65.7828 50.6743 65.7828C49.7533 65.7828 49.0065 65.036 49.0065 64.1149V62.4975H47.8956V64.1149C47.8956 65.036 47.1488 65.7828 46.2277 65.7828C45.3066 65.7828 44.5598 65.036 44.5598 64.1149V62.4975H43.7568C42.8357 62.4975 42.0889 61.7507 42.0889 60.8296C42.0889 59.9085 42.8357 59.1617 43.7568 59.1617ZM50.8779 48.3009H47.5373V52.0634H50.8779C51.9155 52.0634 52.7592 51.2197 52.7592 50.1822C52.7592 49.1446 51.9155 48.3009 50.8779 48.3009ZM50.8779 55.3992H47.5373V59.1617H50.8779C51.9155 59.1617 52.7592 58.318 52.7592 57.2805C52.7592 56.2429 51.9155 55.3992 50.8779 55.3992Z" fill="#E9EEF4"/>
</g>
<defs>
<filter id="filter0_d_23_143" x="0.0642395" y="0.485596" width="108.059" height="108.06" filterUnits="userSpaceOnUse" color-interpolation-filters="sRGB">
<feFlood flood-opacity="0" result="BackgroundImageFix"/>
<feColorMatrix in="SourceAlpha" type="matrix" values="0 0 0 0 0 0 0 0 0 0 0 0 0 0 0 0 0 0 127 0" result="hardAlpha"/>
<feOffset dx="5" dy="7"/>
<feGaussianBlur stdDeviation="7"/>
<feComposite in2="hardAlpha" operator="out"/>
<feColorMatrix type="matrix" values="0 0 0 0 0 0 0 0 0 0 0 0 0 0 0 0 0 0 0.2 0"/>
<feBlend mode="normal" in2="BackgroundImageFix" result="effect1_dropShadow_23_143"/>
<feBlend mode="normal" in="SourceGraphic" in2="effect1_dropShadow_23_143" result="shape"/>
</filter>
</defs>
</svg>
