<svg width="21" height="27" viewBox="0 0 21 27" fill="none" xmlns="http://www.w3.org/2000/svg">
<path d="M19.5294 13.7133C18.9022 12.9364 17.9558 12.4028 16.6903 12.1128C18.3019 11.3253 19.0101 9.98878 18.8157 8.10297C18.7507 7.41913 18.5534 6.82647 18.2234 6.32411C17.8931 5.82164 17.4475 5.4177 16.8847 5.11212C16.3224 4.80615 15.7108 4.57324 15.0514 4.41266C14.3918 4.25208 13.6345 4.13549 12.7801 4.06304V0.146729H10.2819V3.95423C9.84933 3.95423 9.18963 3.96457 8.30286 3.98531V0.146729H5.80438V4.06304C5.44736 4.07344 4.92289 4.07872 4.23074 4.07872L0.791504 4.06304V6.61179H2.59215C3.41414 6.61179 3.89543 6.96413 4.03601 7.66854V12.1288C4.14431 12.1288 4.23074 12.1342 4.29568 12.1445H4.03601V18.3917C3.94958 18.92 3.63598 19.1843 3.09514 19.1843H1.29461L0.791617 22.0284H4.03629C4.24182 22.0284 4.53905 22.031 4.92857 22.0357C5.31786 22.0409 5.60976 22.0435 5.80449 22.0435V26.0064H8.30337V22.0901C8.75749 22.1007 9.4172 22.1058 10.2824 22.1058V26.0064H12.7806V22.0435C13.6677 22.0021 14.4544 21.9249 15.1409 21.8105C15.8277 21.6961 16.4849 21.5177 17.1121 21.2741C17.7392 21.0307 18.2636 20.7275 18.6854 20.3649C19.1073 20.0026 19.4558 19.5413 19.7321 18.9817C20.0075 18.4222 20.1834 17.7746 20.2589 17.0389C20.4001 15.5991 20.1566 14.4905 19.5294 13.7133ZM8.35144 6.78227C8.42718 6.78227 8.64078 6.77966 8.99228 6.77443C9.34396 6.7691 9.63585 6.76398 9.86837 6.75876C10.1009 6.75364 10.4146 6.76659 10.8095 6.79767C11.2043 6.82875 11.5368 6.87029 11.8071 6.922C12.0774 6.97371 12.3751 7.05922 12.6993 7.17838C13.024 7.29742 13.2834 7.44254 13.4778 7.61345C13.6727 7.78437 13.8376 8.00205 13.9725 8.26626C14.1079 8.53043 14.1755 8.83345 14.1755 9.17529C14.1755 9.46541 14.1269 9.72968 14.0297 9.9681C13.9326 10.2063 13.7863 10.4058 13.5918 10.5664C13.3973 10.727 13.1969 10.867 12.9913 10.9861C12.786 11.1051 12.5235 11.201 12.2046 11.2735C11.8857 11.3461 11.6072 11.403 11.3694 11.4444C11.1314 11.4859 10.8341 11.5145 10.4771 11.5299C10.1201 11.5454 9.84962 11.5559 9.66585 11.5611C9.48192 11.5662 9.23054 11.5662 8.91137 11.5611C8.59214 11.5559 8.40582 11.5532 8.35161 11.5532V6.78222H8.35144V6.78227ZM15.1735 17.3654C15.0705 17.6038 14.9382 17.8112 14.7761 17.9874C14.6137 18.1632 14.4 18.3188 14.1352 18.4533C13.8704 18.5882 13.6132 18.6968 13.3647 18.7797C13.1158 18.8629 12.8156 18.935 12.4644 18.9974C12.1125 19.0596 11.8044 19.1034 11.5392 19.1295C11.2743 19.1554 10.9581 19.1761 10.5902 19.1917C10.2227 19.207 9.93587 19.2149 9.73046 19.2149C9.52493 19.2149 9.26531 19.212 8.95165 19.207C8.63782 19.2021 8.43792 19.1995 8.35132 19.1995V13.9465C8.43775 13.9465 8.69465 13.9415 9.12195 13.9309C9.54931 13.9204 9.89792 13.9156 10.1683 13.9156C10.4387 13.9156 10.812 13.9309 11.288 13.9622C11.7636 13.9931 12.1638 14.0395 12.4886 14.1016C12.8129 14.1639 13.1669 14.2596 13.5511 14.3893C13.9349 14.5187 14.246 14.6767 14.4841 14.8632C14.722 15.05 14.922 15.2879 15.0842 15.5781C15.2467 15.8681 15.3278 16.1997 15.3278 16.5728C15.3278 16.8632 15.2764 17.127 15.1735 17.3654Z" fill="#E215A7"/>
</svg>
