<svg width="41" height="41" viewBox="0 0 41 41" fill="none" xmlns="http://www.w3.org/2000/svg">
<g filter="url(#filter0_d_91_176)">
<rect x="33.5909" y="1.10645" width="30" height="30" rx="4" transform="rotate(90 33.5909 1.10645)" fill="url(#paint0_linear_91_176)"/>
</g>
<g filter="url(#filter1_i_91_176)">
<rect x="33.5909" y="1.10645" width="30" height="30" rx="3" transform="rotate(90 33.5909 1.10645)" fill="#FEB109"/>
</g>
<path d="M22.0803 17.0484L22.4963 14.3356H19.8927V12.5688C19.8746 12.3662 19.9023 12.1621 19.9737 11.9717C20.0451 11.7812 20.1583 11.6092 20.3051 11.4684C20.4519 11.3276 20.6285 11.2216 20.8218 11.1583C21.0151 11.0949 21.2202 11.0758 21.4218 11.1024H22.6056V8.79911C21.9107 8.68692 21.2085 8.62572 20.5047 8.616C20.0204 8.57913 19.534 8.64922 19.0798 8.8213C18.6256 8.99338 18.2149 9.26324 17.8766 9.61176C17.5383 9.96028 17.2809 10.3789 17.1225 10.838C16.964 11.2972 16.9085 11.7855 16.9599 12.2684V14.3356H14.5763V17.0484H16.9599V23.6064H19.8927V17.0484H22.0803Z" fill="#EDEDED"/>
<defs>
<filter id="filter0_d_91_176" x="0.590942" y="0.106445" width="40" height="40" filterUnits="userSpaceOnUse" color-interpolation-filters="sRGB">
<feFlood flood-opacity="0" result="BackgroundImageFix"/>
<feColorMatrix in="SourceAlpha" type="matrix" values="0 0 0 0 0 0 0 0 0 0 0 0 0 0 0 0 0 0 127 0" result="hardAlpha"/>
<feOffset dx="2" dy="4"/>
<feGaussianBlur stdDeviation="2.5"/>
<feComposite in2="hardAlpha" operator="out"/>
<feColorMatrix type="matrix" values="0 0 0 0 0 0 0 0 0 0 0 0 0 0 0 0 0 0 0.16 0"/>
<feBlend mode="normal" in2="BackgroundImageFix" result="effect1_dropShadow_91_176"/>
<feBlend mode="normal" in="SourceGraphic" in2="effect1_dropShadow_91_176" result="shape"/>
</filter>
<filter id="filter1_i_91_176" x="3.59094" y="1.10645" width="34" height="34" filterUnits="userSpaceOnUse" color-interpolation-filters="sRGB">
<feFlood flood-opacity="0" result="BackgroundImageFix"/>
<feBlend mode="normal" in="SourceGraphic" in2="BackgroundImageFix" result="shape"/>
<feColorMatrix in="SourceAlpha" type="matrix" values="0 0 0 0 0 0 0 0 0 0 0 0 0 0 0 0 0 0 127 0" result="hardAlpha"/>
<feOffset dx="4" dy="4"/>
<feGaussianBlur stdDeviation="3.5"/>
<feComposite in2="hardAlpha" operator="arithmetic" k2="-1" k3="1"/>
<feColorMatrix type="matrix" values="0 0 0 0 0 0 0 0 0 0 0 0 0 0 0 0 0 0 0.16 0"/>
<feBlend mode="normal" in2="shape" result="effect1_innerShadow_91_176"/>
</filter>
<linearGradient id="paint0_linear_91_176" x1="32.5886" y1="-1.05252" x2="62.521" y2="32.2839" gradientUnits="userSpaceOnUse">
<stop stop-color="#014F84"/>
<stop offset="0.0001" stop-color="#2E33B6"/>
<stop offset="1" stop-color="#0071BC"/>
</linearGradient>
</defs>
</svg>
