<svg width="28" height="18" viewBox="0 0 28 18" fill="none" xmlns="http://www.w3.org/2000/svg">
<path d="M19.9719 0.740234C17.7854 0.740234 16.076 2.27453 14.5288 4.22359C12.4025 1.70133 10.6242 0.740234 8.49623 0.740234C4.15777 0.740234 0.833618 6.00045 0.833618 11.5681C0.833618 15.0521 2.64283 17.2495 5.67318 17.2495C7.85426 17.2495 9.42289 16.2916 12.2115 11.7502C12.2115 11.7502 13.3739 9.83773 14.1736 8.52034C14.4538 8.94186 14.7483 9.39535 15.059 9.88296L16.3667 11.9324C18.9139 15.9037 20.3332 17.2495 22.905 17.2495C25.8571 17.2495 27.5001 15.022 27.5001 11.4655C27.5001 5.63609 24.101 0.740234 19.9719 0.740234ZM10.085 10.5206C7.8241 13.8225 7.04197 14.5625 5.78317 14.5625C4.48771 14.5625 3.71782 13.503 3.71782 11.6136C3.71782 7.57167 5.88099 3.43864 8.45962 3.43864C9.85602 3.43864 11.023 4.18997 12.8104 6.57399C11.1131 8.9994 10.085 10.5206 10.085 10.5206ZM18.618 10.1049L17.0545 7.6756C16.6314 7.03452 16.2259 6.4454 15.8347 5.9053C17.2438 3.87903 18.4062 2.86937 19.7886 2.86937C22.6606 2.86937 24.9582 6.80884 24.9582 11.6478C24.9582 13.4923 24.3097 14.5625 22.9662 14.5625C21.6783 14.5625 21.0631 13.7702 18.618 10.1049Z" fill="#E215A7"/>
</svg>
