<svg width="53" height="53" viewBox="0 0 53 53" fill="none" xmlns="http://www.w3.org/2000/svg">
<g filter="url(#filter0_d_91_178)">
<rect x="40.2576" y="10.1064" width="30" height="30" rx="4" transform="rotate(90 40.2576 10.1064)" fill="url(#paint0_linear_91_178)"/>
</g>
<g filter="url(#filter1_d_91_178)">
<rect x="40.2576" y="10.1064" width="30" height="30" rx="4" transform="rotate(90 40.2576 10.1064)" fill="url(#paint1_linear_91_178)"/>
</g>
<g filter="url(#filter2_i_91_178)">
<rect x="40.2576" y="10.1064" width="30" height="30" rx="4" transform="rotate(90 40.2576 10.1064)" fill="url(#paint2_linear_91_178)"/>
</g>
<path d="M25.267 21.2639C24.5062 21.2628 23.7622 21.4873 23.1291 21.9092C22.496 22.3311 22.0022 22.9312 21.7103 23.6338C21.4184 24.3363 21.3414 25.1097 21.4892 25.856C21.6369 26.6023 22.0027 27.288 22.5403 27.8264C23.0778 28.3647 23.763 28.7315 24.5091 28.8803C25.2552 29.0292 26.0286 28.9533 26.7316 28.6625C27.4346 28.3716 28.0355 27.8787 28.4583 27.2462C28.8811 26.6137 29.1067 25.87 29.1067 25.1093C29.1075 24.6045 29.0087 24.1046 28.8161 23.6381C28.6234 23.1716 28.3407 22.7477 27.9841 22.3905C27.6275 22.0334 27.2039 21.75 26.7377 21.5567C26.2715 21.3634 25.7717 21.2639 25.267 21.2639ZM25.267 27.6085C24.7724 27.6096 24.2887 27.464 23.877 27.19C23.4652 26.9161 23.144 26.5261 22.954 26.0696C22.764 25.613 22.7137 25.1103 22.8095 24.6251C22.9053 24.14 23.1429 23.6941 23.4922 23.344C23.8415 22.994 24.2868 22.7554 24.7717 22.6585C25.2567 22.5616 25.7595 22.6108 26.2165 22.7997C26.6735 22.9887 27.0641 23.3091 27.339 23.7202C27.6139 24.1313 27.7606 24.6147 27.7606 25.1093C27.7591 25.7707 27.4961 26.4046 27.0289 26.8729C26.5618 27.3411 25.9284 27.6055 25.267 27.6085ZM30.1604 21.1008C30.1604 21.278 30.1079 21.4513 30.0094 21.5987C29.9109 21.746 29.7709 21.8609 29.6072 21.9287C29.4434 21.9966 29.2632 22.0143 29.0894 21.9797C28.9155 21.9452 28.7559 21.8598 28.6305 21.7345C28.5052 21.6091 28.4198 21.4494 28.3853 21.2756C28.3507 21.1018 28.3684 20.9216 28.4363 20.7578C28.5041 20.594 28.619 20.4541 28.7663 20.3556C28.9137 20.2571 29.087 20.2046 29.2642 20.2046C29.382 20.2043 29.4986 20.2273 29.6075 20.2723C29.7163 20.3172 29.8152 20.3832 29.8985 20.4665C29.9818 20.5498 30.0478 20.6487 30.0927 20.7575C30.1377 20.8664 30.1607 20.983 30.1604 21.1008ZM32.7065 22.012C32.7311 20.8461 32.2961 19.7174 31.4953 18.8696C30.646 18.0715 29.5184 17.6369 28.353 17.6585C27.1156 17.5891 23.4033 17.5891 22.1659 17.6585C20.9999 17.6358 19.8713 18.0705 19.0217 18.8696C18.2222 19.7181 17.7874 20.8464 17.8106 22.012C17.7412 23.2494 17.7412 26.9616 17.8106 28.1991C17.7855 29.3656 18.2206 30.495 19.0217 31.3432C19.8714 32.1409 20.9988 32.5754 22.1641 32.5544C23.4015 32.6238 27.1137 32.6238 28.3512 32.5544C29.517 32.579 30.6457 32.144 31.4935 31.3432C32.2916 30.4939 32.7262 29.3663 32.7046 28.2009C32.774 26.9635 32.774 23.255 32.7046 22.0138L32.7065 22.012ZM31.1072 29.5377C30.98 29.8602 30.7878 30.153 30.5427 30.3981C30.2976 30.6432 30.0048 30.8354 29.6823 30.9626C28.2304 31.2582 26.7453 31.3572 25.267 31.257C23.7865 31.3537 22.2996 31.2522 20.846 30.9551C20.5236 30.8279 20.2307 30.6357 19.9856 30.3906C19.7405 30.1455 19.5484 29.8527 19.4211 29.5302C19.12 28.0771 19.016 26.5901 19.1117 25.1093C19.015 23.6287 19.1166 22.1419 19.4136 20.6883C19.5409 20.3659 19.733 20.073 19.9781 19.8279C20.2232 19.5828 20.5161 19.3907 20.8385 19.2634C22.2943 18.9635 23.7839 18.8613 25.267 18.9596C26.7475 18.8629 28.2343 18.9645 29.688 19.2615C30.0104 19.3888 30.3032 19.5809 30.5483 19.826C30.7934 20.0711 30.9856 20.364 31.1129 20.6864C31.4114 22.1398 31.513 23.6269 31.4147 25.1074C31.5121 26.5913 31.4087 28.0815 31.1072 29.5377Z" fill="#EC1D5A"/>
<defs>
<filter id="filter0_d_91_178" x="0.257629" y="0.106445" width="46" height="46" filterUnits="userSpaceOnUse" color-interpolation-filters="sRGB">
<feFlood flood-opacity="0" result="BackgroundImageFix"/>
<feColorMatrix in="SourceAlpha" type="matrix" values="0 0 0 0 0 0 0 0 0 0 0 0 0 0 0 0 0 0 127 0" result="hardAlpha"/>
<feOffset dx="-2" dy="-2"/>
<feGaussianBlur stdDeviation="4"/>
<feComposite in2="hardAlpha" operator="out"/>
<feColorMatrix type="matrix" values="0 0 0 0 0.929167 0 0 0 0 0.902066 0 0 0 0 0.902066 0 0 0 0.1 0"/>
<feBlend mode="normal" in2="BackgroundImageFix" result="effect1_dropShadow_91_178"/>
<feBlend mode="normal" in="SourceGraphic" in2="effect1_dropShadow_91_178" result="shape"/>
</filter>
<filter id="filter1_d_91_178" x="4.25763" y="4.10645" width="48" height="48" filterUnits="userSpaceOnUse" color-interpolation-filters="sRGB">
<feFlood flood-opacity="0" result="BackgroundImageFix"/>
<feColorMatrix in="SourceAlpha" type="matrix" values="0 0 0 0 0 0 0 0 0 0 0 0 0 0 0 0 0 0 127 0" result="hardAlpha"/>
<feOffset dx="3" dy="3"/>
<feGaussianBlur stdDeviation="4.5"/>
<feComposite in2="hardAlpha" operator="out"/>
<feColorMatrix type="matrix" values="0 0 0 0 0 0 0 0 0 0 0 0 0 0 0 0 0 0 0.35 0"/>
<feBlend mode="normal" in2="BackgroundImageFix" result="effect1_dropShadow_91_178"/>
<feBlend mode="normal" in="SourceGraphic" in2="effect1_dropShadow_91_178" result="shape"/>
</filter>
<filter id="filter2_i_91_178" x="10.2576" y="10.1064" width="31" height="31" filterUnits="userSpaceOnUse" color-interpolation-filters="sRGB">
<feFlood flood-opacity="0" result="BackgroundImageFix"/>
<feBlend mode="normal" in="SourceGraphic" in2="BackgroundImageFix" result="shape"/>
<feColorMatrix in="SourceAlpha" type="matrix" values="0 0 0 0 0 0 0 0 0 0 0 0 0 0 0 0 0 0 127 0" result="hardAlpha"/>
<feOffset dx="1" dy="1"/>
<feGaussianBlur stdDeviation="1"/>
<feComposite in2="hardAlpha" operator="arithmetic" k2="-1" k3="1"/>
<feColorMatrix type="matrix" values="0 0 0 0 0.878431 0 0 0 0 0.898039 0 0 0 0 0.901961 0 0 0 1 0"/>
<feBlend mode="normal" in2="shape" result="effect1_innerShadow_91_178"/>
</filter>
<linearGradient id="paint0_linear_91_178" x1="39.5354" y1="7.89592" x2="78.0792" y2="28.4541" gradientUnits="userSpaceOnUse">
<stop stop-color="#FDFDFD"/>
<stop offset="1" stop-color="#E1E5E6"/>
</linearGradient>
<linearGradient id="paint1_linear_91_178" x1="39.5354" y1="7.89592" x2="78.0792" y2="28.4541" gradientUnits="userSpaceOnUse">
<stop stop-color="white"/>
<stop offset="1" stop-color="#DDE2E3"/>
</linearGradient>
<linearGradient id="paint2_linear_91_178" x1="39.5354" y1="7.89592" x2="78.0792" y2="28.4541" gradientUnits="userSpaceOnUse">
<stop stop-color="white"/>
<stop offset="1" stop-color="#DDE2E3"/>
</linearGradient>
</defs>
</svg>
