<svg width="53" height="53" viewBox="0 0 53 53" fill="none" xmlns="http://www.w3.org/2000/svg">
<g filter="url(#filter0_d_91_179)">
<rect x="40.5909" y="10.1064" width="30" height="30" rx="4" transform="rotate(90 40.5909 10.1064)" fill="url(#paint0_linear_91_179)"/>
</g>
<g filter="url(#filter1_d_91_179)">
<rect x="40.5909" y="10.1064" width="30" height="30" rx="4" transform="rotate(90 40.5909 10.1064)" fill="url(#paint1_linear_91_179)"/>
</g>
<g filter="url(#filter2_i_91_179)">
<rect x="40.5909" y="10.1064" width="30" height="30" rx="4" transform="rotate(90 40.5909 10.1064)" fill="url(#paint2_linear_91_179)"/>
</g>
<path d="M21.4607 32.5993H18.3532V22.5968H21.4607V32.5993ZM19.906 21.2294C19.5486 21.2309 19.1987 21.1263 18.9007 20.929C18.6027 20.7317 18.3698 20.4505 18.2316 20.1209C18.0934 19.7913 18.056 19.4281 18.1241 19.0772C18.1922 18.7264 18.3629 18.4036 18.6144 18.1497C18.866 17.8957 19.1872 17.7221 19.5374 17.6507C19.8876 17.5793 20.2511 17.6133 20.582 17.7485C20.9129 17.8836 21.1963 18.1138 21.3964 18.41C21.5964 18.7062 21.7042 19.055 21.7061 19.4124C21.7071 19.8919 21.5183 20.3523 21.1811 20.693C20.8438 21.0338 20.3854 21.2273 19.906 21.2313V21.2294ZM33.0909 32.5993H29.9872V27.7291C29.9872 26.5678 29.9628 25.0805 28.3725 25.0805C26.7822 25.0805 26.5106 26.3412 26.5106 27.6467V32.5993H23.4069V22.5968H26.3851V23.9623H26.4282C26.726 23.4522 27.1567 23.0324 27.6742 22.7478C28.1918 22.4631 28.7769 22.3242 29.3672 22.3458C32.514 22.3458 33.0909 24.4156 33.0909 27.1054V32.5993Z" fill="#EC1D5A"/>
<defs>
<filter id="filter0_d_91_179" x="0.590943" y="0.106445" width="46" height="46" filterUnits="userSpaceOnUse" color-interpolation-filters="sRGB">
<feFlood flood-opacity="0" result="BackgroundImageFix"/>
<feColorMatrix in="SourceAlpha" type="matrix" values="0 0 0 0 0 0 0 0 0 0 0 0 0 0 0 0 0 0 127 0" result="hardAlpha"/>
<feOffset dx="-2" dy="-2"/>
<feGaussianBlur stdDeviation="4"/>
<feComposite in2="hardAlpha" operator="out"/>
<feColorMatrix type="matrix" values="0 0 0 0 0.929167 0 0 0 0 0.902066 0 0 0 0 0.902066 0 0 0 0.1 0"/>
<feBlend mode="normal" in2="BackgroundImageFix" result="effect1_dropShadow_91_179"/>
<feBlend mode="normal" in="SourceGraphic" in2="effect1_dropShadow_91_179" result="shape"/>
</filter>
<filter id="filter1_d_91_179" x="4.59094" y="4.10645" width="48" height="48" filterUnits="userSpaceOnUse" color-interpolation-filters="sRGB">
<feFlood flood-opacity="0" result="BackgroundImageFix"/>
<feColorMatrix in="SourceAlpha" type="matrix" values="0 0 0 0 0 0 0 0 0 0 0 0 0 0 0 0 0 0 127 0" result="hardAlpha"/>
<feOffset dx="3" dy="3"/>
<feGaussianBlur stdDeviation="4.5"/>
<feComposite in2="hardAlpha" operator="out"/>
<feColorMatrix type="matrix" values="0 0 0 0 0 0 0 0 0 0 0 0 0 0 0 0 0 0 0.35 0"/>
<feBlend mode="normal" in2="BackgroundImageFix" result="effect1_dropShadow_91_179"/>
<feBlend mode="normal" in="SourceGraphic" in2="effect1_dropShadow_91_179" result="shape"/>
</filter>
<filter id="filter2_i_91_179" x="10.5909" y="10.1064" width="31" height="31" filterUnits="userSpaceOnUse" color-interpolation-filters="sRGB">
<feFlood flood-opacity="0" result="BackgroundImageFix"/>
<feBlend mode="normal" in="SourceGraphic" in2="BackgroundImageFix" result="shape"/>
<feColorMatrix in="SourceAlpha" type="matrix" values="0 0 0 0 0 0 0 0 0 0 0 0 0 0 0 0 0 0 127 0" result="hardAlpha"/>
<feOffset dx="1" dy="1"/>
<feGaussianBlur stdDeviation="1"/>
<feComposite in2="hardAlpha" operator="arithmetic" k2="-1" k3="1"/>
<feColorMatrix type="matrix" values="0 0 0 0 0.878431 0 0 0 0 0.898039 0 0 0 0 0.901961 0 0 0 1 0"/>
<feBlend mode="normal" in2="shape" result="effect1_innerShadow_91_179"/>
</filter>
<linearGradient id="paint0_linear_91_179" x1="39.8687" y1="7.89592" x2="78.4125" y2="28.4541" gradientUnits="userSpaceOnUse">
<stop stop-color="#FDFDFD"/>
<stop offset="1" stop-color="#E1E5E6"/>
</linearGradient>
<linearGradient id="paint1_linear_91_179" x1="39.8687" y1="7.89592" x2="78.4125" y2="28.4541" gradientUnits="userSpaceOnUse">
<stop stop-color="white"/>
<stop offset="1" stop-color="#DDE2E3"/>
</linearGradient>
<linearGradient id="paint2_linear_91_179" x1="39.8687" y1="7.89592" x2="78.4125" y2="28.4541" gradientUnits="userSpaceOnUse">
<stop stop-color="white"/>
<stop offset="1" stop-color="#DDE2E3"/>
</linearGradient>
</defs>
</svg>
