<svg width="175" height="65" viewBox="0 0 175 65" fill="none" xmlns="http://www.w3.org/2000/svg">
<path d="M45.3279 46.48C43.3012 46.48 41.5145 46.04 39.9679 45.16C38.4212 44.28 37.1945 43.0533 36.2879 41.48C35.4079 39.9067 34.9679 38.1067 34.9679 36.08C34.9679 34.0533 35.4079 32.2533 36.2879 30.68C37.1945 29.1067 38.4212 27.88 39.9679 27C41.5145 26.12 43.3012 25.68 45.3279 25.68C47.8612 25.68 49.9945 26.3467 51.7279 27.68C53.4612 28.9867 54.5679 30.8 55.0479 33.12H49.6479C49.3812 32.16 48.8479 31.4133 48.0479 30.88C47.2745 30.32 46.3545 30.04 45.2879 30.04C43.8745 30.04 42.6745 30.5733 41.6879 31.64C40.7012 32.7067 40.2079 34.1867 40.2079 36.08C40.2079 37.9733 40.7012 39.4533 41.6879 40.52C42.6745 41.5867 43.8745 42.12 45.2879 42.12C46.3545 42.12 47.2745 41.8533 48.0479 41.32C48.8479 40.7867 49.3812 40.0267 49.6479 39.04H55.0479C54.5679 41.28 53.4612 43.08 51.7279 44.44C49.9945 45.8 47.8612 46.48 45.3279 46.48ZM59.5922 46V26.16H64.1522L64.6322 29.88C65.3522 28.6 66.3256 27.5867 67.5522 26.84C68.8056 26.0667 70.2722 25.68 71.9522 25.68V31.08H70.5122C69.3922 31.08 68.3922 31.2533 67.5122 31.6C66.6322 31.9467 65.9389 32.5467 65.4322 33.4C64.9522 34.2533 64.7122 35.44 64.7122 36.96V46H59.5922ZM78.2116 23.08C77.2783 23.08 76.505 22.8 75.8916 22.24C75.305 21.68 75.0116 20.9733 75.0116 20.12C75.0116 19.2667 75.305 18.5733 75.8916 18.04C76.505 17.48 77.2783 17.2 78.2116 17.2C79.145 17.2 79.905 17.48 80.4916 18.04C81.105 18.5733 81.4116 19.2667 81.4116 20.12C81.4116 20.9733 81.105 21.68 80.4916 22.24C79.905 22.8 79.145 23.08 78.2116 23.08ZM75.6516 46V26.16H80.7716V46H75.6516ZM86.1157 54.8V26.16H90.6757L91.2357 29C91.8757 28.12 92.7157 27.3467 93.7557 26.68C94.8224 26.0133 96.1957 25.68 97.8757 25.68C99.7424 25.68 101.409 26.1333 102.876 27.04C104.342 27.9467 105.502 29.1867 106.356 30.76C107.209 32.3333 107.636 34.12 107.636 36.12C107.636 38.12 107.209 39.9067 106.356 41.48C105.502 43.0267 104.342 44.2533 102.876 45.16C101.409 46.04 99.7424 46.48 97.8757 46.48C96.3824 46.48 95.0757 46.2 93.9557 45.64C92.8357 45.08 91.929 44.2933 91.2357 43.28V54.8H86.1157ZM96.7957 42C98.4224 42 99.769 41.4533 100.836 40.36C101.902 39.2667 102.436 37.8533 102.436 36.12C102.436 34.3867 101.902 32.96 100.836 31.84C99.769 30.72 98.4224 30.16 96.7957 30.16C95.1424 30.16 93.7824 30.72 92.7157 31.84C91.6757 32.9333 91.1557 34.3467 91.1557 36.08C91.1557 37.8133 91.6757 39.24 92.7157 40.36C93.7824 41.4533 95.1424 42 96.7957 42ZM120.268 46C118.188 46 116.522 45.4933 115.268 44.48C114.015 43.4667 113.388 41.6667 113.388 39.08V30.44H109.988V26.16H113.388L113.988 20.84H118.508V26.16H123.868V30.44H118.508V39.12C118.508 40.08 118.708 40.7467 119.108 41.12C119.535 41.4667 120.255 41.64 121.268 41.64H123.748V46H120.268ZM137.396 46.48C135.396 46.48 133.623 46.0533 132.076 45.2C130.53 44.3467 129.316 43.1467 128.436 41.6C127.556 40.0533 127.116 38.2667 127.116 36.24C127.116 34.1867 127.543 32.36 128.396 30.76C129.276 29.16 130.476 27.92 131.996 27.04C133.543 26.1333 135.356 25.68 137.436 25.68C139.383 25.68 141.103 26.1067 142.596 26.96C144.09 27.8133 145.25 28.9867 146.076 30.48C146.93 31.9467 147.356 33.5867 147.356 35.4C147.356 35.6933 147.343 36 147.316 36.32C147.316 36.64 147.303 36.9733 147.276 37.32H132.196C132.303 38.8667 132.836 40.08 133.796 40.96C134.783 41.84 135.97 42.28 137.356 42.28C138.396 42.28 139.263 42.0533 139.956 41.6C140.676 41.12 141.21 40.5067 141.556 39.76H146.756C146.383 41.0133 145.756 42.16 144.876 43.2C144.023 44.2133 142.956 45.0133 141.676 45.6C140.423 46.1867 138.996 46.48 137.396 46.48ZM137.436 29.84C136.183 29.84 135.076 30.2 134.116 30.92C133.156 31.6133 132.543 32.68 132.276 34.12H142.156C142.076 32.8133 141.596 31.7733 140.716 31C139.836 30.2267 138.743 29.84 137.436 29.84ZM151.663 46V26.16H156.183L156.583 29.52C157.196 28.3467 158.076 27.4133 159.223 26.72C160.396 26.0267 161.769 25.68 163.343 25.68C165.796 25.68 167.703 26.4533 169.063 28C170.423 29.5467 171.103 31.8133 171.103 34.8V46H165.983V35.28C165.983 33.5733 165.636 32.2667 164.943 31.36C164.249 30.4533 163.169 30 161.703 30C160.263 30 159.076 30.5067 158.143 31.52C157.236 32.5333 156.783 33.9467 156.783 35.76V46H151.663Z" fill="url(#paint0_linear_93_29993)"/>
<g clip-path="url(#clip0_93_29993)">
<path d="M15.0079 51.5C23.2921 51.5 30.0079 44.7843 30.0079 36.5C30.0079 28.2157 23.2921 21.5 15.0079 21.5C6.7236 21.5 0.00787354 28.2157 0.00787354 36.5C0.00787354 44.7843 6.7236 51.5 15.0079 51.5Z" fill="#FEB109"/>
<path d="M15.0109 49.7938C12.3818 49.7938 9.81169 49.0141 7.62567 47.5535C5.43964 46.0928 3.73586 44.0167 2.72975 41.5878C1.72363 39.1588 1.46038 36.486 1.97329 33.9074C2.4862 31.3288 3.75222 28.9603 5.61128 27.1012C7.47034 25.2421 9.83895 23.9761 12.4175 23.4632C14.9961 22.9503 17.6689 23.2135 20.0979 24.2196C22.5269 25.2258 24.603 26.9295 26.0636 29.1156C27.5243 31.3016 28.3039 33.8716 28.3039 36.5008C28.2997 40.025 26.8978 43.4037 24.4058 45.8957C21.9138 48.3878 18.5351 49.7896 15.0109 49.7938Z" fill="#132B4D"/>
<path d="M7.92114 36.4978C7.89433 35.4702 8.07697 34.4478 8.45791 33.4931C8.83886 32.5383 9.4101 31.671 10.1369 30.9441C10.8638 30.2172 11.731 29.6459 12.6857 29.2648C13.6405 28.8838 14.6628 28.7011 15.6904 28.7278C16.9644 28.7087 18.2219 29.0166 19.343 29.622C20.4641 30.2275 21.4112 31.1102 22.0939 32.186L19.1486 33.8938C18.7881 33.3073 18.2774 32.8279 17.6694 32.5051C17.0614 32.1823 16.3781 32.0279 15.6904 32.0578C13.0436 32.0578 11.3367 33.8293 11.3367 36.4978C11.3367 39.1663 13.0436 40.937 15.6904 40.937C16.3785 40.9696 17.0626 40.8164 17.6711 40.4934C18.2796 40.1705 18.7899 39.6898 19.1486 39.1018L22.0939 40.8088C21.415 41.8881 20.4687 42.7737 19.3467 43.3796C18.2248 43.9856 16.9653 44.2912 15.6904 44.267C14.6628 44.2937 13.6406 44.111 12.6859 43.73C11.7312 43.3491 10.8641 42.7778 10.1373 42.0509C9.41043 41.3241 8.83909 40.4569 8.4581 39.5023C8.07711 38.5476 7.89443 37.5253 7.92114 36.4978Z" fill="#E215A7"/>
<path d="M5.73862 36.9118C5.84752 36.9118 5.95197 36.8685 6.02898 36.7915C6.10598 36.7145 6.14923 36.6101 6.14923 36.5012C6.14923 36.3923 6.10598 36.2878 6.02898 36.2108C5.95197 36.1338 5.84752 36.0905 5.73862 36.0905H4.33685C4.44339 33.4035 5.55857 30.8553 7.46008 28.9537C9.3616 27.0522 11.9098 25.9371 14.5968 25.8305V27.0395C14.5968 27.1484 14.6401 27.2529 14.7171 27.3299C14.7942 27.4069 14.8986 27.4501 15.0075 27.4501C15.1164 27.4501 15.2209 27.4069 15.2979 27.3299C15.3749 27.2529 15.4181 27.1484 15.4181 27.0395V25.4128C15.4181 25.3039 15.3749 25.1995 15.298 25.1224C15.2211 25.0454 15.1167 25.002 15.0079 25.0018C11.9592 25.0051 9.0364 26.2176 6.88055 28.3732C4.72471 30.5287 3.51189 33.4514 3.50812 36.5C3.50812 36.6089 3.55132 36.7133 3.62823 36.7904C3.70515 36.8674 3.80949 36.9108 3.91837 36.911L5.73862 36.9118Z" fill="#FEB109"/>
<path d="M14.9074 46.3856C14.9021 46.2768 14.9402 46.1704 15.0133 46.0897C15.0864 46.009 15.1886 45.9606 15.2974 45.9553C15.4061 45.9499 15.5126 45.988 15.5933 46.0611C15.674 46.1342 15.7223 46.2364 15.7277 46.3452L15.7966 47.7453C18.4752 47.5067 20.9655 46.2676 22.7712 44.2748C24.5769 42.2821 25.5653 39.6821 25.5396 36.9931L24.3321 37.0526C24.2233 37.0579 24.1168 37.0198 24.0361 36.9467C23.9554 36.8736 23.9071 36.7714 23.9018 36.6626C23.8964 36.5538 23.9345 36.4474 24.0076 36.3667C24.0807 36.286 24.1829 36.2376 24.2917 36.2323L25.9165 36.1523C26.0252 36.1469 26.1316 36.1849 26.2124 36.258C26.2931 36.331 26.3416 36.4331 26.3471 36.5418C26.4937 39.5869 25.4265 42.5659 23.3795 44.8251C21.3326 47.0844 18.4731 48.4394 15.4284 48.5932C15.3196 48.5985 15.2132 48.5605 15.1325 48.4875C15.0517 48.4144 15.0033 48.3123 14.9977 48.2036L14.9074 46.3856Z" fill="#FEB109"/>
<path d="M18.3716 26.3623C20.036 26.9123 21.539 27.8644 22.7474 29.1342C23.9558 30.404 24.8324 31.9523 25.2994 33.6418C25.3236 33.7281 25.3753 33.804 25.4466 33.8582C25.5179 33.9123 25.605 33.9417 25.6946 33.9418C25.7316 33.9418 25.7685 33.9368 25.8041 33.9268C25.8561 33.9125 25.9047 33.8881 25.9472 33.8549C25.9897 33.8218 26.0252 33.7806 26.0518 33.7337C26.0783 33.6868 26.0953 33.6352 26.1019 33.5817C26.1084 33.5282 26.1044 33.474 26.0899 33.4221C25.5871 31.6026 24.6432 29.9353 23.3418 28.5679C22.0405 27.2005 20.422 26.1753 18.6296 25.5831C18.5263 25.5488 18.4136 25.5571 18.3163 25.6059C18.2191 25.6548 18.1452 25.7403 18.111 25.8437C18.0768 25.947 18.085 26.0597 18.1339 26.157C18.1828 26.2542 18.2683 26.3281 18.3716 26.3623Z" fill="#FEB109"/>
<path d="M12.2141 46.8133C10.3746 46.3155 8.70181 45.3343 7.36972 43.9715C6.03762 42.6086 5.09476 40.914 4.63911 39.0635C4.62621 39.0112 4.60313 38.9619 4.57118 38.9185C4.53923 38.875 4.49903 38.8383 4.45289 38.8104C4.40675 38.7825 4.35559 38.764 4.30229 38.7559C4.24899 38.7478 4.1946 38.7502 4.14226 38.7632C4.08991 38.7761 4.04062 38.7992 3.99719 38.8311C3.95376 38.8631 3.91705 38.9032 3.88916 38.9494C3.86127 38.9955 3.84275 39.0467 3.83464 39.1C3.82653 39.1533 3.82897 39.2077 3.84187 39.26C4.3328 41.2529 5.34836 43.0779 6.78305 44.5455C8.21773 46.0132 10.0192 47.0699 12.0004 47.606C12.0524 47.6201 12.1067 47.6238 12.1602 47.6169C12.2137 47.61 12.2653 47.5926 12.3121 47.5658C12.3588 47.5389 12.3998 47.5031 12.4328 47.4604C12.4657 47.4177 12.4899 47.369 12.504 47.3169C12.5181 47.2648 12.5218 47.2105 12.5149 47.157C12.508 47.1036 12.4906 47.052 12.4638 47.0052C12.4369 46.9584 12.4011 46.9174 12.3584 46.8845C12.3157 46.8516 12.2669 46.8274 12.2149 46.8133H12.2141Z" fill="#FEB109"/>
</g>
<defs>
<linearGradient id="paint0_linear_93_29993" x1="41.4324" y1="-1.92934" x2="139.787" y2="60.4835" gradientUnits="userSpaceOnUse">
<stop stop-color="#EE1D78"/>
<stop offset="1" stop-color="#E215A7"/>
</linearGradient>
<clipPath id="clip0_93_29993">
<rect width="30" height="30" fill="white" transform="translate(0.00787354 21.5)"/>
</clipPath>
</defs>
</svg>
