<svg width="31" height="30" viewBox="0 0 31 30" fill="none" xmlns="http://www.w3.org/2000/svg">
<path d="M7.60975 14.3549C6.35642 14.3549 5.22308 14.0749 4.20975 13.5149C3.22308 12.9549 2.43642 12.1682 1.84975 11.1549C1.26308 10.1149 0.969751 8.87487 0.969751 7.43487C0.969751 6.02154 1.26308 4.80821 1.84975 3.79487C2.43642 2.75487 3.23642 1.95487 4.24975 1.39487C5.26308 0.834872 6.39642 0.554872 7.64975 0.554872C8.87642 0.554872 9.98309 0.834872 10.9698 1.39487C11.9831 1.95487 12.7831 2.75487 13.3698 3.79487C13.9564 4.80821 14.2498 6.02154 14.2498 7.43487C14.2498 8.87487 13.9564 10.1149 13.3698 11.1549C12.7831 12.1682 11.9831 12.9549 10.9698 13.5149C9.98309 14.0749 8.86309 14.3549 7.60975 14.3549ZM5.60975 28.9949L21.6498 0.994871H25.8098L9.80975 28.9949H5.60975ZM7.60975 11.3149C8.46308 11.3149 9.19642 10.9949 9.80975 10.3549C10.4498 9.68821 10.7698 8.71487 10.7698 7.43487C10.7698 6.15487 10.4631 5.19487 9.84975 4.55487C9.23642 3.88821 8.48975 3.55487 7.60975 3.55487C6.75642 3.55487 6.00975 3.88821 5.36975 4.55487C4.72975 5.19487 4.40975 6.15487 4.40975 7.43487C4.40975 8.71487 4.71642 9.68821 5.32975 10.3549C5.96975 10.9949 6.72975 11.3149 7.60975 11.3149ZM24.0498 29.4749C22.7964 29.4749 21.6631 29.1949 20.6498 28.6349C19.6631 28.0749 18.8764 27.2882 18.2898 26.2749C17.7031 25.2349 17.4098 23.9949 17.4098 22.5549C17.4098 21.1415 17.7031 19.9149 18.2898 18.8749C18.8764 17.8349 19.6764 17.0349 20.6898 16.4749C21.7031 15.9149 22.8364 15.6349 24.0898 15.6349C25.3164 15.6349 26.4231 15.9149 27.4098 16.4749C28.4231 17.0349 29.2231 17.8349 29.8098 18.8749C30.3964 19.9149 30.6898 21.1415 30.6898 22.5549C30.6898 23.9949 30.3964 25.2349 29.8098 26.2749C29.2231 27.2882 28.4231 28.0749 27.4098 28.6349C26.4231 29.1949 25.3031 29.4749 24.0498 29.4749ZM24.0498 26.3949C24.9031 26.3949 25.6364 26.0749 26.2498 25.4349C26.8898 24.7949 27.2098 23.8349 27.2098 22.5549C27.2098 21.2749 26.9031 20.3149 26.2898 19.6749C25.6764 19.0082 24.9298 18.6749 24.0498 18.6749C23.1964 18.6749 22.4498 19.0082 21.8098 19.6749C21.1698 20.3149 20.8498 21.2749 20.8498 22.5549C20.8498 23.8349 21.1564 24.7949 21.7698 25.4349C22.4098 26.0749 23.1698 26.3949 24.0498 26.3949Z" fill="#E215A7"/>
</svg>
