<svg width="114" height="93" viewBox="0 0 114 93" fill="none" xmlns="http://www.w3.org/2000/svg">
<g opacity="0.52" filter="url(#filter0_d_91_90)">
<mask id="path-1-inside-1_91_90" fill="white">
<path fill-rule="evenodd" clip-rule="evenodd" d="M39.8582 42.647C36.8702 40.9493 33.4939 40.0532 30.0572 40.0458V39.9529C27.3935 39.8234 24.7312 40.2363 22.2318 41.1664C19.7324 42.0966 17.448 43.5247 15.517 45.3641C13.586 47.2035 12.0486 49.4159 10.9982 51.8672C9.94781 54.3185 9.40619 56.9576 9.40619 59.6245C9.40619 62.2914 9.94781 64.9305 10.9982 67.3818C12.0486 69.8331 13.586 72.0455 15.517 73.8849C17.448 75.7243 19.7324 77.1524 22.2318 78.0826C24.7312 79.0127 27.3935 79.4256 30.0572 79.2961C33.1625 79.3096 36.2295 78.6104 39.0221 77.2523C43.1554 75.3974 46.6673 72.3918 49.1384 68.5947C51.6094 64.7975 52.9351 60.3692 52.9571 55.8388C52.9571 42.8792 44.689 21.9767 26.109 6.8804C25.5971 6.4071 24.9938 6.04356 24.3361 5.81215C23.6785 5.58074 22.9805 5.48636 22.285 5.53482C21.5895 5.58328 20.9113 5.77354 20.2921 6.09392C19.6729 6.41429 19.1258 6.85799 18.6845 7.3977C18.2432 7.93742 17.9171 8.56173 17.7261 9.23222C17.5351 9.90272 17.4833 10.6052 17.574 11.2964C17.6647 11.9877 17.8958 12.6531 18.2533 13.2516C18.6107 13.8502 19.0868 14.3693 19.6524 14.7769C28.6881 22.1598 35.6508 31.7635 39.8582 42.647ZM91.6037 42.6473C88.6141 40.9535 85.2388 40.0577 81.8027 40.0461H81.7098C79.0461 39.9166 76.3838 40.3295 73.8844 41.2597C71.385 42.1898 69.1006 43.6179 67.1695 45.4573C65.2385 47.2968 63.7012 49.5092 62.6508 51.9605C61.6004 54.4118 61.0588 57.0509 61.0588 59.7178C61.0588 62.3846 61.6004 65.0237 62.6508 67.475C63.7012 69.9263 65.2385 72.1387 67.1695 73.9782C69.1006 75.8176 71.385 77.2457 73.8844 78.1758C76.3838 79.106 79.0461 79.5189 81.7098 79.3894C84.7361 79.3631 87.7188 78.665 90.4424 77.3456C94.6509 75.5326 98.2405 72.5334 100.773 68.7143C103.305 64.8952 104.671 60.4214 104.703 55.8392C104.703 42.8796 96.4345 21.977 77.8545 6.88074C77.336 6.45375 76.7385 6.13306 76.096 5.93699C75.4536 5.74092 74.7788 5.6733 74.1103 5.738C73.4417 5.8027 72.7924 5.99845 72.1995 6.31407C71.6066 6.62969 71.0817 7.05901 70.6547 7.5775C70.2277 8.09599 69.907 8.69351 69.7109 9.33594C69.5149 9.97836 69.4473 10.6531 69.512 11.3217C69.5767 11.9902 69.7724 12.6395 70.088 13.2324C70.4036 13.8253 70.833 14.3503 71.3515 14.7773C80.4136 22.1456 87.3946 31.7525 91.6037 42.6473Z"/>
</mask>
<path d="M30.0572 40.0458L30.0551 41.0458L29.0572 41.0436V40.0458H30.0572ZM39.8582 42.647L40.7909 42.2864L41.8019 44.9015L39.3642 43.5165L39.8582 42.647ZM30.0572 39.9529L30.1058 38.9541L31.0572 39.0003V39.9529H30.0572ZM15.517 45.3641L16.2067 46.0882L15.517 45.3641ZM10.9982 51.8672L11.9174 52.2611V52.2611L10.9982 51.8672ZM10.9982 67.3818L11.9174 66.9879L10.9982 67.3818ZM30.0572 79.2961L30.0087 78.2973L30.0351 78.296L30.0616 78.2961L30.0572 79.2961ZM39.0221 77.2523L38.5848 76.353L38.5986 76.3463L38.6127 76.34L39.0221 77.2523ZM49.1384 68.5947L48.3002 68.0492L49.1384 68.5947ZM52.9571 55.8388H53.9571L53.9571 55.8437L52.9571 55.8388ZM26.109 6.8804L25.4784 7.65652L25.4535 7.63635L25.4301 7.61463L26.109 6.8804ZM24.3361 5.81215L24.0042 6.75545V6.75545L24.3361 5.81215ZM22.285 5.53482L22.3545 6.5324L22.285 5.53482ZM20.2921 6.09392L20.7517 6.98207L20.7516 6.98208L20.2921 6.09392ZM18.6845 7.3977L17.9104 6.76471L18.6845 7.3977ZM17.7261 9.23222L18.6878 9.50617V9.50617L17.7261 9.23222ZM17.574 11.2964L16.5825 11.4265V11.4265L17.574 11.2964ZM18.2533 13.2516L17.3947 13.7643L17.3947 13.7643L18.2533 13.2516ZM19.6524 14.7769L20.2371 13.9657L20.2617 13.9834L20.2851 14.0025L19.6524 14.7769ZM81.8027 40.0461V39.0461L81.8061 39.0461L81.8027 40.0461ZM91.6037 42.6473L92.5365 42.287L93.5446 44.8963L91.1108 43.5174L91.6037 42.6473ZM81.7098 40.0461V41.0461H81.6855L81.6613 41.0449L81.7098 40.0461ZM67.1695 45.4573L66.4798 44.7333V44.7333L67.1695 45.4573ZM62.6508 51.9605L61.7317 51.5666L62.6508 51.9605ZM62.6508 67.475L61.7317 67.8689H61.7317L62.6508 67.475ZM67.1695 73.9782L67.8593 73.2541L67.1695 73.9782ZM81.7098 79.3894L81.6613 78.3906L81.6812 78.3896L81.7011 78.3894L81.7098 79.3894ZM90.4424 77.3456L90.0065 76.4456L90.0264 76.4359L90.0468 76.4272L90.4424 77.3456ZM100.773 68.7143L99.9393 68.1617H99.9393L100.773 68.7143ZM104.703 55.8392H105.703L105.703 55.8462L104.703 55.8392ZM77.8545 6.88074L77.2239 7.65687L77.2188 7.65267L77.8545 6.88074ZM76.096 5.93699L76.3879 4.98055V4.98055L76.096 5.93699ZM72.1995 6.31407L72.6694 7.19679L72.6694 7.19679L72.1995 6.31407ZM70.6547 7.5775L71.4266 8.21321V8.21321L70.6547 7.5775ZM69.7109 9.33594L70.6674 9.62785V9.62785L69.7109 9.33594ZM69.512 11.3217L68.5166 11.418V11.418L69.512 11.3217ZM70.088 13.2324L69.2053 13.7023V13.7023L70.088 13.2324ZM71.3515 14.7773L70.7206 15.5532L70.7157 15.5492L71.3515 14.7773ZM30.0594 39.0458C33.6685 39.0536 37.2142 39.9946 40.3522 41.7775L39.3642 43.5165C36.5261 41.9039 33.3192 41.0528 30.0551 41.0458L30.0594 39.0458ZM31.0572 39.9529V40.0458H29.0572V39.9529H31.0572ZM21.883 40.2292C24.5093 39.2518 27.3068 38.818 30.1058 38.9541L30.0087 40.9517C27.4802 40.8288 24.9531 41.2207 22.5806 42.1036L21.883 40.2292ZM14.8272 44.64C16.8563 42.7072 19.2567 41.2066 21.883 40.2292L22.5806 42.1036C20.2081 42.9866 18.0396 44.3421 16.2067 46.0882L14.8272 44.64ZM10.0791 51.4734C11.1828 48.8976 12.7982 46.5728 14.8272 44.64L16.2067 46.0882C14.3737 47.8342 12.9145 49.9343 11.9174 52.2611L10.0791 51.4734ZM8.40619 59.6245C8.40619 56.8222 8.97532 54.0491 10.0791 51.4734L11.9174 52.2611C10.9203 54.5879 10.4062 57.093 10.4062 59.6245H8.40619ZM10.0791 67.7756C8.97532 65.1999 8.40619 62.4268 8.40619 59.6245H10.4062C10.4062 62.156 10.9203 64.6611 11.9174 66.9879L10.0791 67.7756ZM14.8272 74.609C12.7982 72.6762 11.1828 70.3514 10.0791 67.7756L11.9174 66.9879C12.9145 69.3147 14.3737 71.4148 16.2067 73.1609L14.8272 74.609ZM21.883 79.0198C19.2567 78.0424 16.8563 76.5418 14.8272 74.609L16.2067 73.1609C18.0396 74.9069 20.2081 76.2625 22.5806 77.1454L21.883 79.0198ZM30.1058 80.295C27.3068 80.431 24.5093 79.9972 21.883 79.0198L22.5806 77.1454C24.9531 78.0283 27.4802 78.4202 30.0087 78.2973L30.1058 80.295ZM39.4594 78.1516C36.5292 79.5766 33.3112 80.3102 30.0529 80.2961L30.0616 78.2961C33.0139 78.3089 35.9297 77.6441 38.5848 76.353L39.4594 78.1516ZM49.9765 69.1401C47.4007 73.0982 43.74 76.2311 39.4315 78.1647L38.6127 76.34C42.5708 74.5637 45.9339 71.6855 48.3002 68.0492L49.9765 69.1401ZM53.9571 55.8437C53.9342 60.566 52.5523 65.182 49.9765 69.1401L48.3002 68.0492C50.6665 64.4129 51.9361 60.1723 51.9571 55.834L53.9571 55.8437ZM26.7396 6.10429C45.5281 21.37 53.9571 42.547 53.9571 55.8388H51.9571C51.9571 43.2114 43.8499 22.5834 25.4784 7.65652L26.7396 6.10429ZM24.6681 4.86884C25.4544 5.14554 26.1758 5.58024 26.7879 6.14617L25.4301 7.61463C25.0184 7.23396 24.5331 6.94157 24.0042 6.75545L24.6681 4.86884ZM22.2155 4.53724C23.0471 4.4793 23.8817 4.59214 24.6681 4.86885L24.0042 6.75545C23.4753 6.56933 22.9138 6.49343 22.3545 6.5324L22.2155 4.53724ZM19.8326 5.20576C20.5729 4.82268 21.3839 4.59518 22.2155 4.53724L22.3545 6.5324C21.7951 6.57137 21.2497 6.7244 20.7517 6.98207L19.8326 5.20576ZM17.9104 6.76471C18.438 6.11937 19.0922 5.58883 19.8326 5.20576L20.7516 6.98208C20.2536 7.23974 19.8136 7.59661 19.4587 8.0307L17.9104 6.76471ZM16.7643 8.95828C16.9927 8.15656 17.3827 7.41006 17.9104 6.76471L19.4587 8.0307C19.1038 8.46478 18.8414 8.96691 18.6878 9.50617L16.7643 8.95828ZM16.5825 11.4265C16.4741 10.6 16.536 9.75999 16.7643 8.95828L18.6878 9.50617C18.5342 10.0454 18.4926 10.6104 18.5655 11.1664L16.5825 11.4265ZM17.3947 13.7643C16.9673 13.0486 16.6909 12.253 16.5825 11.4265L18.5655 11.1664C18.6384 11.7224 18.8244 12.2575 19.1118 12.7389L17.3947 13.7643ZM19.0677 15.5881C18.3914 15.1007 17.8221 14.48 17.3947 13.7643L19.1118 12.7389C19.3993 13.2203 19.7823 13.6378 20.2371 13.9657L19.0677 15.5881ZM38.9255 43.0076C34.7805 32.2857 27.9212 22.8246 19.0197 15.5513L20.2851 14.0025C29.455 21.4951 36.5211 31.2414 40.7909 42.2864L38.9255 43.0076ZM81.8061 39.0461C85.4138 39.0583 88.9577 39.9989 92.0966 41.7773L91.1108 43.5174C88.2705 41.9082 85.0638 41.0571 81.7993 41.0461L81.8061 39.0461ZM81.7098 39.0461H81.8027V41.0461H81.7098V39.0461ZM73.5356 40.3225C76.1619 39.3451 78.9594 38.9113 81.7584 39.0473L81.6613 41.0449C79.1328 40.922 76.6057 41.3139 74.2332 42.1969L73.5356 40.3225ZM66.4798 44.7333C68.5089 42.8004 70.9093 41.2999 73.5356 40.3225L74.2332 42.1969C71.8607 43.0798 69.6922 44.4354 67.8593 46.1814L66.4798 44.7333ZM61.7317 51.5666C62.8354 48.9908 64.4508 46.6661 66.4798 44.7333L67.8593 46.1814C66.0263 47.9274 64.5671 50.0275 63.57 52.3544L61.7317 51.5666ZM60.0588 59.7178C60.0588 56.9155 60.6279 54.1424 61.7317 51.5666L63.57 52.3544C62.5729 54.6812 62.0588 57.1863 62.0588 59.7178H60.0588ZM61.7317 67.8689C60.6279 65.2931 60.0588 62.52 60.0588 59.7178H62.0588C62.0588 62.2492 62.5729 64.7543 63.57 67.0811L61.7317 67.8689ZM66.4798 74.7022C64.4508 72.7694 62.8354 70.4446 61.7317 67.8689L63.57 67.0811C64.5671 69.408 66.0263 71.5081 67.8593 73.2541L66.4798 74.7022ZM73.5356 79.113C70.9093 78.1356 68.5089 76.635 66.4798 74.7022L67.8593 73.2541C69.6922 75.0001 71.8607 76.3557 74.2332 77.2386L73.5356 79.113ZM81.7584 80.3882C78.9594 80.5242 76.1619 80.0904 73.5356 79.113L74.2332 77.2386C76.6057 78.1216 79.1328 78.5135 81.6613 78.3906L81.7584 80.3882ZM90.8784 78.2455C88.0215 79.6295 84.8929 80.3617 81.7185 80.3893L81.7011 78.3894C84.5793 78.3644 87.4161 77.7005 90.0065 76.4456L90.8784 78.2455ZM101.606 69.267C98.9666 73.2479 95.2249 76.3741 90.8381 78.264L90.0468 76.4272C94.0769 74.691 97.5143 71.819 99.9393 68.1617L101.606 69.267ZM105.703 55.8462C105.669 60.6226 104.246 65.286 101.606 69.267L99.9393 68.1617C102.364 64.5045 103.672 60.2203 103.703 55.8322L105.703 55.8462ZM78.4851 6.10463C97.2736 21.3703 105.703 42.5474 105.703 55.8392H103.703C103.703 43.2118 95.5954 22.5838 77.2239 7.65686L78.4851 6.10463ZM76.3879 4.98055C77.156 5.21495 77.8703 5.59834 78.4902 6.10881L77.2188 7.65267C76.8016 7.30916 76.3209 7.05117 75.8041 6.89344L76.3879 4.98055ZM74.014 4.74265C74.8132 4.6653 75.6199 4.74614 76.3879 4.98055L75.8041 6.89344C75.2873 6.7357 74.7445 6.6813 74.2066 6.73335L74.014 4.74265ZM71.7296 5.43135C72.4385 5.05401 73.2147 4.82 74.014 4.74265L74.2066 6.73335C73.6688 6.7854 73.1464 6.94288 72.6694 7.19679L71.7296 5.43135ZM69.8828 6.94179C70.3932 6.32193 71.0208 5.80868 71.7296 5.43134L72.6694 7.19679C72.1924 7.4507 71.7701 7.79608 71.4266 8.21321L69.8828 6.94179ZM68.7545 9.04403C68.9889 8.27599 69.3723 7.56166 69.8828 6.94179L71.4266 8.21321C71.0831 8.63033 70.8251 9.11102 70.6674 9.62785L68.7545 9.04403ZM68.5166 11.418C68.4393 10.6187 68.5201 9.81205 68.7545 9.04403L70.6674 9.62785C70.5097 10.1447 70.4553 10.6875 70.5073 11.2254L68.5166 11.418ZM69.2053 13.7023C68.828 12.9935 68.594 12.2173 68.5166 11.418L70.5073 11.2254C70.5594 11.7632 70.7168 12.2855 70.9707 12.7625L69.2053 13.7023ZM70.7157 15.5492C70.0959 15.0387 69.5826 14.4111 69.2053 13.7023L70.9707 12.7625C71.2247 13.2395 71.57 13.6618 71.9872 14.0053L70.7157 15.5492ZM90.6709 43.0077C86.5246 32.2753 79.6476 22.8116 70.7206 15.5532L71.9823 14.0014C81.1796 21.4795 88.2647 31.2297 92.5365 42.287L90.6709 43.0077Z" fill="#E215A7" mask="url(#path-1-inside-1_91_90)"/>
</g>
<defs>
<filter id="filter0_d_91_90" x="0.406189" y="0.522461" width="113.296" height="91.8906" filterUnits="userSpaceOnUse" color-interpolation-filters="sRGB">
<feFlood flood-opacity="0" result="BackgroundImageFix"/>
<feColorMatrix in="SourceAlpha" type="matrix" values="0 0 0 0 0 0 0 0 0 0 0 0 0 0 0 0 0 0 127 0" result="hardAlpha"/>
<feOffset dy="4"/>
<feGaussianBlur stdDeviation="4.5"/>
<feComposite in2="hardAlpha" operator="out"/>
<feColorMatrix type="matrix" values="0 0 0 0 0 0 0 0 0 0 0 0 0 0 0 0 0 0 0.26 0"/>
<feBlend mode="normal" in2="BackgroundImageFix" result="effect1_dropShadow_91_90"/>
<feBlend mode="normal" in="SourceGraphic" in2="effect1_dropShadow_91_90" result="shape"/>
</filter>
</defs>
</svg>
