<svg width="291" height="312" viewBox="0 0 291 312" fill="none" xmlns="http://www.w3.org/2000/svg">
<path d="M155.209 19.4363L126.265 1.7112C124.171 0.502671 122.267 0.301243 120.934 1.10693L3.44501 72.6116L43.4331 233.95L160.351 162.647C162.255 161.64 163.588 159.022 163.588 155.195L163.778 36.5571C163.778 29.9102 159.97 22.2562 155.209 19.4363Z" fill="url(#paint0_linear_7_4674)"/>
<path d="M38.1012 233.346L9.15749 215.621C4.39701 212.801 0.588623 204.946 0.588623 198.299L0.779039 79.6614C0.779039 73.0145 4.58743 69.9932 9.34791 72.8131L38.2917 90.5382C43.0521 93.3581 46.8605 101.214 46.8605 107.86L46.6701 226.498C46.4797 233.145 42.6713 236.368 38.1012 233.346Z" fill="#AB95F9"/>
<path d="M32.1983 219.448L13.7276 208.168C10.6809 206.356 8.20544 201.32 8.20544 197.09V90.941C8.20544 86.7112 10.6809 84.6969 13.7276 86.5097L32.1983 97.7893C35.245 99.6021 37.7204 104.638 37.7204 108.868V215.017C37.7204 219.247 35.245 221.261 32.1983 219.448Z" fill="url(#paint1_linear_7_4674)"/>
<path d="M22.6772 202.931C19.6305 201.119 17.1551 196.083 17.1551 191.853V88.7254L13.5371 86.5097C10.4904 84.6969 8.01495 86.7112 8.01495 90.941V197.09C8.01495 201.32 10.4904 206.356 13.5371 208.168L32.0078 219.448C35.0545 221.261 37.53 219.247 37.53 215.017V212.197L22.6772 202.931Z" fill="url(#paint2_linear_7_4674)"/>
<path d="M218.619 57.7064L189.675 39.9813C187.58 38.7728 185.676 38.5714 184.343 39.3771L66.8546 110.882L106.843 272.221L223.76 200.917C225.664 199.91 226.997 197.292 226.997 193.465L227.188 74.8273C227.188 68.3818 223.379 60.5263 218.619 57.7064Z" fill="url(#paint3_linear_7_4674)"/>
<path d="M101.321 271.818L72.3768 254.093C67.6163 251.273 63.8079 243.417 63.8079 236.77L63.9984 118.133C63.9984 111.486 67.8067 108.465 72.5672 111.285L101.511 129.01C106.271 131.83 110.08 139.685 110.08 146.332L109.889 264.969C109.889 271.616 106.081 274.638 101.321 271.818Z" fill="#AB95F9"/>
<path d="M95.6079 257.718L77.1373 246.439C74.0906 244.626 71.6151 239.59 71.6151 235.36V129.211C71.6151 124.981 74.0906 122.967 77.1373 124.78L95.6079 136.06C98.6547 137.872 101.13 142.908 101.13 147.138V253.287C101.13 257.517 98.6547 259.531 95.6079 257.718Z" fill="url(#paint4_linear_7_4674)"/>
<path d="M86.087 241.403C83.0403 239.59 80.5649 234.555 80.5649 230.325V127.197L76.9469 124.981C73.9002 123.169 71.4247 125.183 71.4247 129.413V235.562C71.4247 239.792 73.9002 244.827 76.9469 246.64L95.4176 257.92C98.4643 259.732 100.94 257.718 100.94 253.488V250.669L86.087 241.403Z" fill="url(#paint5_linear_7_4674)"/>
<path d="M282.028 96.7822L253.085 79.0571C250.99 77.8486 249.086 77.6472 247.753 78.4529L130.264 149.958L170.252 311.296L287.17 240.195C289.074 239.187 290.407 236.569 290.407 232.742L290.597 114.104C290.597 107.458 286.789 99.8035 282.028 96.7822Z" fill="url(#paint6_linear_7_4674)"/>
<path d="M164.73 310.894L135.786 293.168C131.026 290.349 127.218 282.493 127.218 275.846L127.408 157.209C127.408 150.562 131.216 147.541 135.977 150.36L164.921 168.086C169.681 170.906 173.489 178.761 173.489 185.408L173.299 304.045C173.299 310.692 169.491 313.714 164.73 310.894Z" fill="#AB95F9"/>
<path d="M159.018 296.794L140.547 285.514C137.5 283.702 135.025 278.666 135.025 274.436V168.287C135.025 164.057 137.5 162.043 140.547 163.856L159.018 175.135C162.064 176.948 164.54 181.984 164.54 186.214V292.363C164.349 296.794 162.064 298.607 159.018 296.794Z" fill="url(#paint7_linear_7_4674)"/>
<path d="M149.497 280.479C146.45 278.666 143.974 273.631 143.974 269.401V166.273L140.356 164.057C137.31 162.244 134.834 164.259 134.834 168.488V274.638C134.834 278.868 137.31 283.903 140.356 285.716L158.827 296.996C161.874 298.808 164.349 296.794 164.349 292.564V289.744L149.497 280.479Z" fill="url(#paint8_linear_7_4674)"/>
<defs>
<linearGradient id="paint0_linear_7_4674" x1="78.0951" y1="86.4489" x2="69.3044" y2="72.2948" gradientUnits="userSpaceOnUse">
<stop stop-color="#8845FF"/>
<stop offset="1" stop-color="#D3C2FF"/>
</linearGradient>
<linearGradient id="paint1_linear_7_4674" x1="19.7051" y1="202.326" x2="26.0933" y2="116.436" gradientUnits="userSpaceOnUse">
<stop stop-color="#3124FF"/>
<stop offset="1" stop-color="#00EFE2"/>
</linearGradient>
<linearGradient id="paint2_linear_7_4674" x1="33.7187" y1="178.472" x2="41.1381" y2="189.114" gradientUnits="userSpaceOnUse">
<stop stop-color="#8942FF"/>
<stop offset="1" stop-color="#D3C2FF"/>
</linearGradient>
<linearGradient id="paint3_linear_7_4674" x1="141.47" y1="124.768" x2="132.68" y2="110.613" gradientUnits="userSpaceOnUse">
<stop stop-color="#8845FF"/>
<stop offset="1" stop-color="#D3C2FF"/>
</linearGradient>
<linearGradient id="paint4_linear_7_4674" x1="84.5189" y1="239.63" x2="88.069" y2="156.391" gradientUnits="userSpaceOnUse">
<stop stop-color="#3124FF"/>
<stop offset="1" stop-color="#00EFE2"/>
</linearGradient>
<linearGradient id="paint5_linear_7_4674" x1="97.0942" y1="216.791" x2="104.514" y2="227.433" gradientUnits="userSpaceOnUse">
<stop stop-color="#8942FF"/>
<stop offset="1" stop-color="#D3C2FF"/>
</linearGradient>
<linearGradient id="paint6_linear_7_4674" x1="204.846" y1="163.911" x2="196.055" y2="149.757" gradientUnits="userSpaceOnUse">
<stop stop-color="#8845FF"/>
<stop offset="1" stop-color="#D3C2FF"/>
</linearGradient>
<linearGradient id="paint7_linear_7_4674" x1="148.336" y1="281.933" x2="151.176" y2="188.617" gradientUnits="userSpaceOnUse">
<stop stop-color="#3124FF"/>
<stop offset="1" stop-color="#00EFE2"/>
</linearGradient>
<linearGradient id="paint8_linear_7_4674" x1="160.469" y1="255.935" x2="167.889" y2="266.577" gradientUnits="userSpaceOnUse">
<stop stop-color="#8942FF"/>
<stop offset="1" stop-color="#D3C2FF"/>
</linearGradient>
</defs>
</svg>
