<svg width="77" height="152" viewBox="0 0 77 152" fill="none" xmlns="http://www.w3.org/2000/svg">
<path d="M30.1851 151.207L9.58667 138.808V126.048L30.1851 138.327V151.207Z" fill="#623C12"/>
<path d="M49.8731 139.169L30.1851 127.493L49.8731 126.289V139.169Z" fill="#623C12"/>
<path d="M34.282 94.7494V120.029L56.1323 111.964L69.7888 88.7304L57.1566 77.8963L34.282 94.7494Z" fill="url(#paint0_linear_7_4777)"/>
<path d="M34.282 57.3114V79.1001L60.3431 66.8214L64.5538 45.2735L52.0354 42.0233L34.282 57.3114Z" fill="url(#paint1_linear_7_4777)"/>
<path d="M0.254639 37.5693L9.58653 31.7911L30.185 44.1901L20.8531 49.8479L0.254639 37.5693Z" fill="#FFAC00"/>
<path d="M49.987 32.1522L29.3886 19.8735L19.7153 25.6517L40.3137 37.9304L49.987 32.1522Z" fill="#FFAC00"/>
<path d="M66.2608 26.9759L46.5728 15.0583L40.3136 22.0403L61.4811 31.3095L66.2608 26.9759Z" fill="#FFAC00"/>
<path d="M9.58667 18.9105L30.1851 31.3096V44.1901L9.58667 31.7911V18.9105Z" fill="#623C12"/>
<path d="M29.3884 6.8726L49.9869 19.2716V32.1522L29.3884 19.8735V6.8726Z" fill="#623C12"/>
<path d="M39.517 0.733261L60.1154 13.1323L49.9869 19.2716L29.3884 6.8726L39.517 0.733261Z" fill="#FFAC00"/>
<path d="M19.7152 12.7712L40.3136 25.1702L30.1851 31.3096L9.58667 18.9105L19.7152 12.7712Z" fill="#FFAC00"/>
<path d="M49.8731 139.169V126.289C47.9384 127.492 45.7761 128.817 43.5001 130.261L40.3136 132.187V145.068L30.185 151.207V138.327L20.8531 144.105V49.9683L30.185 44.1901V31.3095L40.3136 25.1702V38.0508L47.4832 33.7171C48.2798 33.2356 49.1903 32.7541 49.9869 32.2726V19.392L60.1154 13.2527V27.2167C62.3915 26.4944 64.4399 26.4944 66.2608 27.0963C68.3093 27.8185 70.0163 29.3835 71.382 31.7911C72.7476 34.1986 73.4304 37.4489 73.4304 41.5418C73.4304 45.9958 72.6338 50.5702 70.9267 55.265C69.2197 59.9598 66.9436 64.1731 64.0985 67.7844C68.1954 66.9418 71.2681 67.9048 73.4304 70.5532C75.5927 73.2015 76.7307 77.2944 76.7307 82.7114C76.7307 87.0451 76.0479 91.6195 74.5684 96.555C73.2028 101.491 71.2682 105.945 68.7645 109.797C66.3746 113.649 63.5295 116.899 60.0016 119.547V133.03L49.8731 139.169ZM34.282 94.7494V119.909L46.8004 112.325C51.6939 109.315 54.7666 107.269 56.0185 106.065C58.0669 104.38 59.6602 102.092 60.912 99.3238C62.1639 96.555 62.8467 93.5456 62.8467 90.175C62.8467 87.4062 62.3915 85.2394 61.3672 83.9152C60.343 82.5911 58.9774 81.9892 57.1565 82.2299C55.3357 82.4707 51.3525 84.3967 45.2071 88.1285L34.282 94.7494ZM34.282 57.3114V79.1001L43.1587 73.683C48.3936 70.4328 51.6939 68.3863 52.9458 67.4233C55.2218 65.6176 57.0427 63.4508 58.4083 60.6821C59.774 58.0337 60.343 55.1446 60.343 52.1351C60.343 49.246 59.774 47.1996 58.6359 46.1162C57.4979 45.0328 55.7909 44.9124 53.5148 45.8754C52.1491 46.4773 48.2798 48.7645 42.0206 52.6167L34.282 57.3114Z" fill="#FDBC48"/>
<path d="M0.254741 37.5693L20.8532 49.8479L20.7394 144.105L0.14093 131.706L0.254741 37.5693Z" fill="#623C12"/>
<defs>
<linearGradient id="paint0_linear_7_4777" x1="44.1529" y1="104.365" x2="55.2311" y2="94.975" gradientUnits="userSpaceOnUse">
<stop stop-color="#796DE8"/>
<stop offset="1" stop-color="#554FC6"/>
</linearGradient>
<linearGradient id="paint1_linear_7_4777" x1="42.305" y1="66.8172" x2="53.2062" y2="57.5775" gradientUnits="userSpaceOnUse">
<stop stop-color="#796DE8"/>
<stop offset="1" stop-color="#554FC6"/>
</linearGradient>
</defs>
</svg>
