<svg width="111" height="111" viewBox="0 0 111 111" fill="none" xmlns="http://www.w3.org/2000/svg">
<g filter="url(#filter0_d_99_199)">
<rect x="10.0078" y="10.999" width="80.6" height="80.6" rx="10" fill="url(#paint0_linear_99_199)"/>
</g>
<g filter="url(#filter1_i_99_199)">
<rect x="10.0078" y="10.999" width="80.6" height="80.6" rx="10" fill="url(#paint1_linear_99_199)"/>
</g>
<g filter="url(#filter2_d_99_199)">
<rect x="10.0078" y="10.999" width="80.6" height="80.6" rx="10" fill="url(#paint2_linear_99_199)"/>
</g>
<g filter="url(#filter3_i_99_199)">
<rect x="10.0078" y="10.999" width="80.6" height="80.6" rx="10" fill="url(#paint3_linear_99_199)"/>
</g>
<path d="M67.5072 47.7494H66.0072V43.9995C66.0052 42.2099 65.2934 40.4942 64.028 39.2288C62.7625 37.9634 61.0469 37.2516 59.2573 37.2496H58.6565C57.8671 34.8494 56.3401 32.7596 54.2933 31.2781C52.2465 29.7966 49.7842 28.999 47.2575 28.999C44.7307 28.999 42.2685 29.7966 40.2217 31.2781C38.1748 32.7596 36.6479 34.8494 35.8584 37.2496H33.7577C32.7635 37.2507 31.8103 37.6462 31.1073 38.3492C30.4043 39.0522 30.0089 40.0053 30.0078 40.9995V65.7492C30.0102 67.9364 30.8802 70.0333 32.4268 71.58C33.9734 73.1266 36.0704 73.9965 38.2576 73.999H57.7573C59.9445 73.9965 62.0415 73.1266 63.5881 71.58C65.1347 70.0333 66.0047 67.9364 66.0072 65.7492V62.7492C67.2002 62.7479 68.344 62.2733 69.1876 61.4297C70.0312 60.5861 70.5058 59.4423 70.5071 58.2493V50.7494C70.5062 49.954 70.1899 49.1915 69.6275 48.6291C69.065 48.0667 68.3025 47.7503 67.5072 47.7494ZM67.5072 49.2494C67.905 49.2494 68.2865 49.4075 68.5678 49.6888C68.8491 49.9701 69.0071 50.3516 69.0071 50.7494C69.0071 51.1472 68.8491 51.5287 68.5678 51.81C68.2865 52.0913 67.905 52.2494 67.5072 52.2494H66.0072V49.2494H67.5072ZM59.2573 38.7496C60.6492 38.7512 61.9836 39.3048 62.9678 40.289C63.952 41.2732 64.5056 42.6076 64.5072 43.9995V46.7615C63.8697 45.8535 63.0558 45.0832 62.1141 44.4966C61.1724 43.91 60.1222 43.519 59.0262 43.3471C59.3279 41.8301 59.3343 40.269 59.0449 38.7496H59.2573ZM47.2575 30.4997C48.827 30.5011 50.3763 30.8541 51.7916 31.5326C53.2069 32.2112 54.4522 33.1982 55.4361 34.421C56.42 35.6439 57.1175 37.0716 57.4774 38.5994C57.8373 40.1271 57.8504 41.7161 57.5157 43.2495H55.9714C56.3142 41.9198 56.3482 40.5293 56.0707 39.1844C55.7932 37.8396 55.2117 36.576 54.3706 35.4906C53.5295 34.4051 52.4512 33.5265 51.2181 32.9221C49.9851 32.3177 48.6301 32.0035 47.257 32.0035C45.8838 32.0035 44.5288 32.3177 43.2958 32.9221C42.0628 33.5265 40.9844 34.4051 40.1433 35.4906C39.3022 36.576 38.7207 37.8396 38.4432 39.1844C38.1657 40.5293 38.1997 41.9198 38.5425 43.2495H37.0006C36.6649 41.7161 36.6772 40.1269 37.0366 38.5988C37.3959 37.0707 38.0932 35.6426 39.0772 34.4195C40.0611 33.1964 41.3067 32.2094 42.7224 31.531C44.138 30.8527 45.6877 30.5003 47.2575 30.4997ZM50.9802 43.2495C51.0396 42.8409 51.0014 42.424 50.8688 42.0329C50.7361 41.6418 50.5128 41.2877 50.217 40.9995C50.5392 40.685 50.7749 40.2928 50.9016 39.8607C51.0282 39.4286 51.0414 38.9712 50.94 38.5325C50.8385 38.0938 50.6259 37.6886 50.3224 37.356C50.019 37.0233 49.635 36.7744 49.2074 36.6332V36.0496C49.2074 35.8507 49.1284 35.66 48.9878 35.5193C48.8471 35.3787 48.6564 35.2996 48.4575 35.2996C48.2585 35.2996 48.0678 35.3787 47.9271 35.5193C47.7865 35.66 47.7075 35.8507 47.7075 36.0496V36.4996H46.8075V36.0496C46.8075 35.8507 46.7285 35.66 46.5878 35.5193C46.4472 35.3787 46.2564 35.2996 46.0575 35.2996C45.8586 35.2996 45.6678 35.3787 45.5272 35.5193C45.3865 35.66 45.3075 35.8507 45.3075 36.0496V36.4996H44.2575C44.0586 36.4996 43.8679 36.5786 43.7272 36.7193C43.5866 36.8599 43.5075 37.0507 43.5075 37.2496C43.5075 37.4485 43.5866 37.6393 43.7272 37.7799C43.8679 37.9206 44.0586 37.9996 44.2575 37.9996H45.0075V43.2495H40.1024C39.7494 42.1262 39.6658 40.9356 39.8584 39.7741C40.0511 38.6125 40.5145 37.5126 41.2111 36.5634C41.9078 35.6142 42.8182 34.8424 43.8686 34.3103C44.919 33.7783 46.0799 33.5011 47.2573 33.5011C48.4347 33.5011 49.5956 33.7783 50.646 34.3103C51.6964 34.8424 52.6068 35.6142 53.3034 36.5634C54.0001 37.5126 54.4635 38.6125 54.6561 39.7741C54.8487 40.9356 54.7652 42.1262 54.4122 43.2495H50.9802ZM48.3825 37.9996C48.6808 37.9996 48.967 38.1181 49.1779 38.3291C49.3889 38.5401 49.5074 38.8262 49.5074 39.1246C49.5074 39.4229 49.3889 39.7091 49.1779 39.9201C48.967 40.131 48.6808 40.2496 48.3825 40.2496H46.5075V37.9996H48.3825ZM46.5075 41.7495H48.3825C48.5625 41.7494 48.7399 41.7925 48.8998 41.8752C49.0597 41.9579 49.1974 42.0778 49.3013 42.2248C49.4052 42.3718 49.4723 42.5416 49.4969 42.7199C49.5215 42.8982 49.5029 43.0799 49.4428 43.2495H46.5075V41.7495ZM33.7577 38.7496H35.4701C35.1868 40.2362 35.1868 41.7629 35.4701 43.2495C35.4701 43.2495 33.6009 43.2488 33.5664 43.2472C32.4971 43.1983 31.6174 42.3326 31.5143 41.2305C31.5143 41.2305 31.5076 41.0149 31.5076 40.9995C31.5083 40.403 31.7456 39.8311 32.1674 39.4093C32.5893 38.9875 33.1612 38.7503 33.7577 38.7496ZM64.5072 65.7492C64.5052 67.5387 63.7934 69.2544 62.528 70.5198C61.2626 71.7852 59.5469 72.497 57.7573 72.499H38.2576C36.4681 72.497 34.7524 71.7852 33.4869 70.5198C32.2215 69.2544 31.5097 67.5387 31.5077 65.7492V61.9992H38.2576V64.9992C38.2576 65.1981 38.3366 65.3888 38.4773 65.5295C38.6179 65.6701 38.8087 65.7492 39.0076 65.7492H45.1025C45.285 66.4561 45.7191 67.0723 46.3235 67.4821C46.9278 67.8919 47.6608 68.0672 48.3852 67.9752C49.1095 67.8832 49.7755 67.5302 50.2581 66.9823C50.7408 66.4344 51.0071 65.7293 51.0071 64.9992C51.0071 64.269 50.7408 63.5639 50.2581 63.016C49.7755 62.4682 49.1095 62.1151 48.3852 62.0231C47.6608 61.9311 46.9278 62.1065 46.3235 62.5163C45.7191 62.9261 45.285 63.5422 45.1025 64.2492H39.7576V61.2492C39.7576 61.0503 39.6786 60.8596 39.5379 60.7189C39.3973 60.5783 39.2065 60.4992 39.0076 60.4992H31.5077V58.9993H45.1025C45.285 59.7062 45.7191 60.3224 46.3235 60.7322C46.9278 61.142 47.6608 61.3173 48.3852 61.2253C49.1095 61.1333 49.7755 60.7803 50.2581 60.2324C50.7408 59.6845 51.0071 58.9794 51.0071 58.2493C51.0071 57.5191 50.7408 56.814 50.2581 56.2661C49.7755 55.7183 49.1095 55.3652 48.3852 55.2732C47.6608 55.1812 46.9278 55.3566 46.3235 55.7664C45.7191 56.1762 45.285 56.7923 45.1025 57.4993H31.5077V55.9993H39.0076C39.2065 55.9993 39.3973 55.9203 39.5379 55.7796C39.6786 55.639 39.7576 55.4482 39.7576 55.2493V51.4994H45.1025C45.285 52.2064 45.7191 52.8225 46.3235 53.2323C46.9278 53.6421 47.6608 53.8174 48.3852 53.7254C49.1095 53.6334 49.7755 53.2804 50.2581 52.7325C50.7408 52.1847 51.0071 51.4796 51.0071 50.7494C51.0071 50.0192 50.7408 49.3141 50.2581 48.7663C49.7755 48.2184 49.1095 47.8654 48.3852 47.7734C47.6608 47.6813 46.9278 47.8567 46.3235 48.2665C45.7191 48.6763 45.285 49.2924 45.1025 49.9994H39.0076C38.8087 49.9994 38.6179 50.0784 38.4773 50.2191C38.3366 50.3597 38.2576 50.5505 38.2576 50.7494V54.4993H31.5077V44.0287C32.084 44.4621 32.7774 44.7119 33.4977 44.7456C33.5548 44.7482 57.7573 44.7495 57.7573 44.7495C59.5469 44.7515 61.2626 45.4633 62.528 46.7287C63.7934 47.9941 64.5052 49.7098 64.5072 51.4994V52.2494H59.2573C57.8649 52.2494 56.5296 52.8025 55.545 53.787C54.5605 54.7716 54.0074 56.1069 54.0074 57.4993C54.0074 58.8917 54.5605 60.227 55.545 61.2115C56.5296 62.1961 57.8649 62.7492 59.2573 62.7492H64.5072V65.7492ZM46.5075 64.9992C46.5075 64.7025 46.5955 64.4125 46.7603 64.1658C46.9251 63.9192 47.1594 63.7269 47.4334 63.6134C47.7075 63.4998 48.0091 63.4701 48.3001 63.528C48.5911 63.5859 48.8583 63.7287 49.0681 63.9385C49.2779 64.1483 49.4207 64.4156 49.4786 64.7065C49.5365 64.9975 49.5068 65.2991 49.3933 65.5732C49.2797 65.8473 49.0875 66.0815 48.8408 66.2464C48.5941 66.4112 48.3041 66.4991 48.0075 66.4991C47.6098 66.4987 47.2285 66.3405 46.9473 66.0593C46.6661 65.7781 46.508 65.3968 46.5075 64.9992ZM46.5075 58.2493C46.5075 57.9526 46.5955 57.6626 46.7603 57.4159C46.9251 57.1693 47.1594 56.977 47.4334 56.8635C47.7075 56.7499 48.0091 56.7202 48.3001 56.7781C48.5911 56.836 48.8583 56.9789 49.0681 57.1886C49.2779 57.3984 49.4207 57.6657 49.4786 57.9566C49.5365 58.2476 49.5068 58.5492 49.3933 58.8233C49.2797 59.0974 49.0875 59.3316 48.8408 59.4965C48.5941 59.6613 48.3041 59.7493 48.0075 59.7493C47.6098 59.7488 47.2285 59.5906 46.9473 59.3094C46.6661 59.0282 46.508 58.6469 46.5075 58.2493ZM46.5075 50.7494C46.5075 50.4527 46.5955 50.1627 46.7603 49.9161C46.9251 49.6694 47.1594 49.4771 47.4334 49.3636C47.7075 49.2501 48.0091 49.2204 48.3001 49.2782C48.5911 49.3361 48.8583 49.479 49.0681 49.6888C49.2779 49.8985 49.4207 50.1658 49.4786 50.4568C49.5365 50.7477 49.5068 51.0493 49.3933 51.3234C49.2797 51.5975 49.0875 51.8318 48.8408 51.9966C48.5941 52.1614 48.3041 52.2494 48.0075 52.2494C47.6098 52.2489 47.2285 52.0907 46.9473 51.8095C46.6661 51.5283 46.508 51.1471 46.5075 50.7494ZM59.2573 61.2492C58.2627 61.2492 57.3089 60.8541 56.6057 60.1509C55.9024 59.4476 55.5073 58.4938 55.5073 57.4993C55.5073 56.5047 55.9024 55.5509 56.6057 54.8477C57.3089 54.1444 58.2627 53.7493 59.2573 53.7493H67.5072C68.034 53.7497 68.5516 53.6105 69.0071 53.3458V58.2493C69.0062 59.0446 68.6899 59.8072 68.1275 60.3696C67.5651 60.932 66.8025 61.2483 66.0072 61.2492H59.2573Z" fill="#E9EEF4"/>
<path d="M56.6323 57.4992C56.6323 58.0184 56.7863 58.5259 57.0747 58.9576C57.3631 59.3892 57.7731 59.7257 58.2528 59.9244C58.7324 60.123 59.2602 60.175 59.7694 60.0737C60.2786 59.9725 60.7463 59.7225 61.1134 59.3554C61.4805 58.9882 61.7305 58.5205 61.8318 58.0113C61.9331 57.5021 61.8811 56.9743 61.6824 56.4947C61.4837 56.015 61.1473 55.6051 60.7156 55.3167C60.284 55.0282 59.7764 54.8743 59.2573 54.8743C58.5613 54.8751 57.8941 55.1519 57.402 55.644C56.9099 56.1361 56.6331 56.8033 56.6323 57.4992ZM60.3823 57.4992C60.3823 57.7217 60.3163 57.9392 60.1927 58.1242C60.0691 58.3092 59.8934 58.4534 59.6878 58.5386C59.4822 58.6237 59.256 58.646 59.0378 58.6026C58.8196 58.5592 58.6191 58.452 58.4618 58.2947C58.3045 58.1374 58.1973 57.9369 58.1539 57.7187C58.1105 57.5005 58.1328 57.2743 58.2179 57.0687C58.3031 56.8632 58.4473 56.6875 58.6323 56.5638C58.8173 56.4402 59.0348 56.3742 59.2573 56.3742C59.5555 56.3746 59.8415 56.4932 60.0524 56.7041C60.2633 56.915 60.3819 57.201 60.3823 57.4992Z" fill="#E9EEF4"/>
<defs>
<filter id="filter0_d_99_199" x="0.00775146" y="-0.000976562" width="110.6" height="110.6" filterUnits="userSpaceOnUse" color-interpolation-filters="sRGB">
<feFlood flood-opacity="0" result="BackgroundImageFix"/>
<feColorMatrix in="SourceAlpha" type="matrix" values="0 0 0 0 0 0 0 0 0 0 0 0 0 0 0 0 0 0 127 0" result="hardAlpha"/>
<feOffset dx="5" dy="4"/>
<feGaussianBlur stdDeviation="7.5"/>
<feComposite in2="hardAlpha" operator="out"/>
<feColorMatrix type="matrix" values="0 0 0 0 0 0 0 0 0 0 0 0 0 0 0 0 0 0 0.15 0"/>
<feBlend mode="normal" in2="BackgroundImageFix" result="effect1_dropShadow_99_199"/>
<feBlend mode="normal" in="SourceGraphic" in2="effect1_dropShadow_99_199" result="shape"/>
</filter>
<filter id="filter1_i_99_199" x="10.0078" y="10.999" width="80.6" height="80.6001" filterUnits="userSpaceOnUse" color-interpolation-filters="sRGB">
<feFlood flood-opacity="0" result="BackgroundImageFix"/>
<feBlend mode="normal" in="SourceGraphic" in2="BackgroundImageFix" result="shape"/>
<feColorMatrix in="SourceAlpha" type="matrix" values="0 0 0 0 0 0 0 0 0 0 0 0 0 0 0 0 0 0 127 0" result="hardAlpha"/>
<feOffset/>
<feGaussianBlur stdDeviation="6"/>
<feComposite in2="hardAlpha" operator="arithmetic" k2="-1" k3="1"/>
<feColorMatrix type="matrix" values="0 0 0 0 0.808264 0 0 0 0 0.824954 0 0 0 0 0.858333 0 0 0 0.58 0"/>
<feBlend mode="normal" in2="shape" result="effect1_innerShadow_99_199"/>
</filter>
<filter id="filter2_d_99_199" x="3.00775" y="3.99902" width="90.6" height="90.6001" filterUnits="userSpaceOnUse" color-interpolation-filters="sRGB">
<feFlood flood-opacity="0" result="BackgroundImageFix"/>
<feColorMatrix in="SourceAlpha" type="matrix" values="0 0 0 0 0 0 0 0 0 0 0 0 0 0 0 0 0 0 127 0" result="hardAlpha"/>
<feOffset dx="-2" dy="-2"/>
<feGaussianBlur stdDeviation="2.5"/>
<feComposite in2="hardAlpha" operator="out"/>
<feColorMatrix type="matrix" values="0 0 0 0 0.424219 0 0 0 0 0.534202 0 0 0 0 0.754167 0 0 0 0.03 0"/>
<feBlend mode="normal" in2="BackgroundImageFix" result="effect1_dropShadow_99_199"/>
<feBlend mode="normal" in="SourceGraphic" in2="effect1_dropShadow_99_199" result="shape"/>
</filter>
<filter id="filter3_i_99_199" x="10.0078" y="10.999" width="80.6" height="80.6001" filterUnits="userSpaceOnUse" color-interpolation-filters="sRGB">
<feFlood flood-opacity="0" result="BackgroundImageFix"/>
<feBlend mode="normal" in="SourceGraphic" in2="BackgroundImageFix" result="shape"/>
<feColorMatrix in="SourceAlpha" type="matrix" values="0 0 0 0 0 0 0 0 0 0 0 0 0 0 0 0 0 0 127 0" result="hardAlpha"/>
<feOffset/>
<feGaussianBlur stdDeviation="10"/>
<feComposite in2="hardAlpha" operator="arithmetic" k2="-1" k3="1"/>
<feColorMatrix type="matrix" values="0 0 0 0 0.7875 0 0 0 0 0 0 0 0 0 0.431611 0 0 0 0.93 0"/>
<feBlend mode="normal" in2="shape" result="effect1_innerShadow_99_199"/>
</filter>
<linearGradient id="paint0_linear_99_199" x1="50.3078" y1="-6.43605" x2="50.3078" y2="91.599" gradientUnits="userSpaceOnUse">
<stop stop-color="#E9EEF4"/>
<stop offset="1" stop-color="#D2DCE8"/>
</linearGradient>
<linearGradient id="paint1_linear_99_199" x1="108.434" y1="329.133" x2="-85.355" y2="261.531" gradientUnits="userSpaceOnUse">
<stop stop-color="#E215A7"/>
<stop offset="0.749896" stop-color="#EE1D69"/>
</linearGradient>
<linearGradient id="paint2_linear_99_199" x1="-16.9922" y1="-33.501" x2="113.706" y2="-40.1506" gradientUnits="userSpaceOnUse">
<stop stop-color="#E215A7"/>
<stop offset="0.749896" stop-color="#EE1D69"/>
</linearGradient>
<linearGradient id="paint3_linear_99_199" x1="-16.9922" y1="-33.501" x2="113.706" y2="-40.1506" gradientUnits="userSpaceOnUse">
<stop stop-color="#E215A7"/>
<stop offset="0.749896" stop-color="#EE1D69"/>
</linearGradient>
</defs>
</svg>
