<svg width="887" height="750" viewBox="0 0 887 750" fill="none" xmlns="http://www.w3.org/2000/svg">
<g style="mix-blend-mode:screen">
<path d="M696.181 586.693C694.185 586.693 696.181 586.693 696.181 586.693C694.185 584.845 694.185 584.845 696.181 584.845C696.181 584.845 696.181 584.845 696.181 586.693C698.178 586.693 696.181 586.693 696.181 586.693Z" fill="#456993"/>
<path d="M596.342 614.416C594.345 614.416 594.345 616.264 596.342 614.416C594.345 612.567 594.345 612.567 596.342 612.567C594.345 612.567 596.342 612.567 596.342 614.416Z" fill="#456993"/>
<path d="M566.39 584.845C564.393 584.845 566.39 584.845 566.39 584.845C564.393 582.997 564.393 582.997 566.39 582.997C566.39 581.148 566.39 581.149 566.39 584.845C566.39 582.997 566.39 582.997 566.39 584.845Z" fill="#456993"/>
<path d="M588.355 566.363C586.358 566.363 586.358 566.363 586.358 564.515C586.358 562.667 586.358 562.667 588.355 562.667C590.351 562.667 590.351 562.667 590.351 564.515C590.351 564.515 590.351 566.363 588.355 566.363Z" fill="#456993"/>
<path d="M580.367 557.122C580.367 557.122 578.371 557.122 578.371 555.274C578.371 555.274 578.371 553.426 580.367 553.426C580.367 553.426 582.364 553.426 582.364 555.274C582.364 557.122 582.364 557.122 580.367 557.122Z" fill="#456993"/>
<path d="M786.037 723.458C784.04 723.458 784.04 723.458 786.037 723.458C784.04 721.61 784.04 721.61 786.037 721.61C786.037 719.762 786.037 721.61 786.037 723.458C786.037 723.458 786.037 721.61 786.037 723.458Z" fill="#456993"/>
<path d="M722.14 749.333C720.143 749.333 720.143 749.333 720.143 747.485C720.143 745.636 720.143 745.636 722.14 745.636C724.136 745.636 724.136 745.636 724.136 747.485C722.14 747.485 722.14 747.485 722.14 749.333Z" fill="#456993"/>
<path d="M706.166 725.306C704.169 725.306 704.169 725.307 704.169 723.458C704.169 721.61 704.169 721.61 706.166 721.61C708.162 721.61 708.162 721.61 708.162 723.458C708.162 725.307 708.162 723.458 706.166 725.306Z" fill="#456993"/>
<path d="M762.076 686.495H760.079V684.647H762.076V686.495Z" fill="#456993"/>
<path d="M772.059 671.709C770.063 671.709 770.063 673.557 772.059 671.709C770.063 671.709 770.063 671.709 772.059 671.709C772.059 671.709 772.059 669.861 772.059 671.709Z" fill="#456993"/>
<path d="M712.156 699.432C710.159 699.432 712.156 699.432 712.156 699.432C710.159 697.584 710.159 697.584 710.159 697.584C712.156 697.584 714.153 697.584 712.156 699.432C714.153 699.432 714.153 699.432 712.156 699.432Z" fill="#456993"/>
<path d="M682.204 664.317C680.207 662.468 680.207 662.468 682.204 662.468C682.204 662.468 682.204 662.468 682.204 664.317C684.201 664.317 682.204 664.317 682.204 664.317Z" fill="#456993"/>
<path d="M706.165 607.023C704.169 607.023 704.169 607.023 704.169 605.175C704.169 603.327 704.169 603.327 706.165 603.327C708.162 603.327 708.162 603.327 708.162 605.175C706.165 607.023 706.165 607.023 706.165 607.023Z" fill="#456993"/>
<path d="M648.258 625.505C646.262 625.505 646.262 625.505 646.262 623.657C646.262 621.808 646.262 621.808 648.258 621.808C650.255 621.808 650.255 621.808 650.255 623.657L648.258 625.505Z" fill="#456993"/>
<path d="M644.265 564.515C642.268 564.515 642.268 564.515 644.265 564.515C642.268 564.515 642.268 564.515 644.265 564.515C644.265 564.515 642.268 562.667 644.265 564.515Z" fill="#456993"/>
<path d="M638.274 542.337C636.278 542.337 636.278 542.337 638.274 542.337C636.278 540.488 636.278 540.488 638.274 542.337C638.274 540.488 638.274 540.488 638.274 542.337Z" fill="#456993"/>
<path d="M586.358 531.248C584.361 531.248 586.358 531.248 586.358 531.248C584.361 529.399 584.361 529.399 586.358 531.248C586.358 529.399 586.358 529.399 586.358 531.248C586.358 531.248 586.358 529.399 586.358 531.248Z" fill="#456993"/>
<path d="M590.351 514.614C588.355 514.614 588.355 514.614 588.355 512.766C588.355 510.918 588.355 510.918 590.351 510.918C592.348 510.918 592.348 510.918 592.348 512.766C592.348 512.766 592.348 512.766 590.351 514.614Z" fill="#456993"/>
<path d="M540.432 503.525C540.432 503.525 538.435 503.525 538.435 501.677C538.435 501.677 538.435 499.829 540.432 499.829C540.432 499.829 542.428 499.829 542.428 501.677C540.432 501.677 540.432 503.525 540.432 503.525Z" fill="#456993"/>
<path d="M508.483 488.74C506.486 488.74 506.486 488.74 506.486 486.891C506.486 485.043 506.486 485.043 508.483 485.043C510.48 485.043 510.48 485.043 510.48 486.891C510.48 488.74 510.48 488.74 508.483 488.74Z" fill="#456993"/>
<path d="M508.483 479.499C506.486 479.499 508.483 481.347 508.483 479.499C506.486 477.65 506.486 477.65 508.483 477.65C508.483 477.65 508.483 477.65 508.483 479.499C510.48 479.499 508.483 479.499 508.483 479.499Z" fill="#456993"/>
<path d="M496.502 451.776C494.505 451.776 494.505 451.776 494.505 449.928C494.505 448.08 494.505 448.08 496.502 448.08C498.499 448.08 498.499 448.08 498.499 449.928L496.502 451.776Z" fill="#456993"/>
<path d="M436.599 381.545C436.599 379.697 436.599 381.545 436.599 381.545C434.602 379.697 434.602 379.697 436.599 379.697C436.599 377.849 438.595 377.849 436.599 381.545C438.595 379.697 438.595 379.697 436.599 381.545Z" fill="#456993"/>
<path d="M260.881 522.007C260.881 522.007 262.877 522.007 260.881 522.007C262.877 523.855 262.877 523.855 260.881 523.855C260.881 525.703 260.881 523.855 260.881 522.007C260.881 523.855 260.881 522.007 260.881 522.007Z" fill="#456993"/>
<path d="M362.717 494.284C364.714 496.132 364.714 496.132 362.717 496.132C362.717 496.132 360.72 496.132 362.717 494.284C360.72 494.284 360.72 494.284 362.717 494.284Z" fill="#456993"/>
<path d="M390.672 525.703C390.672 525.703 392.669 525.703 390.672 525.703C392.669 527.551 392.669 527.551 390.672 527.551C390.672 527.551 390.672 527.551 390.672 525.703Z" fill="#456993"/>
<path d="M368.707 542.337C370.704 542.337 370.704 542.337 370.704 544.185C370.704 546.033 370.704 546.033 368.707 546.033C366.711 546.033 366.711 546.033 366.711 544.185C366.711 544.185 366.711 544.185 368.707 542.337Z" fill="#456993"/>
<path d="M376.695 551.578C376.695 551.578 378.691 551.578 378.691 553.426C378.691 553.426 378.691 555.274 376.695 555.274C376.695 555.274 374.698 555.274 374.698 553.426C374.698 553.426 374.698 551.578 376.695 551.578Z" fill="#456993"/>
<path d="M171.025 387.09C173.022 385.241 173.022 387.09 171.025 387.09C173.022 388.938 173.022 388.938 171.025 388.938C173.022 388.938 171.025 388.938 171.025 387.09Z" fill="#456993"/>
<path d="M236.919 361.215C238.916 361.215 238.916 361.215 238.916 363.063C238.916 364.911 238.916 364.911 236.919 364.911C234.922 364.911 234.922 364.911 234.922 363.063C234.922 363.063 234.922 361.215 236.919 361.215Z" fill="#456993"/>
<path d="M250.897 385.242C252.893 385.242 252.893 385.241 252.893 387.09C252.893 388.938 252.893 388.938 250.897 388.938C248.9 388.938 248.9 388.938 248.9 387.09C248.9 387.09 248.9 385.242 250.897 385.242Z" fill="#456993"/>
<path d="M194.987 424.053H196.983V425.901H194.987C194.987 424.053 194.987 424.053 194.987 424.053Z" fill="#456993"/>
<path d="M185.002 436.991C186.999 436.991 186.999 436.991 185.002 436.991C186.999 438.839 186.999 438.839 185.002 436.991C185.002 438.839 185.002 438.839 185.002 436.991Z" fill="#456993"/>
<path d="M244.906 409.268C244.906 409.268 246.903 409.268 244.906 409.268C246.903 411.116 246.903 411.116 246.903 411.116C244.906 412.964 244.906 412.964 244.906 409.268C242.91 411.116 242.91 409.268 244.906 409.268Z" fill="#456993"/>
<path d="M274.858 444.383C274.858 444.383 276.855 444.383 274.858 444.383C276.855 446.231 276.855 446.231 274.858 446.231C274.858 448.08 274.858 446.231 274.858 444.383C274.858 444.383 272.861 446.231 274.858 444.383Z" fill="#456993"/>
<path d="M250.897 501.677C252.893 501.677 252.893 501.677 252.893 503.525C252.893 505.373 252.893 505.373 250.897 505.373C248.9 505.373 248.9 505.373 248.9 503.525C250.897 503.525 250.897 501.677 250.897 501.677Z" fill="#456993"/>
<path d="M308.804 483.195C310.8 483.195 310.8 483.195 310.8 485.043C310.8 486.891 310.8 486.891 308.804 486.891C306.807 486.891 306.807 486.891 306.807 485.043C308.804 485.043 308.804 485.043 308.804 483.195Z" fill="#456993"/>
<path d="M314.794 544.185C314.794 546.033 314.794 546.033 314.794 544.185C312.797 546.033 314.794 546.033 314.794 544.185C312.797 546.033 312.797 544.185 314.794 544.185Z" fill="#456993"/>
<path d="M318.788 568.211C320.784 566.363 320.784 568.211 318.788 568.211C320.784 568.211 320.784 568.211 318.788 568.211C318.788 570.059 318.788 568.211 318.788 568.211Z" fill="#456993"/>
<path d="M370.704 579.3C370.704 579.3 372.701 579.3 370.704 579.3C372.701 579.3 372.701 581.149 370.704 579.3C370.704 581.149 370.704 581.149 370.704 579.3Z" fill="#456993"/>
<path d="M366.711 595.934C368.707 595.934 368.707 595.934 368.707 597.782C368.707 599.63 368.707 599.63 366.711 599.63C364.714 599.63 364.714 599.63 364.714 597.782C364.714 597.782 364.714 595.934 366.711 595.934Z" fill="#456993"/>
<path d="M416.631 605.175C416.631 605.175 418.627 605.175 418.627 607.023C418.627 607.023 418.627 608.871 416.631 608.871C416.631 608.871 414.634 608.871 414.634 607.023C416.631 607.023 416.631 607.023 416.631 605.175Z" fill="#456993"/>
<path d="M448.579 619.96C450.576 619.96 450.576 619.96 450.576 621.808C450.576 623.657 450.576 623.657 448.579 623.657C446.582 623.657 446.582 623.657 446.582 621.808C446.582 621.808 446.582 619.96 448.579 619.96Z" fill="#456993"/>
<path d="M448.579 629.201C448.579 629.201 450.576 629.201 448.579 629.201C450.576 631.049 450.576 631.049 448.579 631.049C448.579 631.049 448.579 631.049 448.579 629.201C448.579 629.201 446.582 631.049 448.579 629.201Z" fill="#456993"/>
<path d="M460.56 656.924C462.557 656.924 462.557 656.924 462.557 658.772C462.557 660.62 462.557 660.62 460.56 660.62C458.563 660.62 458.563 660.62 458.563 658.772C458.563 658.772 460.56 656.924 460.56 656.924Z" fill="#456993"/>
<path d="M520.464 729.003C522.461 730.851 522.461 730.851 520.464 730.851C520.464 730.851 518.467 730.851 520.464 729.003C518.467 729.003 518.467 729.003 520.464 729.003Z" fill="#456993"/>
<path d="M274.858 108.015H276.855V109.863H274.858V108.015Z" fill="#456993"/>
<path d="M262.877 24.8465H264.874V26.6946H262.877C260.881 26.6946 260.881 26.6946 262.877 24.8465Z" fill="#456993"/>
<path d="M290.833 67.3546H292.829V69.2027H290.833C288.836 69.2027 288.836 69.2027 290.833 67.3546Z" fill="#844E00"/>
<path d="M356.727 37.7837H358.723V39.6319H356.727V37.7837Z" fill="#456993"/>
<path d="M316.791 119.104C318.788 119.104 318.788 119.104 316.791 119.104C318.788 119.104 318.788 120.952 316.791 119.104C318.788 120.952 316.791 120.952 316.791 119.104Z" fill="#456993"/>
<path d="M300.817 148.675C300.817 148.675 302.813 148.675 300.817 148.675C302.813 150.523 302.813 150.523 300.817 148.675C300.817 152.371 300.817 150.523 300.817 148.675C300.817 150.523 300.817 150.523 300.817 148.675Z" fill="#456993"/>
<path d="M340.752 146.826H342.749V148.675H340.752C338.756 148.675 340.752 146.826 340.752 146.826Z" fill="#456993"/>
<path d="M356.727 150.523C358.724 150.523 358.724 150.523 358.724 150.523C358.724 152.371 358.724 152.371 358.724 152.371C356.727 152.371 356.727 152.371 356.727 152.371V150.523Z" fill="#844E00"/>
<path d="M392.669 187.486C392.669 187.486 394.666 187.486 392.669 187.486C394.666 189.334 394.666 189.334 394.666 189.334C392.669 189.334 392.669 189.334 392.669 187.486C390.672 187.486 390.672 187.486 392.669 187.486Z" fill="#456993"/>
<path d="M376.695 242.932C376.695 241.083 376.695 242.932 376.695 242.932C378.691 244.78 378.691 244.78 378.691 244.78C376.695 244.78 374.698 244.78 376.695 242.932C374.698 242.932 374.698 242.932 376.695 242.932Z" fill="#456993"/>
<path d="M410.64 257.717H412.637V259.565H410.64V257.717Z" fill="#456993"/>
<path d="M416.63 285.44C416.63 287.288 416.63 287.288 416.63 285.44C414.634 285.44 416.63 285.44 416.63 285.44Z" fill="#456993"/>
<path d="M380.688 344.582C382.685 344.582 382.685 344.582 380.688 344.582C380.688 346.43 380.688 346.43 380.688 344.582Z" fill="#456993"/>
<path d="M446.582 394.482C446.582 392.634 448.579 394.482 446.582 394.482C448.579 396.331 448.579 396.331 448.579 396.331C446.582 396.331 446.582 396.331 446.582 394.482C444.586 394.482 444.586 394.482 446.582 394.482Z" fill="#456993"/>
<path d="M488.515 377.849H490.512V379.697H488.515C486.518 379.697 486.518 379.697 488.515 377.849Z" fill="#456993"/>
<path d="M526.454 424.053H528.451V425.901H526.454C526.454 424.053 526.454 424.053 526.454 424.053Z" fill="#456993"/>
<path d="M522.46 396.331C524.457 396.331 524.457 396.331 522.46 396.331C524.457 396.331 524.457 396.331 522.46 396.331C524.457 398.179 522.46 396.331 522.46 396.331Z" fill="#456993"/>
<path d="M592.348 416.661H594.345V418.509H592.348C592.348 418.509 592.348 418.509 592.348 416.661Z" fill="#456993"/>
<path d="M230.929 82.1401C232.926 82.1401 232.926 82.1401 232.926 82.1401C232.926 83.9883 232.926 83.9883 232.926 83.9883C230.929 83.9883 230.929 83.9883 230.929 83.9883C230.929 83.9883 228.932 82.1401 230.929 82.1401Z" fill="#456993"/>
<path d="M248.9 104.318C250.897 104.318 250.897 104.318 252.894 104.318C252.894 106.166 252.894 106.166 252.894 108.015C250.897 108.015 250.897 108.015 248.9 108.015C246.903 106.166 246.903 104.318 248.9 104.318Z" fill="#844E00"/>
<path d="M198.98 148.675H200.977V150.523H198.98V148.675Z" fill="#456993"/>
<path d="M190.993 163.46C190.993 163.46 192.99 163.46 190.993 163.46C192.99 165.308 192.99 165.308 190.993 163.46C190.993 165.308 190.993 165.308 190.993 163.46Z" fill="#456993"/>
<path d="M250.897 268.806H252.894V270.654H250.897C250.897 268.806 250.897 268.806 250.897 268.806Z" fill="#456993"/>
<path d="M280.849 161.612C280.849 159.764 282.846 161.612 280.849 161.612C282.846 161.612 282.846 163.46 280.849 163.46C280.849 163.46 280.849 163.46 280.849 161.612Z" fill="#456993"/>
<path d="M264.874 220.754H266.871V222.602H264.874C264.874 220.754 264.874 220.754 264.874 220.754Z" fill="#844E00"/>
<path d="M320.784 194.879C322.781 194.879 322.781 194.879 322.781 194.879V196.727C320.785 196.727 320.784 196.727 320.784 196.727C318.788 196.727 318.788 196.727 320.784 194.879Z" fill="#456993"/>
<path d="M342.749 276.199C342.749 278.047 342.749 278.047 342.749 276.199C342.749 278.047 342.749 279.895 342.749 276.199C340.752 278.047 340.752 278.047 342.749 276.199Z" fill="#456993"/>
<path d="M394.666 281.743C394.666 281.743 396.663 281.743 394.666 281.743C396.663 283.592 396.663 283.592 394.666 281.743C394.666 283.592 394.666 283.592 394.666 281.743C394.666 283.592 394.666 281.743 394.666 281.743Z" fill="#456993"/>
<path d="M392.669 300.225H394.666V302.073H392.669C390.672 302.073 390.672 300.225 392.669 300.225Z" fill="#456993"/>
<path d="M444.586 303.922H446.582V305.77H444.586C442.589 305.77 442.589 303.922 444.586 303.922Z" fill="#456993"/>
<path d="M476.534 315.011C478.531 315.011 478.531 315.011 478.531 315.011C478.531 316.859 478.531 316.859 478.531 316.859C476.534 316.859 476.534 316.859 476.534 316.859V315.011Z" fill="#456993"/>
<path d="M478.531 322.403C478.531 322.403 480.528 322.403 478.531 322.403C480.528 324.252 480.528 324.252 480.528 324.252C478.531 326.1 478.531 326.1 478.531 322.403C478.531 324.252 478.531 324.252 478.531 322.403Z" fill="#456993"/>
<path d="M494.505 350.126C496.502 350.126 496.502 350.126 498.499 350.126C498.499 351.974 498.499 351.974 498.499 353.822C496.502 353.822 496.502 353.822 494.505 353.822C492.509 351.974 494.505 350.126 494.505 350.126Z" fill="#456993"/>
<path d="M562.396 412.964C562.396 412.964 564.393 412.964 562.396 412.964C564.393 414.812 564.393 414.812 564.393 414.812C562.396 416.661 562.396 416.661 562.396 412.964C562.396 414.812 562.396 414.812 562.396 412.964Z" fill="#456993"/>
<path d="M498.499 427.75C498.499 425.901 498.499 427.75 498.499 427.75C498.499 425.901 498.499 425.901 498.499 427.75C500.496 427.75 500.496 425.901 498.499 427.75Z" fill="#456993"/>
<path d="M460.56 400.027V398.179H462.557V400.027H460.56Z" fill="#456993"/>
<path d="M378.691 435.142V433.294H380.688V435.142C380.688 436.99 380.688 436.99 378.691 435.142Z" fill="#456993"/>
<path d="M414.634 398.179V396.331H416.631V398.179C416.631 398.179 416.631 398.179 414.634 398.179Z" fill="#456993"/>
<path d="M412.637 340.885V339.037H414.634V340.885C414.634 340.885 414.634 340.885 412.637 340.885Z" fill="#456993"/>
<path d="M460.56 359.367C458.563 357.519 458.563 359.367 460.56 359.367C460.56 357.519 460.56 357.519 460.56 359.367C460.56 359.367 460.56 357.519 460.56 359.367Z" fill="#456993"/>
<path d="M496.502 364.912C496.502 363.063 496.502 363.063 496.502 364.912C498.499 364.912 498.499 364.912 496.502 364.912Z" fill="#456993"/>
<path d="M480.528 329.796V327.948H482.525V329.796C482.525 331.644 482.525 331.644 480.528 329.796Z" fill="#456993"/>
<path d="M480.528 315.011V313.162H482.525V315.011C482.525 315.011 482.525 315.011 480.528 315.011Z" fill="#456993"/>
<path d="M508.483 272.503C508.483 270.654 510.48 270.654 508.483 272.503C510.48 272.503 510.48 272.503 508.483 272.503C510.48 274.351 508.483 274.351 508.483 272.503Z" fill="#456993"/>
<path d="M570.383 272.503C570.383 270.654 570.383 270.654 570.383 272.503C570.383 268.806 572.38 268.806 570.383 272.503C572.38 270.654 572.38 270.654 570.383 272.503Z" fill="#456993"/>
<path d="M566.39 229.994C566.39 228.146 568.387 228.146 566.39 229.994C568.387 229.994 568.387 229.994 566.39 229.994C568.387 229.994 566.39 229.994 566.39 229.994Z" fill="#456993"/>
<path d="M576.374 235.539V233.691H578.371V235.539C578.371 237.387 576.374 237.387 576.374 235.539Z" fill="#456993"/>
<path d="M602.332 224.45C602.332 222.602 602.332 222.602 602.332 224.45C602.332 222.602 604.329 222.602 602.332 224.45C604.329 222.602 604.329 222.602 602.332 224.45C604.329 224.45 602.332 224.45 602.332 224.45Z" fill="#456993"/>
<path d="M674.217 237.387C674.217 235.539 674.217 235.539 674.217 237.387C676.213 237.387 676.213 237.387 674.217 237.387Z" fill="#456993"/>
<path d="M706.165 165.308C706.165 163.46 706.165 165.308 706.165 165.308C706.165 163.46 708.162 163.46 706.165 165.308C708.162 165.308 708.162 163.46 706.165 165.308C708.162 165.308 706.165 165.308 706.165 165.308Z" fill="#456993"/>
<path d="M678.211 132.041V130.193H680.207V132.041C680.207 133.889 678.211 133.889 678.211 132.041Z" fill="#844E00"/>
<path d="M714.152 1.74732V9.15527e-05H716.149V1.74732C714.152 3.49454 714.152 3.49454 714.152 1.74732Z" fill="#456993"/>
<path d="M686.198 96.9254C686.198 95.0772 686.198 95.0772 686.198 96.9254C686.198 95.0772 686.198 95.0772 686.198 96.9254C688.194 95.0772 688.194 95.0772 686.198 96.9254Z" fill="#456993"/>
<path d="M556.406 50.721V48.8728H558.403V50.721C556.406 50.721 556.406 50.721 556.406 50.721Z" fill="#456993"/>
<path d="M446.582 446.231V444.383H448.579V446.231C448.579 448.08 448.579 448.08 446.582 446.231Z" fill="#456993"/>
<path d="M464.553 424.053C464.553 424.053 464.553 422.205 464.553 420.357C464.553 420.357 466.55 420.357 468.547 420.357C468.547 420.357 468.547 422.205 468.547 424.053C466.55 425.901 464.553 425.901 464.553 424.053Z" fill="#456993"/>
<path d="M524.457 455.472V453.624H526.454V455.472C526.454 455.472 526.454 455.472 524.457 455.472Z" fill="#456993"/>
<path d="M542.428 457.32C542.428 455.472 544.425 455.472 542.428 457.32C544.425 457.32 544.425 457.32 542.428 457.32C544.425 459.169 542.428 459.169 542.428 457.32Z" fill="#456993"/>
<path d="M490.512 420.357V418.509H492.509V420.357C492.509 420.357 492.509 420.357 490.512 420.357Z" fill="#456993"/>
<path d="M514.473 379.697C512.477 377.849 512.477 379.697 514.473 379.697C514.473 377.849 514.473 377.849 514.473 379.697C516.47 379.697 516.47 377.849 514.473 379.697Z" fill="#456993"/>
<path d="M578.371 376.001V374.152H580.368V376.001C580.368 376.001 580.368 376.001 578.371 376.001Z" fill="#456993"/>
<path d="M538.435 333.492C538.435 333.492 538.435 331.644 538.435 329.796C538.435 329.796 540.432 329.796 542.428 329.796C542.428 329.796 542.428 331.644 542.428 333.492C540.432 335.341 538.435 335.341 538.435 333.492Z" fill="#456993"/>
<path d="M616.309 290.984C616.309 289.136 616.309 289.136 616.309 290.984C618.306 290.984 618.306 290.984 616.309 290.984Z" fill="#456993"/>
<path d="M606.326 242.932C606.326 241.083 606.326 241.083 606.326 242.932C608.322 242.932 608.322 242.932 606.326 242.932Z" fill="#456993"/>
<path d="M624.297 241.083V239.235H626.294V241.083C626.294 241.083 626.294 241.083 624.297 241.083Z" fill="#456993"/>
<path d="M614.313 193.031V191.183H616.31V193.031H614.313Z" fill="#456993"/>
<path d="M614.313 161.612V159.764H616.309V161.612C616.309 161.612 616.309 161.612 614.313 161.612Z" fill="#456993"/>
<path d="M734.121 185.638C734.121 183.79 734.121 185.638 734.121 185.638C734.121 183.79 736.118 183.79 734.121 185.638C736.118 185.638 736.118 183.79 734.121 185.638C736.118 185.638 734.121 185.638 734.121 185.638Z" fill="#456993"/>
<path d="M620.303 111.711C620.303 111.711 620.303 109.863 620.303 108.015C620.303 108.015 622.3 108.015 624.297 108.015C624.297 108.015 624.297 109.863 624.297 111.711C622.3 113.559 620.303 113.559 620.303 111.711Z" fill="#844E00"/>
<path d="M506.486 156.067C506.486 154.219 506.486 154.219 506.486 156.067C508.483 152.371 508.483 154.219 506.486 156.067C510.48 154.219 510.48 154.219 506.486 156.067C508.483 156.067 508.483 156.067 506.486 156.067Z" fill="#456993"/>
<path d="M768.066 226.298C768.066 226.298 770.063 226.298 768.066 226.298C768.066 228.146 768.066 228.146 766.069 228.146C766.069 228.146 766.069 226.298 768.066 226.298C768.066 226.298 768.066 224.45 768.066 226.298Z" fill="#456993"/>
<path d="M857.922 278.047C857.922 278.047 857.922 279.895 857.922 278.047C857.922 279.895 857.922 279.895 855.925 279.895C855.925 279.895 855.925 279.895 857.922 278.047C855.925 278.047 855.925 278.047 857.922 278.047Z" fill="#456993"/>
<path d="M849.934 318.707C849.934 320.555 849.934 320.555 849.934 318.707C849.934 320.555 849.934 320.555 847.938 320.555C847.938 320.555 847.938 320.555 849.934 318.707C849.934 318.707 847.938 318.707 849.934 318.707Z" fill="#456993"/>
<path d="M819.982 315.011C819.982 315.011 821.979 316.859 819.982 316.859C819.982 316.859 817.986 318.707 817.986 316.859C817.986 316.859 815.989 315.011 817.986 315.011H819.982Z" fill="#844E00"/>
<path d="M817.986 326.1C817.986 326.1 819.982 327.948 817.986 327.948C817.986 327.948 815.989 329.796 815.989 327.948C815.989 327.948 813.992 326.1 815.989 326.1H817.986Z" fill="#456993"/>
<path d="M823.976 74.7472C823.976 74.7472 823.976 76.5953 823.976 74.7472C823.976 76.5953 821.979 76.5953 821.979 76.5953C821.979 76.5953 821.979 76.5953 823.976 74.7472C821.979 74.7472 821.979 74.7472 823.976 74.7472Z" fill="#456993"/>
<path d="M885.877 104.318C885.877 104.318 887.873 106.166 885.877 106.166C885.877 106.166 883.88 108.015 883.88 106.166C883.88 106.166 881.883 104.318 883.88 104.318C883.88 102.47 883.88 102.47 885.877 104.318Z" fill="#456993"/>
<path d="M2.89805 130.907C2.89805 130.907 4.89486 132.755 2.89805 132.755C2.89805 132.755 0.901202 134.603 0.901202 132.755C0.901202 132.755 -1.0956 130.907 0.901202 130.907C0.901202 129.059 0.901248 129.059 2.89805 130.907Z" fill="#456993"/>
<path d="M875.892 130.193C877.889 130.193 877.889 132.041 875.892 133.889C875.892 135.737 873.896 135.737 871.899 133.889C869.902 133.889 869.902 132.041 871.899 130.193C873.896 130.193 873.896 128.344 875.892 130.193Z" fill="#844E00"/>
<path d="M808.002 115.407C808.002 115.407 809.998 117.255 808.002 117.255C808.002 117.255 806.005 119.104 806.005 117.255C806.005 117.255 804.008 115.407 806.005 115.407H808.002Z" fill="#456993"/>
<path d="M790.031 117.255C790.031 117.255 792.027 117.255 790.031 117.255C790.031 119.104 790.031 119.104 790.031 117.255C790.031 119.104 788.034 117.255 790.031 117.255Z" fill="#456993"/>
<path d="M851.931 141.282V143.13H849.934V141.282C849.934 141.282 849.934 141.282 851.931 141.282Z" fill="#456993"/>
<path d="M841.947 185.638C841.947 187.486 841.947 187.486 839.951 187.486C839.951 187.486 839.951 185.638 841.947 185.638C839.951 185.638 839.951 185.638 841.947 185.638Z" fill="#456993"/>
<path d="M780.047 205.968C780.047 205.968 782.044 207.816 780.047 207.816C778.05 207.816 778.05 209.664 778.05 207.816C778.05 207.816 776.053 205.968 778.05 205.968C778.05 205.968 778.05 205.968 780.047 205.968Z" fill="#844E00"/>
<path d="M831.963 235.539C833.96 235.539 833.96 237.387 831.963 237.387C831.963 239.235 829.966 239.235 829.966 237.387C827.97 237.387 827.97 235.539 829.966 235.539C829.966 235.539 829.966 233.691 831.963 235.539Z" fill="#456993"/>
<path d="M770.063 296.529C768.066 298.377 770.063 298.377 770.063 296.529C768.066 296.529 768.066 296.529 770.063 296.529C768.066 296.529 768.066 296.529 770.063 296.529Z" fill="#456993"/>
<path d="M794.024 339.037C794.024 340.885 794.024 340.885 794.024 339.037C792.028 340.885 794.024 340.885 794.024 339.037C792.028 340.885 792.028 340.885 794.024 339.037C792.028 339.037 792.028 339.037 794.024 339.037Z" fill="#456993"/>
<path d="M776.053 346.43C776.053 346.43 778.05 348.278 776.053 348.278C776.053 348.278 774.056 350.126 774.056 348.278C774.056 348.278 772.059 346.43 774.056 346.43H776.053Z" fill="#456993"/>
<path d="M800.014 390.786C800.014 390.786 802.011 392.634 800.014 392.634C800.014 392.634 798.018 394.482 798.018 392.634C798.018 392.634 796.021 390.786 798.018 390.786C798.018 388.938 800.014 388.938 800.014 390.786Z" fill="#456993"/>
<path d="M809.998 420.357C811.995 420.357 811.995 422.205 809.998 422.205C809.998 422.205 808.002 424.053 808.002 422.205C808.002 422.205 806.005 420.357 808.002 420.357C806.005 420.357 808.002 420.357 809.998 420.357Z" fill="#456993"/>
<path d="M802.011 427.75C802.011 429.598 802.011 429.598 800.015 429.598C800.015 429.598 800.015 427.75 802.011 427.75C802.011 425.901 800.015 427.75 802.011 427.75Z" fill="#456993"/>
<path d="M786.037 453.624C788.034 453.624 788.034 455.472 786.037 457.32C786.037 459.169 784.04 459.169 782.043 457.32C780.047 457.32 780.047 455.472 782.043 453.624C784.04 453.624 786.037 453.624 786.037 453.624Z" fill="#456993"/>
<path d="M766.069 542.337C766.069 544.185 766.069 544.185 764.072 544.185C764.072 544.185 764.072 542.337 766.069 542.337C764.072 542.337 764.072 540.488 766.069 542.337Z" fill="#456993"/>
<path d="M175.019 488.74C175.019 486.891 175.019 486.891 175.019 488.74C175.019 486.891 173.022 486.891 173.022 486.891C171.025 486.891 171.025 488.74 175.019 488.74C173.022 488.74 173.022 488.74 175.019 488.74Z" fill="#456993"/>
<path d="M228.932 405.571C230.929 403.723 230.929 403.723 228.932 405.571C228.932 403.723 226.935 403.723 226.935 403.723C226.935 403.723 226.935 405.571 228.932 405.571Z" fill="#456993"/>
<path d="M204.971 370.456C202.974 368.608 202.974 368.608 204.971 370.456C202.974 370.456 202.974 370.456 204.971 370.456C204.971 372.304 202.974 372.304 204.971 370.456Z" fill="#456993"/>
<path d="M181.009 387.09V385.242H179.012V387.09C179.012 387.09 179.012 387.09 181.009 387.09Z" fill="#844E00"/>
<path d="M173.022 377.849V376.001H171.025V377.849H173.022Z" fill="#456993"/>
<path d="M292.829 603.327C294.826 601.479 294.826 601.479 292.829 603.327C292.829 601.479 290.833 601.479 290.833 601.479C290.833 601.479 290.833 603.327 292.829 603.327Z" fill="#456993"/>
<path d="M336.759 551.578V549.73H334.762V551.578C334.762 553.426 336.759 553.426 336.759 551.578Z" fill="#456993"/>
<path d="M314.794 533.096C314.794 531.248 314.794 531.248 314.794 529.4C312.797 529.4 312.797 529.4 310.801 529.4C310.801 531.248 310.801 531.248 310.801 533.096C312.797 533.096 314.794 533.096 314.794 533.096Z" fill="#456993"/>
<path d="M260.881 571.908V570.059H258.884V571.908H260.881Z" fill="#456993"/>
<path d="M244.906 577.452C244.906 575.604 244.906 577.452 244.906 577.452C242.91 575.604 242.91 575.604 244.906 577.452C242.91 577.452 242.91 577.452 244.906 577.452C244.906 577.452 242.91 577.452 244.906 577.452Z" fill="#456993"/>
<path d="M288.836 531.248V529.4H286.839V531.248C286.839 533.096 286.839 533.096 288.836 531.248Z" fill="#456993"/>
<path d="M258.884 496.132C258.884 494.284 258.884 496.132 258.884 496.132C256.887 494.284 258.884 494.284 258.884 496.132C256.887 496.132 256.887 494.284 258.884 496.132C258.884 496.132 256.887 496.132 258.884 496.132Z" fill="#456993"/>
<path d="M192.99 501.677V499.829H190.993V501.677H192.99Z" fill="#456993"/>
<path d="M226.935 455.472V453.624H224.939V455.472H226.935Z" fill="#456993"/>
<path d="M165.035 435.142C163.038 433.294 165.035 433.294 165.035 435.142C163.038 435.142 163.038 435.142 165.035 435.142Z" fill="#456993"/>
<path d="M143.07 424.053C143.07 422.205 143.07 424.053 143.07 424.053C141.073 422.205 141.073 422.205 143.07 424.053C141.073 424.053 141.073 424.053 143.07 424.053C143.07 424.053 141.073 424.053 143.07 424.053Z" fill="#456993"/>
<path d="M143.07 374.152C145.067 374.152 145.067 374.152 143.07 374.152C143.07 376.001 143.07 376.001 143.07 374.152Z" fill="#456993"/>
<path d="M125.099 376.001V374.152H123.102V376.001H125.099Z" fill="#456993"/>
<path d="M127.095 326.1V324.252H125.099V326.1C125.099 327.948 127.095 327.948 127.095 326.1Z" fill="#844E00"/>
<path d="M121.105 294.681V292.833H119.109V294.681C119.109 296.529 119.109 296.529 121.105 294.681Z" fill="#456993"/>
<path d="M111.121 292.833C111.121 290.984 111.121 292.833 111.121 292.833C111.121 290.984 109.125 290.984 109.125 290.984C109.125 292.833 109.125 292.833 111.121 292.833C111.121 292.833 109.125 292.833 111.121 292.833Z" fill="#456993"/>
<path d="M85.163 274.351C85.163 272.503 85.163 272.503 85.163 270.654C83.1663 270.654 83.1663 270.654 81.1695 270.654C81.1695 272.503 81.1695 272.503 81.1695 274.351C83.1663 276.199 85.163 276.199 85.163 274.351Z" fill="#456993"/>
<path d="M25.2592 190.448C25.2592 188.7 25.2592 188.7 25.2592 190.448C25.2592 188.7 23.2625 188.7 23.2625 188.7C23.2625 188.7 23.2625 190.448 25.2592 190.448Z" fill="#456993"/>
</g>
</svg>
