<svg width="587" height="514" viewBox="0 0 587 514" fill="none" xmlns="http://www.w3.org/2000/svg">
<g style="mix-blend-mode:screen">
<path d="M471.425 402.079C470.222 402.079 471.425 402.079 471.425 402.079C470.222 400.814 470.222 400.814 471.425 400.814C471.425 400.814 471.425 400.814 471.425 402.079C472.628 402.079 471.425 402.079 471.425 402.079Z" fill="#FFEE00"/>
<path d="M411.273 421.046C410.07 421.046 410.07 422.311 411.273 421.046C410.07 419.782 410.07 419.782 411.273 419.782C410.07 419.782 411.273 419.782 411.273 421.046Z" fill="#FFEE00"/>
<path d="M393.228 400.814C392.025 400.814 393.228 400.814 393.228 400.814C392.025 399.55 392.025 399.55 393.228 399.55C393.228 398.285 393.228 398.285 393.228 400.814C393.228 399.55 393.228 399.55 393.228 400.814Z" fill="#FFEE00"/>
<path d="M406.461 388.17C405.258 388.17 405.258 388.17 405.258 386.905C405.258 385.641 405.258 385.641 406.461 385.641C407.664 385.641 407.664 385.641 407.664 386.905C407.664 386.905 407.664 388.17 406.461 388.17Z" fill="#FFEE00"/>
<path d="M401.649 381.847C401.649 381.847 400.446 381.847 400.446 380.583C400.446 380.583 400.446 379.318 401.649 379.318C401.649 379.318 402.852 379.318 402.852 380.583C402.852 381.847 402.852 381.847 401.649 381.847Z" fill="#FFEE00"/>
<path d="M525.562 495.651C524.359 495.651 524.359 495.651 525.562 495.651C524.359 494.386 524.359 494.386 525.562 494.386C525.562 493.122 525.562 494.386 525.562 495.651C525.562 495.651 525.562 494.386 525.562 495.651Z" fill="#FFEE00"/>
<path d="M487.065 513.353C485.862 513.353 485.862 513.353 485.862 512.089C485.862 510.824 485.862 510.824 487.065 510.824C488.268 510.824 488.268 510.824 488.268 512.089C487.065 512.089 487.065 512.089 487.065 513.353Z" fill="#FFEE00"/>
<path d="M477.441 496.915C476.238 496.915 476.238 496.915 476.238 495.651C476.238 494.386 476.238 494.386 477.441 494.386C478.644 494.386 478.644 494.386 478.644 495.651C478.644 496.915 478.644 495.651 477.441 496.915Z" fill="#FFEE00"/>
<path d="M511.125 470.361H509.922V469.097H511.125V470.361Z" fill="#FFEE00"/>
<path d="M517.141 460.245C515.938 460.245 515.938 461.51 517.141 460.245C515.938 460.245 515.938 460.245 517.141 460.245C517.141 460.245 517.141 458.981 517.141 460.245Z" fill="#FFEE00"/>
<path d="M481.05 479.212C479.847 479.212 481.05 479.212 481.05 479.212C479.847 477.948 479.847 477.948 479.847 477.948C481.05 477.948 482.253 477.948 481.05 479.212C482.253 479.212 482.253 479.212 481.05 479.212Z" fill="#FFEE00"/>
<path d="M463.004 455.187C461.801 453.923 461.801 453.923 463.004 453.923C463.004 453.923 463.004 453.923 463.004 455.187C464.207 455.187 463.004 455.187 463.004 455.187Z" fill="#FFEE00"/>
<path d="M477.44 415.988C476.237 415.988 476.237 415.988 476.237 414.724C476.237 413.459 476.237 413.459 477.44 413.459C478.644 413.459 478.643 413.459 478.643 414.724C477.44 415.988 477.44 415.988 477.44 415.988Z" fill="#FFEE00"/>
<path d="M442.552 428.633C441.349 428.633 441.349 428.633 441.349 427.369C441.349 426.104 441.349 426.104 442.552 426.104C443.755 426.104 443.755 426.104 443.755 427.369L442.552 428.633Z" fill="#FFEE00"/>
<path d="M440.146 386.905C438.943 386.905 438.943 386.905 440.146 386.905C438.943 386.905 438.943 386.905 440.146 386.905C440.146 386.905 438.943 385.641 440.146 386.905Z" fill="#FFEE00"/>
<path d="M436.537 371.731C435.334 371.731 435.334 371.731 436.537 371.731C435.334 370.467 435.334 370.467 436.537 371.731C436.537 370.467 436.537 370.467 436.537 371.731Z" fill="#FFEE00"/>
<path d="M405.258 364.144C404.055 364.144 405.258 364.144 405.258 364.144C404.055 362.88 404.055 362.88 405.258 364.144C405.258 362.88 405.258 362.88 405.258 364.144C405.258 364.144 405.258 362.88 405.258 364.144Z" fill="#FFEE00"/>
<path d="M407.664 352.764C406.461 352.764 406.461 352.764 406.461 351.5C406.461 350.235 406.461 350.235 407.664 350.235C408.867 350.235 408.867 350.235 408.867 351.5C408.867 351.5 408.867 351.5 407.664 352.764Z" fill="#FFEE00"/>
<path d="M377.588 345.177C377.588 345.177 376.385 345.177 376.385 343.913C376.385 343.913 376.385 342.648 377.588 342.648C377.588 342.648 378.792 342.648 378.792 343.913C377.588 343.913 377.588 345.177 377.588 345.177Z" fill="#FFEE00"/>
<path d="M358.34 335.061C357.137 335.061 357.137 335.061 357.137 333.797C357.137 332.532 357.137 332.532 358.34 332.532C359.543 332.532 359.543 332.532 359.543 333.797C359.543 335.061 359.543 335.061 358.34 335.061Z" fill="#FFEE00"/>
<path d="M358.34 328.739C357.137 328.739 358.34 330.003 358.34 328.739C357.137 327.474 357.137 327.474 358.34 327.474C358.34 327.474 358.34 327.474 358.34 328.739C359.543 328.739 358.34 328.739 358.34 328.739Z" fill="#FFEE00"/>
<path d="M351.122 309.772C349.919 309.772 349.919 309.772 349.919 308.507C349.919 307.243 349.919 307.243 351.122 307.243C352.325 307.243 352.325 307.243 352.325 308.507L351.122 309.772Z" fill="#FFEE00"/>
<path d="M315.031 261.721C315.031 260.457 315.031 261.721 315.031 261.721C313.828 260.457 313.828 260.457 315.031 260.457C315.031 259.192 316.234 259.192 315.031 261.721C316.234 260.457 316.234 260.457 315.031 261.721Z" fill="#FFEE00"/>
<path d="M209.163 357.822C209.163 357.822 210.366 357.822 209.163 357.822C210.366 359.086 210.366 359.086 209.163 359.086C209.163 360.351 209.163 359.086 209.163 357.822C209.163 359.086 209.163 357.822 209.163 357.822Z" fill="#FFEE00"/>
<path d="M270.518 338.855C271.721 340.119 271.721 340.119 270.518 340.119C270.518 340.119 269.315 340.119 270.518 338.855C269.315 338.855 269.315 338.855 270.518 338.855Z" fill="#FFEE00"/>
<path d="M287.361 360.351C287.361 360.351 288.564 360.351 287.361 360.351C288.564 361.615 288.564 361.615 287.361 361.615C287.361 361.615 287.361 361.615 287.361 360.351Z" fill="#FFEE00"/>
<path d="M274.127 371.731C275.33 371.731 275.33 371.731 275.33 372.996C275.33 374.26 275.33 374.26 274.127 374.26C272.924 374.26 272.924 374.26 272.924 372.996C272.924 372.996 272.924 372.996 274.127 371.731Z" fill="#FFEE00"/>
<path d="M278.94 378.054C278.94 378.054 280.143 378.054 280.143 379.318C280.143 379.318 280.143 380.583 278.94 380.583C278.94 380.583 277.737 380.583 277.737 379.318C277.737 379.318 277.737 378.054 278.94 378.054Z" fill="#FFEE00"/>
<path d="M155.027 265.515C156.23 264.25 156.23 265.515 155.027 265.515C156.23 266.779 156.23 266.779 155.027 266.779C156.23 266.779 155.027 266.779 155.027 265.515Z" fill="#FFEE00"/>
<path d="M194.727 247.812C195.93 247.812 195.93 247.812 195.93 249.076C195.93 250.341 195.93 250.341 194.727 250.341C193.524 250.341 193.524 250.341 193.524 249.076C193.524 249.076 193.524 247.812 194.727 247.812Z" fill="#FFEE00"/>
<path d="M203.148 264.25C204.351 264.25 204.351 264.25 204.351 265.515C204.351 266.779 204.351 266.779 203.148 266.779C201.945 266.779 201.945 266.779 201.945 265.515C201.945 265.515 201.945 264.25 203.148 264.25Z" fill="#FFEE00"/>
<path d="M169.463 290.804H170.666V292.069H169.463C169.463 290.804 169.463 290.804 169.463 290.804Z" fill="#FFEE00"/>
<path d="M163.448 299.656C164.651 299.656 164.651 299.656 163.448 299.656C164.651 300.92 164.651 300.92 163.448 299.656C163.448 300.92 163.448 300.92 163.448 299.656Z" fill="#FFEE00"/>
<path d="M199.539 280.688C199.539 280.688 200.742 280.688 199.539 280.688C200.742 281.953 200.742 281.953 200.742 281.953C199.539 283.217 199.539 283.217 199.539 280.688C198.336 281.953 198.336 280.688 199.539 280.688Z" fill="#FFEE00"/>
<path d="M217.585 304.714C217.585 304.714 218.788 304.714 217.585 304.714C218.788 305.978 218.788 305.978 217.585 305.978C217.585 307.243 217.585 305.978 217.585 304.714C217.585 304.714 216.382 305.978 217.585 304.714Z" fill="#FFEE00"/>
<path d="M203.148 343.913C204.351 343.913 204.351 343.913 204.351 345.177C204.351 346.442 204.351 346.442 203.148 346.442C201.945 346.442 201.945 346.442 201.945 345.177C203.148 345.177 203.148 343.913 203.148 343.913Z" fill="#FFEE00"/>
<path d="M238.036 331.268C239.239 331.268 239.239 331.268 239.239 332.532C239.239 333.797 239.239 333.797 238.036 333.797C236.833 333.797 236.833 333.797 236.833 332.532C238.036 332.532 238.036 332.532 238.036 331.268Z" fill="#FFEE00"/>
<path d="M241.645 372.996C241.645 374.26 241.645 374.26 241.645 372.996C240.442 374.26 241.645 374.26 241.645 372.996C240.442 374.26 240.442 372.996 241.645 372.996Z" fill="#FFEE00"/>
<path d="M244.052 389.434C245.255 388.17 245.255 389.434 244.052 389.434C245.255 389.434 245.255 389.434 244.052 389.434C244.052 390.699 244.052 389.434 244.052 389.434Z" fill="#FFEE00"/>
<path d="M275.33 397.021C275.33 397.021 276.533 397.021 275.33 397.021C276.533 397.021 276.533 398.285 275.33 397.021C275.33 398.285 275.33 398.285 275.33 397.021Z" fill="#FFEE00"/>
<path d="M272.924 408.401C274.127 408.401 274.127 408.401 274.127 409.666C274.127 410.93 274.127 410.93 272.924 410.93C271.721 410.93 271.721 410.93 271.721 409.666C271.721 409.666 271.721 408.401 272.924 408.401Z" fill="#FFEE00"/>
<path d="M303 414.724C303 414.724 304.203 414.724 304.203 415.988C304.203 415.988 304.203 417.253 303 417.253C303 417.253 301.797 417.253 301.797 415.988C303 415.988 303 415.988 303 414.724Z" fill="#FFEE00"/>
<path d="M322.249 424.84C323.452 424.84 323.452 424.84 323.452 426.104C323.452 427.369 323.452 427.369 322.249 427.369C321.046 427.369 321.046 427.369 321.046 426.104C321.046 426.104 321.046 424.84 322.249 424.84Z" fill="#FFEE00"/>
<path d="M322.249 431.162C322.249 431.162 323.452 431.162 322.249 431.162C323.452 432.427 323.452 432.427 322.249 432.427C322.249 432.427 322.249 432.427 322.249 431.162C322.249 431.162 321.046 432.427 322.249 431.162Z" fill="#FFEE00"/>
<path d="M329.467 450.129C330.67 450.129 330.67 450.129 330.67 451.394C330.67 452.658 330.67 452.658 329.467 452.658C328.264 452.658 328.264 452.658 328.264 451.394C328.264 451.394 329.467 450.129 329.467 450.129Z" fill="#FFEE00"/>
<path d="M365.558 499.444C366.761 500.709 366.761 500.709 365.558 500.709C365.558 500.709 364.355 500.709 365.558 499.444C364.355 499.444 364.355 499.444 365.558 499.444Z" fill="#FFEE00"/>
<path d="M217.585 74.5776H218.788V75.8421H217.585V74.5776Z" fill="#FFEE00"/>
<path d="M158.952 17.6758H160.155V18.9403H158.952C157.749 18.9403 157.749 18.9403 158.952 17.6758Z" fill="#FFEE00"/>
<path d="M227.209 46.7589H228.412V48.0234H227.209C226.006 48.0234 226.006 48.0234 227.209 46.7589Z" fill="#844E00"/>
<path d="M215.495 26.5272H216.698V27.7916H215.495V26.5272Z" fill="#FFEE00"/>
<path d="M242.848 82.1644C244.051 82.1644 244.051 82.1644 242.848 82.1644C244.051 82.1644 244.051 83.4289 242.848 82.1644C244.051 83.4289 242.848 83.4289 242.848 82.1644Z" fill="#FFEE00"/>
<path d="M233.224 102.396C233.224 102.396 234.427 102.396 233.224 102.396C234.427 103.661 234.427 103.661 233.224 102.396C233.224 104.925 233.224 103.661 233.224 102.396C233.224 103.661 233.224 103.661 233.224 102.396Z" fill="#FFEE00"/>
<path d="M257.285 101.132H258.488V102.396H257.285C256.082 102.396 257.285 101.132 257.285 101.132Z" fill="#FFEE00"/>
<path d="M266.909 103.661C268.112 103.661 268.112 103.661 268.112 103.661C268.112 104.925 268.112 104.925 268.112 104.925C266.909 104.925 266.909 104.925 266.909 104.925V103.661Z" fill="#844E00"/>
<path d="M288.564 128.95C288.564 128.95 289.767 128.95 288.564 128.95C289.767 130.215 289.767 130.215 289.767 130.215C288.564 130.215 288.564 130.215 288.564 128.95C287.361 128.95 287.361 128.95 288.564 128.95Z" fill="#FFEE00"/>
<path d="M278.94 166.885C278.94 165.62 278.94 166.885 278.94 166.885C280.143 168.149 280.143 168.149 280.143 168.149C278.94 168.149 277.737 168.149 278.94 166.885C277.737 166.885 277.737 166.885 278.94 166.885Z" fill="#FFEE00"/>
<path d="M299.391 177.001H300.594V178.265H299.391V177.001Z" fill="#FFEE00"/>
<path d="M303 195.968C303 197.233 303 197.233 303 195.968C301.797 195.968 303 195.968 303 195.968Z" fill="#FFEE00"/>
<path d="M281.346 236.432C282.549 236.432 282.549 236.432 281.346 236.432C281.346 237.696 281.346 237.696 281.346 236.432Z" fill="#FFEE00"/>
<path d="M321.046 270.573C321.046 269.308 322.249 270.573 321.046 270.573C322.249 271.837 322.249 271.837 322.249 271.837C321.046 271.837 321.046 271.837 321.046 270.573C319.843 270.573 319.843 270.573 321.046 270.573Z" fill="#FFEE00"/>
<path d="M346.31 259.192H347.513V260.457H346.31C345.106 260.457 345.106 260.457 346.31 259.192Z" fill="#FFEE00"/>
<path d="M369.167 290.804H370.37V292.069H369.167C369.167 290.804 369.167 290.804 369.167 290.804Z" fill="#FFEE00"/>
<path d="M366.761 271.837C367.964 271.837 367.964 271.837 366.761 271.837C367.964 271.837 367.964 271.837 366.761 271.837C367.964 273.101 366.761 271.837 366.761 271.837Z" fill="#FFEE00"/>
<path d="M408.867 285.746H410.07V287.011H408.867C408.867 287.011 408.867 287.011 408.867 285.746Z" fill="#FFEE00"/>
<path d="M191.118 56.8748C192.321 56.8748 192.321 56.8748 192.321 56.8748C192.321 58.1393 192.321 58.1393 192.321 58.1393C191.118 58.1393 191.118 58.1393 191.118 58.1393C191.118 58.1393 189.915 56.8748 191.118 56.8748Z" fill="#FFEE00"/>
<path d="M201.945 72.0486C203.148 72.0486 203.148 72.0486 204.351 72.0486C204.351 73.3131 204.351 73.3131 204.351 74.5776C203.148 74.5776 203.148 74.5776 201.945 74.5776C200.742 73.3131 200.742 72.0486 201.945 72.0486Z" fill="#844E00"/>
<path d="M171.869 102.396H173.072V103.661H171.869V102.396Z" fill="#FFEE00"/>
<path d="M167.057 112.512C167.057 112.512 168.26 112.512 167.057 112.512C168.26 113.777 168.26 113.777 167.057 112.512C167.057 113.777 167.057 113.777 167.057 112.512Z" fill="#FFEE00"/>
<path d="M203.148 184.588H204.351V185.852H203.148C203.148 184.588 203.148 184.588 203.148 184.588Z" fill="#FFEE00"/>
<path d="M221.194 111.248C221.194 109.983 222.397 111.248 221.194 111.248C222.397 111.248 222.397 112.512 221.194 112.512C221.194 112.512 221.194 112.512 221.194 111.248Z" fill="#FFEE00"/>
<path d="M211.57 151.711H212.773V152.976H211.57C211.57 151.711 211.57 151.711 211.57 151.711Z" fill="#844E00"/>
<path d="M245.255 134.008C246.458 134.008 246.458 134.008 246.458 134.008V135.273C245.255 135.273 245.255 135.273 245.255 135.273C244.051 135.273 244.051 135.273 245.255 134.008Z" fill="#FFEE00"/>
<path d="M258.488 189.646C258.488 190.91 258.488 190.91 258.488 189.646C258.488 190.91 258.488 192.175 258.488 189.646C257.285 190.91 257.285 190.91 258.488 189.646Z" fill="#FFEE00"/>
<path d="M289.767 193.439C289.767 193.439 290.97 193.439 289.767 193.439C290.97 194.704 290.97 194.704 289.767 193.439C289.767 194.704 289.767 194.704 289.767 193.439C289.767 194.704 289.767 193.439 289.767 193.439Z" fill="#FFEE00"/>
<path d="M288.564 206.084H289.767V207.348H288.564C287.361 207.348 287.361 206.084 288.564 206.084Z" fill="#FFEE00"/>
<path d="M319.843 208.613H321.046V209.877H319.843C318.64 209.877 318.64 208.613 319.843 208.613Z" fill="#FFEE00"/>
<path d="M339.091 216.2C340.294 216.2 340.294 216.2 340.294 216.2C340.294 217.464 340.294 217.464 340.294 217.464C339.091 217.464 339.091 217.464 339.091 217.464V216.2Z" fill="#FFEE00"/>
<path d="M340.294 221.258C340.294 221.258 341.497 221.258 340.294 221.258C341.497 222.522 341.497 222.522 341.497 222.522C340.294 223.787 340.294 223.787 340.294 221.258C340.294 222.522 340.294 222.522 340.294 221.258Z" fill="#FFEE00"/>
<path d="M349.919 240.225C351.122 240.225 351.122 240.225 352.325 240.225C352.325 241.489 352.325 241.489 352.325 242.754C351.122 242.754 351.122 242.754 349.919 242.754C348.716 241.489 349.919 240.225 349.919 240.225Z" fill="#FFEE00"/>
<path d="M390.822 283.217C390.822 283.217 392.025 283.217 390.822 283.217C392.025 284.482 392.025 284.482 392.025 284.482C390.822 285.746 390.822 285.746 390.822 283.217C390.822 284.482 390.822 284.482 390.822 283.217Z" fill="#FFEE00"/>
<path d="M352.325 293.333C352.325 292.069 352.325 293.333 352.325 293.333C352.325 292.069 352.325 292.069 352.325 293.333C353.528 293.333 353.528 292.069 352.325 293.333Z" fill="#FFEE00"/>
<path d="M329.467 274.366V273.102H330.67V274.366H329.467Z" fill="#FFEE00"/>
<path d="M280.143 298.391V297.127H281.346V298.391C281.346 299.656 281.346 299.656 280.143 298.391Z" fill="#FFEE00"/>
<path d="M301.797 273.102V271.837H303V273.102C303 273.102 303 273.102 301.797 273.102Z" fill="#FFEE00"/>
<path d="M300.594 233.903V232.638H301.797V233.903C301.797 233.903 301.797 233.903 300.594 233.903Z" fill="#FFEE00"/>
<path d="M329.467 246.547C328.264 245.283 328.264 246.547 329.467 246.547C329.467 245.283 329.467 245.283 329.467 246.547C329.467 246.547 329.467 245.283 329.467 246.547Z" fill="#FFEE00"/>
<path d="M351.122 250.341C351.122 249.076 351.122 249.076 351.122 250.341C352.325 250.341 352.325 250.341 351.122 250.341Z" fill="#FFEE00"/>
<path d="M341.497 226.316V225.051H342.7V226.316C342.7 227.58 342.7 227.58 341.497 226.316Z" fill="#FFEE00"/>
<path d="M341.497 216.2V214.935H342.7V216.2C342.7 216.2 342.7 216.2 341.497 216.2Z" fill="#FFEE00"/>
<path d="M358.34 187.117C358.34 185.852 359.543 185.852 358.34 187.117C359.543 187.117 359.543 187.117 358.34 187.117C359.543 188.381 358.34 188.381 358.34 187.117Z" fill="#FFEE00"/>
<path d="M395.634 187.117C395.634 185.852 395.634 185.852 395.634 187.117C395.634 184.588 396.837 184.588 395.634 187.117C396.837 185.852 396.837 185.852 395.634 187.117Z" fill="#FFEE00"/>
<path d="M393.228 158.033C393.228 156.769 394.431 156.769 393.228 158.033C394.431 158.033 394.431 158.033 393.228 158.033C394.431 158.033 393.228 158.033 393.228 158.033Z" fill="#FFEE00"/>
<path d="M399.243 161.827V160.562H400.446V161.827C400.446 163.091 399.243 163.091 399.243 161.827Z" fill="#FFEE00"/>
<path d="M414.883 154.24C414.883 152.976 414.883 152.976 414.883 154.24C414.883 152.976 416.086 152.976 414.883 154.24C416.086 152.976 416.086 152.976 414.883 154.24C416.086 154.24 414.883 154.24 414.883 154.24Z" fill="#FFEE00"/>
<path d="M458.192 163.091C458.192 161.827 458.192 161.827 458.192 163.091C459.395 163.091 459.395 163.091 458.192 163.091Z" fill="#FFEE00"/>
<path d="M477.44 113.777C477.44 112.512 477.44 113.777 477.44 113.777C477.44 112.512 478.643 112.512 477.44 113.777C478.643 113.777 478.643 112.512 477.44 113.777C478.643 113.777 477.44 113.777 477.44 113.777Z" fill="#FFEE00"/>
<path d="M460.598 91.0159V89.7514H461.801V91.0159C461.801 92.2803 460.598 92.2803 460.598 91.0159Z" fill="#844E00"/>
<path d="M430.838 1.87187V0.676453H432.041V1.87187C430.838 3.06728 430.838 3.06728 430.838 1.87187Z" fill="#FFEE00"/>
<path d="M465.41 66.9906C465.41 65.7261 465.41 65.7261 465.41 66.9906C465.41 65.7261 465.41 65.7261 465.41 66.9906C466.613 65.7261 466.613 65.7261 465.41 66.9906Z" fill="#FFEE00"/>
<path d="M387.213 35.3786V34.1141H388.416V35.3786C387.213 35.3786 387.213 35.3786 387.213 35.3786Z" fill="#FFEE00"/>
<path d="M321.046 305.978V304.714H322.249V305.978C322.249 307.243 322.249 307.243 321.046 305.978Z" fill="#FFEE00"/>
<path d="M331.873 290.804C331.873 290.804 331.873 289.54 331.873 288.275C331.873 288.275 333.076 288.275 334.279 288.275C334.279 288.275 334.279 289.54 334.279 290.804C333.076 292.069 331.873 292.069 331.873 290.804Z" fill="#FFEE00"/>
<path d="M367.964 312.301V311.036H369.167V312.301C369.167 312.301 369.167 312.301 367.964 312.301Z" fill="#FFEE00"/>
<path d="M378.791 313.565C378.791 312.301 379.994 312.301 378.791 313.565C379.994 313.565 379.994 313.565 378.791 313.565C379.994 314.829 378.791 314.829 378.791 313.565Z" fill="#FFEE00"/>
<path d="M347.513 288.275V287.011H348.716V288.275C348.716 288.275 348.716 288.275 347.513 288.275Z" fill="#FFEE00"/>
<path d="M361.949 260.457C360.746 259.192 360.746 260.457 361.949 260.457C361.949 259.192 361.949 259.192 361.949 260.457C363.152 260.457 363.152 259.192 361.949 260.457Z" fill="#FFEE00"/>
<path d="M400.446 257.928V256.663H401.649V257.928C401.649 257.928 401.649 257.928 400.446 257.928Z" fill="#FFEE00"/>
<path d="M376.385 228.845C376.385 228.845 376.385 227.58 376.385 226.316C376.385 226.316 377.588 226.316 378.791 226.316C378.791 226.316 378.791 227.58 378.791 228.845C377.588 230.109 376.385 230.109 376.385 228.845Z" fill="#FFEE00"/>
<path d="M423.304 199.762C423.304 198.497 423.304 198.497 423.304 199.762C424.507 199.762 424.507 199.762 423.304 199.762Z" fill="#FFEE00"/>
<path d="M417.289 166.885C417.289 165.62 417.289 165.62 417.289 166.885C418.492 166.885 418.492 166.885 417.289 166.885Z" fill="#FFEE00"/>
<path d="M428.116 165.62V164.356H429.319V165.62C429.319 165.62 429.319 165.62 428.116 165.62Z" fill="#FFEE00"/>
<path d="M422.101 132.744V131.479H423.304V132.744H422.101Z" fill="#FFEE00"/>
<path d="M422.101 111.248V109.983H423.304V111.248C423.304 111.248 423.304 111.248 422.101 111.248Z" fill="#FFEE00"/>
<path d="M494.283 127.686C494.283 126.421 494.283 127.686 494.283 127.686C494.283 126.421 495.486 126.421 494.283 127.686C495.486 127.686 495.486 126.421 494.283 127.686C495.486 127.686 494.283 127.686 494.283 127.686Z" fill="#FFEE00"/>
<path d="M425.71 77.1065C425.71 77.1065 425.71 75.8421 425.71 74.5776C425.71 74.5776 426.913 74.5776 428.116 74.5776C428.116 74.5776 428.116 75.8421 428.116 77.1065C426.913 78.371 425.71 78.371 425.71 77.1065Z" fill="#844E00"/>
<path d="M357.137 107.454C357.137 106.19 357.137 106.19 357.137 107.454C358.34 104.925 358.34 106.19 357.137 107.454C359.543 106.19 359.543 106.19 357.137 107.454C358.34 107.454 358.34 107.454 357.137 107.454Z" fill="#FFEE00"/>
<path d="M514.734 155.504C514.734 155.504 515.937 155.504 514.734 155.504C514.734 156.769 514.734 156.769 513.531 156.769C513.531 156.769 513.531 155.504 514.734 155.504C514.734 155.504 514.734 154.24 514.734 155.504Z" fill="#FFEE00"/>
<path d="M568.871 190.91C568.871 190.91 568.871 192.175 568.871 190.91C568.871 192.175 568.871 192.175 567.668 192.175C567.668 192.175 567.668 192.175 568.871 190.91C567.668 190.91 567.668 190.91 568.871 190.91Z" fill="#FFEE00"/>
<path d="M564.059 218.729C564.059 219.993 564.059 219.993 564.059 218.729C564.059 219.993 564.059 219.993 562.856 219.993C562.856 219.993 562.856 219.993 564.059 218.729C564.059 218.729 562.856 218.729 564.059 218.729Z" fill="#FFEE00"/>
<path d="M546.013 216.2C546.013 216.2 547.216 217.464 546.013 217.464C546.013 217.464 544.81 218.729 544.81 217.464C544.81 217.464 543.607 216.2 544.81 216.2H546.013Z" fill="#844E00"/>
<path d="M544.81 223.787C544.81 223.787 546.013 225.051 544.81 225.051C544.81 225.051 543.607 226.316 543.607 225.051C543.607 225.051 542.404 223.787 543.607 223.787H544.81Z" fill="#FFEE00"/>
<path d="M548.42 51.8168C548.42 51.8168 548.42 53.0813 548.42 51.8168C548.42 53.0813 547.217 53.0813 547.217 53.0813C547.217 53.0813 547.217 53.0813 548.42 51.8168C547.217 51.8168 547.217 51.8168 548.42 51.8168Z" fill="#FFEE00"/>
<path d="M585.714 72.0486C585.714 72.0486 586.917 73.313 585.714 73.313C585.714 73.313 584.511 74.5775 584.511 73.313C584.511 73.313 583.307 72.0486 584.511 72.0486C584.511 70.7841 584.511 70.7841 585.714 72.0486Z" fill="#FFEE00"/>
<path d="M2.3189 90.2399C2.3189 90.2399 3.52195 91.5044 2.3189 91.5044C2.3189 91.5044 1.11583 92.7689 1.11583 91.5044C1.11583 91.5044 -0.0872115 90.2399 1.11583 90.2399C1.11583 88.9754 1.11586 88.9754 2.3189 90.2399Z" fill="#FFEE00"/>
<path d="M579.698 89.7513C580.901 89.7513 580.901 91.0158 579.698 92.2803C579.698 93.5448 578.495 93.5448 577.292 92.2803C576.089 92.2803 576.089 91.0158 577.292 89.7513C578.495 89.7513 578.495 88.4868 579.698 89.7513Z" fill="#844E00"/>
<path d="M538.795 79.6355C538.795 79.6355 539.998 80.9 538.795 80.9C538.795 80.9 537.592 82.1645 537.592 80.9C537.592 80.9 536.389 79.6355 537.592 79.6355H538.795Z" fill="#FFEE00"/>
<path d="M527.968 80.9C527.968 80.9 529.171 80.9 527.968 80.9C527.968 82.1645 527.968 82.1645 527.968 80.9C527.968 82.1645 526.765 80.9 527.968 80.9Z" fill="#FFEE00"/>
<path d="M565.262 97.3382V98.6027H564.059V97.3382C564.059 97.3382 564.059 97.3382 565.262 97.3382Z" fill="#FFEE00"/>
<path d="M559.247 127.686C559.247 128.95 559.247 128.95 558.044 128.95C558.044 128.95 558.044 127.686 559.247 127.686C558.044 127.686 558.044 127.686 559.247 127.686Z" fill="#FFEE00"/>
<path d="M521.953 141.595C521.953 141.595 523.156 142.86 521.953 142.86C520.75 142.86 520.75 144.124 520.75 142.86C520.75 142.86 519.547 141.595 520.75 141.595C520.75 141.595 520.75 141.595 521.953 141.595Z" fill="#844E00"/>
<path d="M553.232 161.827C554.435 161.827 554.435 163.091 553.232 163.091C553.232 164.356 552.029 164.356 552.029 163.091C550.825 163.091 550.825 161.827 552.029 161.827C552.029 161.827 552.028 160.562 553.232 161.827Z" fill="#FFEE00"/>
<path d="M515.938 203.555C514.735 204.819 515.938 204.819 515.938 203.555C514.735 203.555 514.735 203.555 515.938 203.555C514.735 203.555 514.735 203.555 515.938 203.555Z" fill="#FFEE00"/>
<path d="M530.374 232.638C530.374 233.903 530.374 233.903 530.374 232.638C529.171 233.903 530.374 233.903 530.374 232.638C529.171 233.903 529.171 233.903 530.374 232.638C529.171 232.638 529.171 232.638 530.374 232.638Z" fill="#FFEE00"/>
<path d="M519.547 237.696C519.547 237.696 520.75 238.96 519.547 238.96C519.547 238.96 518.344 240.225 518.344 238.96C518.344 238.96 517.141 237.696 518.344 237.696H519.547Z" fill="#FFEE00"/>
<path d="M533.983 268.044C533.983 268.044 535.186 269.308 533.983 269.308C533.983 269.308 532.78 270.573 532.78 269.308C532.78 269.308 531.577 268.044 532.78 268.044C532.78 266.779 533.983 266.779 533.983 268.044Z" fill="#FFEE00"/>
<path d="M539.998 288.275C541.201 288.275 541.201 289.54 539.998 289.54C539.998 289.54 538.795 290.804 538.795 289.54C538.795 289.54 537.592 288.275 538.795 288.275C537.592 288.275 538.795 288.275 539.998 288.275Z" fill="#FFEE00"/>
<path d="M535.186 293.333C535.186 294.598 535.186 294.598 533.983 294.598C533.983 294.598 533.983 293.333 535.186 293.333C535.186 292.069 533.983 293.333 535.186 293.333Z" fill="#FFEE00"/>
<path d="M525.562 311.036C526.765 311.036 526.765 312.301 525.562 313.565C525.562 314.829 524.359 314.829 523.156 313.565C521.953 313.565 521.953 312.301 523.156 311.036C524.359 311.036 525.562 311.036 525.562 311.036Z" fill="#FFEE00"/>
<path d="M513.531 371.731C513.531 372.996 513.531 372.996 512.328 372.996C512.328 372.996 512.328 371.731 513.531 371.731C512.328 371.731 512.328 370.467 513.531 371.731Z" fill="#FFEE00"/>
<path d="M157.433 335.061C157.433 333.797 157.433 333.797 157.433 335.061C157.433 333.797 156.23 333.797 156.23 333.797C155.027 333.797 155.027 335.061 157.433 335.061C156.23 335.061 156.23 335.061 157.433 335.061Z" fill="#FFEE00"/>
<path d="M189.915 278.159C191.118 276.895 191.118 276.895 189.915 278.159C189.915 276.895 188.712 276.895 188.712 276.895C188.712 276.895 188.712 278.159 189.915 278.159Z" fill="#FFEE00"/>
<path d="M175.478 254.134C174.275 252.87 174.275 252.87 175.478 254.134C174.275 254.134 174.275 254.134 175.478 254.134C175.478 255.399 174.275 255.399 175.478 254.134Z" fill="#FFEE00"/>
<path d="M161.042 265.515V264.25H159.839V265.515C159.839 265.515 159.839 265.515 161.042 265.515Z" fill="#844E00"/>
<path d="M156.23 259.192V257.928H155.027V259.192H156.23Z" fill="#FFEE00"/>
<path d="M228.412 413.459C229.615 412.195 229.615 412.195 228.412 413.459C228.412 412.195 227.209 412.195 227.209 412.195C227.209 412.195 227.209 413.459 228.412 413.459Z" fill="#FFEE00"/>
<path d="M254.879 378.054V376.789H253.676V378.054C253.676 379.318 254.879 379.318 254.879 378.054Z" fill="#FFEE00"/>
<path d="M241.645 365.409C241.645 364.144 241.645 364.144 241.645 362.88C240.442 362.88 240.442 362.88 239.239 362.88C239.239 364.144 239.239 364.144 239.239 365.409C240.442 365.409 241.645 365.409 241.645 365.409Z" fill="#FFEE00"/>
<path d="M209.163 391.963V390.699H207.96V391.963H209.163Z" fill="#FFEE00"/>
<path d="M199.539 395.756C199.539 394.492 199.539 395.756 199.539 395.756C198.336 394.492 198.336 394.492 199.539 395.756C198.336 395.756 198.336 395.756 199.539 395.756C199.539 395.756 198.336 395.756 199.539 395.756Z" fill="#FFEE00"/>
<path d="M226.006 364.144V362.88H224.803V364.144C224.803 365.409 224.803 365.409 226.006 364.144Z" fill="#FFEE00"/>
<path d="M207.96 340.119C207.96 338.855 207.96 340.119 207.96 340.119C206.757 338.855 207.96 338.855 207.96 340.119C206.757 340.119 206.757 338.855 207.96 340.119C207.96 340.119 206.757 340.119 207.96 340.119Z" fill="#FFEE00"/>
<path d="M168.26 343.913V342.648H167.057V343.913H168.26Z" fill="#FFEE00"/>
<path d="M188.712 312.301V311.036H187.509V312.301H188.712Z" fill="#FFEE00"/>
<path d="M151.418 298.391C150.215 297.127 151.418 297.127 151.418 298.391C150.215 298.391 150.215 298.391 151.418 298.391Z" fill="#FFEE00"/>
<path d="M138.184 290.804C138.184 289.54 138.184 290.804 138.184 290.804C136.981 289.54 136.981 289.54 138.184 290.804C136.981 290.804 136.981 290.804 138.184 290.804C138.184 290.804 136.981 290.804 138.184 290.804Z" fill="#FFEE00"/>
<path d="M138.184 256.663C139.387 256.663 139.387 256.663 138.184 256.663C138.184 257.928 138.184 257.928 138.184 256.663Z" fill="#FFEE00"/>
<path d="M127.357 257.928V256.663H126.154V257.928H127.357Z" fill="#FFEE00"/>
<path d="M128.56 223.787V222.522H127.357V223.787C127.357 225.051 128.56 225.051 128.56 223.787Z" fill="#844E00"/>
<path d="M124.951 202.29V201.026H123.748V202.29C123.748 203.555 123.748 203.555 124.951 202.29Z" fill="#FFEE00"/>
<path d="M118.936 201.026C118.936 199.761 118.936 201.026 118.936 201.026C118.936 199.761 117.733 199.762 117.733 199.762C117.733 201.026 117.733 201.026 118.936 201.026C118.936 201.026 117.733 201.026 118.936 201.026Z" fill="#FFEE00"/>
<path d="M51.8822 188.381C51.8822 187.117 51.8822 187.117 51.8822 185.852C50.6792 185.852 50.6792 185.852 49.4761 185.852C49.4761 187.117 49.4761 187.117 49.4761 188.381C50.6792 189.646 51.8822 189.646 51.8822 188.381Z" fill="#FFEE00"/>
<path d="M15.7911 130.976C15.7911 129.781 15.7911 129.781 15.7911 130.976C15.7911 129.781 14.5881 129.781 14.5881 129.781C14.5881 129.781 14.5881 130.976 15.7911 130.976Z" fill="#FFEE00"/>
</g>
</svg>
