<svg width="42" height="105" viewBox="0 0 42 105" fill="none" xmlns="http://www.w3.org/2000/svg">
<path fill-rule="evenodd" clip-rule="evenodd" d="M41.5079 4.9541C41.5079 2.74496 39.717 0.954102 37.5079 0.954102H4.00787C1.79873 0.954102 0.00787354 2.74496 0.00787354 4.9541V100.208C0.00787354 102.417 1.79873 104.208 4.00787 104.208H37.5079C39.717 104.208 41.5079 102.417 41.5079 100.208V4.9541ZM17.088 10.064C17.088 7.85483 15.2971 6.06396 13.088 6.06396H11.5548C9.34567 6.06396 7.55481 7.85482 7.55481 10.064V79.0679C7.55481 81.277 9.34567 83.0679 11.5548 83.0679H13.088C15.2971 83.0679 17.088 81.277 17.088 79.0679V10.064Z" fill="#FEB109"/>
</svg>
