<svg width="53" height="53" viewBox="0 0 53 53" fill="none" xmlns="http://www.w3.org/2000/svg">
<g filter="url(#filter0_d_91_177)">
<rect x="40.9243" y="10.1064" width="30" height="30" rx="4" transform="rotate(90 40.9243 10.1064)" fill="url(#paint0_linear_91_177)"/>
</g>
<g filter="url(#filter1_d_91_177)">
<rect x="40.9243" y="10.1064" width="30" height="30" rx="4" transform="rotate(90 40.9243 10.1064)" fill="url(#paint1_linear_91_177)"/>
</g>
<g filter="url(#filter2_i_91_177)">
<rect x="40.9243" y="10.1064" width="30" height="30" rx="4" transform="rotate(90 40.9243 10.1064)" fill="url(#paint2_linear_91_177)"/>
</g>
<path d="M31.8844 22.0502C31.8941 22.1836 31.8941 22.317 31.8941 22.4504C31.902 23.6014 31.6811 24.7424 31.2443 25.8072C30.8075 26.8721 30.1635 27.8395 29.3497 28.6533C28.5358 29.4672 27.5684 30.1112 26.5035 30.548C25.4387 30.9848 24.2977 31.2057 23.1467 31.1978C21.4721 31.2011 19.8322 30.7205 18.4243 29.8138C18.6709 29.8411 18.9188 29.854 19.1669 29.8524C20.5508 29.8561 21.8956 29.3934 22.9844 28.5392C22.343 28.5279 21.7211 28.3166 21.2055 27.9348C20.69 27.5529 20.3066 27.0197 20.1088 26.4094C20.3008 26.44 20.4947 26.4561 20.6891 26.4576C20.9603 26.4564 21.2303 26.4213 21.4928 26.3531C20.7975 26.2111 20.1727 25.8328 19.7245 25.2826C19.2762 24.7325 19.0321 24.0442 19.0335 23.3345V23.2975C19.4597 23.5355 19.9361 23.6693 20.4239 23.6881C19.7709 23.253 19.3086 22.585 19.1314 21.8205C18.9543 21.0561 19.0756 20.2529 19.4707 19.5748C20.2432 20.5249 21.2067 21.302 22.2988 21.8558C23.3909 22.4096 24.5872 22.7278 25.8102 22.7896C25.761 22.5581 25.7357 22.3222 25.7346 22.0856C25.7359 21.4691 25.9222 20.8671 26.2695 20.3578C26.6168 19.8484 27.1091 19.455 27.6825 19.2287C28.256 19.0023 28.8842 18.9534 29.4858 19.0882C30.0874 19.223 30.6346 19.5353 31.0566 19.9847C31.7452 19.8521 32.4054 19.6008 33.008 19.2421C32.7786 19.9525 32.298 20.5549 31.6562 20.9363C32.2663 20.8646 32.8622 20.702 33.4243 20.4541C33.0046 21.0691 32.4839 21.6087 31.8844 22.0502Z" fill="#EC1D5A"/>
<defs>
<filter id="filter0_d_91_177" x="0.924286" y="0.106445" width="46" height="46" filterUnits="userSpaceOnUse" color-interpolation-filters="sRGB">
<feFlood flood-opacity="0" result="BackgroundImageFix"/>
<feColorMatrix in="SourceAlpha" type="matrix" values="0 0 0 0 0 0 0 0 0 0 0 0 0 0 0 0 0 0 127 0" result="hardAlpha"/>
<feOffset dx="-2" dy="-2"/>
<feGaussianBlur stdDeviation="4"/>
<feComposite in2="hardAlpha" operator="out"/>
<feColorMatrix type="matrix" values="0 0 0 0 0.929167 0 0 0 0 0.902066 0 0 0 0 0.902066 0 0 0 0.1 0"/>
<feBlend mode="normal" in2="BackgroundImageFix" result="effect1_dropShadow_91_177"/>
<feBlend mode="normal" in="SourceGraphic" in2="effect1_dropShadow_91_177" result="shape"/>
</filter>
<filter id="filter1_d_91_177" x="4.92429" y="4.10645" width="48" height="48" filterUnits="userSpaceOnUse" color-interpolation-filters="sRGB">
<feFlood flood-opacity="0" result="BackgroundImageFix"/>
<feColorMatrix in="SourceAlpha" type="matrix" values="0 0 0 0 0 0 0 0 0 0 0 0 0 0 0 0 0 0 127 0" result="hardAlpha"/>
<feOffset dx="3" dy="3"/>
<feGaussianBlur stdDeviation="4.5"/>
<feComposite in2="hardAlpha" operator="out"/>
<feColorMatrix type="matrix" values="0 0 0 0 0 0 0 0 0 0 0 0 0 0 0 0 0 0 0.35 0"/>
<feBlend mode="normal" in2="BackgroundImageFix" result="effect1_dropShadow_91_177"/>
<feBlend mode="normal" in="SourceGraphic" in2="effect1_dropShadow_91_177" result="shape"/>
</filter>
<filter id="filter2_i_91_177" x="10.9243" y="10.1064" width="31" height="31" filterUnits="userSpaceOnUse" color-interpolation-filters="sRGB">
<feFlood flood-opacity="0" result="BackgroundImageFix"/>
<feBlend mode="normal" in="SourceGraphic" in2="BackgroundImageFix" result="shape"/>
<feColorMatrix in="SourceAlpha" type="matrix" values="0 0 0 0 0 0 0 0 0 0 0 0 0 0 0 0 0 0 127 0" result="hardAlpha"/>
<feOffset dx="1" dy="1"/>
<feGaussianBlur stdDeviation="1"/>
<feComposite in2="hardAlpha" operator="arithmetic" k2="-1" k3="1"/>
<feColorMatrix type="matrix" values="0 0 0 0 0.878431 0 0 0 0 0.898039 0 0 0 0 0.901961 0 0 0 1 0"/>
<feBlend mode="normal" in2="shape" result="effect1_innerShadow_91_177"/>
</filter>
<linearGradient id="paint0_linear_91_177" x1="40.2021" y1="7.89592" x2="78.7458" y2="28.4541" gradientUnits="userSpaceOnUse">
<stop stop-color="#FDFDFD"/>
<stop offset="1" stop-color="#E1E5E6"/>
</linearGradient>
<linearGradient id="paint1_linear_91_177" x1="40.2021" y1="7.89592" x2="78.7458" y2="28.4541" gradientUnits="userSpaceOnUse">
<stop stop-color="white"/>
<stop offset="1" stop-color="#DDE2E3"/>
</linearGradient>
<linearGradient id="paint2_linear_91_177" x1="40.2021" y1="7.89592" x2="78.7458" y2="28.4541" gradientUnits="userSpaceOnUse">
<stop stop-color="white"/>
<stop offset="1" stop-color="#DDE2E3"/>
</linearGradient>
</defs>
</svg>
